<svg width="93" height="93" viewBox="0 0 93 93" fill="none" xmlns="http://www.w3.org/2000/svg">
<path d="M29.0625 81.5247H49.4062V91.5469H29.0625V81.5247Z" fill="#EEB9AD"/>
<path d="M65.751 59.3558C70.1778 54.8287 72.6564 48.7485 72.6562 42.4168V38.1242C72.6566 35.9874 72.1591 33.8799 71.2031 31.9688L70.6248 23.3009C70.3796 19.6195 68.8476 16.1415 66.2968 13.4756C63.746 10.8098 60.3389 9.12598 56.6719 8.71879L55.21 7.74375C50.4794 4.58871 44.9206 2.90503 39.2344 2.90503C33.5482 2.90503 27.9893 4.58871 23.2587 7.74375L21.7969 8.71879C18.1298 9.12598 14.7227 10.8098 12.1719 13.4756C9.62115 16.1415 8.08912 19.6195 7.84397 23.3009L7.26562 31.9688C6.30981 33.8799 5.8123 35.9874 5.8125 38.1242V42.4168C5.8125 48.78 8.31333 54.8526 12.7177 59.3573" fill="#50BAE3"/>
<path d="M65.751 59.3559C70.1778 54.8288 72.6564 48.7485 72.6562 42.4168V38.1243C72.6562 35.9882 72.1593 33.8797 71.2031 31.9688L70.6248 23.3009C70.3796 19.6195 68.8476 16.1415 66.2968 13.4757C63.746 10.8099 60.3389 9.12602 56.6719 8.71883L55.21 7.74379C54.1074 7.01216 52.9557 6.3572 51.7632 5.78352C49.1122 4.99135 46.3606 4.58659 43.5938 4.58179C37.9077 4.58141 32.3488 6.26465 27.6181 9.41924L26.1562 10.3943C22.4892 10.8015 19.0821 12.4853 16.5313 15.1511C13.9805 17.817 12.4485 21.2949 12.2033 24.9764L11.625 33.6443C10.6692 35.5554 10.1717 37.6629 10.1719 39.7997V44.0923C10.1719 49.6984 12.1176 55.0764 15.5906 59.3573L65.751 59.3559Z" fill="#6EC5E7"/>
<path d="M45.0469 25.886H42.1406V24.7032C42.1406 20.925 41.8253 17.1207 41.2048 13.3964L40.7064 10.4117L43.5734 9.93359L44.0718 12.9183C44.7185 16.8011 45.0469 20.7652 45.0469 24.7032V25.886ZM37.4587 26.7375L36.084 24.7773C34.3457 22.1745 33.4192 19.1143 33.4219 15.9844H36.3281C36.3281 18.5492 37.0808 21.0311 38.502 23.1643L39.8142 25.0345L37.4587 26.7375ZM14.5051 35.4156L14.0517 34.8794C12.4857 32.8732 11.632 30.4029 11.625 27.8579V27.6094H14.5312V27.8579C14.5312 29.7295 15.1634 31.5721 16.3084 33.0499L16.7226 33.5367L14.5051 35.4156ZM71.8745 33.573C71.6846 33.0247 71.4604 32.4889 71.2031 31.9688L71.0317 29.3953L69.9941 31.1623L69.5059 31.8947C68.9706 32.6969 68.2684 33.374 67.4473 33.8799C66.6262 34.3857 65.7056 34.7083 64.7483 34.8256L62.743 35.1061L63.1455 37.9833L65.1291 37.7057C66.4828 37.5369 67.7849 37.0808 68.9482 36.3681C70.1115 35.6554 71.1092 34.7024 71.8745 33.573Z" fill="#4197CD"/>
<path d="M59.7569 67.0225C62.4342 64.7424 64.5844 61.908 66.0588 58.7154C67.5333 55.5228 68.2969 52.0481 68.2969 48.5315C68.2969 35.3705 57.6295 24.7031 44.4685 24.7031H33.9988C20.8393 24.7031 10.1719 35.3705 10.1719 48.5315C10.1719 55.7244 13.3571 62.5105 18.8063 67.1039" fill="#92E0F7"/>
<path d="M39.2344 30.5156C50.4627 30.5156 60.3788 37.8394 63.6803 48.5707L63.9375 49.4062L61.0269 62.5033C59.16 70.9034 54.2147 78.2998 47.1655 83.235C44.8405 84.8612 42.0717 85.7333 39.2344 85.7333C36.397 85.7333 33.6283 84.8612 31.3032 83.235C24.2536 78.3002 19.3082 70.9036 17.4419 62.5033L14.5312 49.4062L14.7885 48.5707C16.397 43.3428 19.6391 38.7682 24.039 35.5186C28.4388 32.269 33.7646 30.5155 39.2344 30.5156Z" fill="#EEB9AD"/>
<path d="M34.2095 83.235C36.1317 84.567 38.3607 85.389 40.6875 85.6239C43.0144 85.3894 45.2435 84.5674 47.1655 83.235C54.2152 78.3002 59.1605 70.9036 61.0269 62.5033L63.9375 49.4062L63.6803 48.5707C62.1431 43.5826 59.116 39.1846 55.0057 35.9676C50.8953 32.7506 45.8988 30.8688 40.6875 30.5752C35.4762 30.8688 30.4797 32.7506 26.3693 35.9676C22.259 39.1846 19.2319 43.5826 17.6947 48.5707L17.4375 49.4062L20.3481 62.5033C22.2145 70.9036 27.1598 78.3002 34.2095 83.235Z" fill="#FFE2D5"/>
<path d="M49.4063 53.7656C48.2622 53.7697 47.1398 53.4529 46.1666 52.8514C45.1934 52.2499 44.4083 51.3876 43.9004 50.3624L43.7478 50.0573L46.3474 48.7567L46.5 49.0633C47.0537 50.1706 48.1668 50.8594 49.4063 50.8594C50.6458 50.8594 51.7589 50.1706 52.3125 49.0633L52.4651 48.7567L55.0647 50.0573L54.9122 50.3639C54.4039 51.3887 53.6186 52.2505 52.6455 52.8518C51.6723 53.4531 50.5502 53.7696 49.4063 53.7656ZM29.0625 53.7656C27.9184 53.7697 26.7961 53.4529 25.8229 52.8514C24.8497 52.2499 24.0646 51.3876 23.5566 50.3624L23.4041 50.0573L26.0037 48.7567L26.1563 49.0633C26.7099 50.1706 27.823 50.8594 29.0625 50.8594C30.302 50.8594 31.4151 50.1706 31.9688 49.0633L32.1213 48.7567L34.721 50.0573L34.5684 50.3639C34.0601 51.3887 33.2749 52.2505 32.3017 52.8518C31.3286 53.4531 30.2064 53.7696 29.0625 53.7656Z" fill="#EEB9AD"/>
<path d="M47.1655 84.6882C44.8406 86.3147 42.0718 87.1873 39.2344 87.1876C36.6565 87.1876 34.1513 86.4334 31.9688 85.0805C31.9688 86.7955 32.65 88.4403 33.8627 89.653C35.0754 90.8657 36.7202 91.5469 38.4352 91.5469H49.4062V82.9575C48.6835 83.565 47.936 84.1424 47.1655 84.6882Z" fill="#FFE2D5"/>
<path d="M53.7656 69.75V66.5938C53.7656 65.5039 53.3327 64.4587 52.562 63.688C51.7913 62.9174 50.7461 62.4844 49.6562 62.4844C48.5663 62.4843 47.521 62.0516 46.7499 61.2812L44.1968 58.7281C42.8808 57.4124 41.0963 56.6731 39.2354 56.6729C37.3745 56.6726 35.5897 57.4113 34.2734 58.7266L31.7203 61.2798C30.9492 62.0501 29.9039 62.4829 28.814 62.483C27.7239 62.4833 26.6785 62.9166 25.9076 63.6874C25.1367 64.4583 24.7035 65.5037 24.7031 66.5938V71.9501C24.7031 76.1234 26.3611 80.1253 29.3124 83.0766C30.615 84.3803 32.1617 85.4144 33.8641 86.1201C35.5665 86.8257 37.3912 87.189 39.2341 87.1891C41.0769 87.1893 42.9017 86.8263 44.6042 86.1209C46.3067 85.4155 47.8536 84.3815 49.1563 83.0781C51.2231 81.0108 52.6737 78.409 53.3457 75.564L53.7656 69.75Z" fill="#6BAA93"/>
<path d="M53.7656 69.75V66.5938C53.7656 65.5039 53.3327 64.4587 52.562 63.688C51.7913 62.9174 50.7461 62.4844 49.6562 62.4844C48.5663 62.4843 47.521 62.0516 46.7499 61.2812L44.1968 58.7281C42.8808 57.4124 41.0963 56.6731 39.2354 56.6729C37.3745 56.6726 35.5897 57.4113 34.2734 58.7266L31.7203 61.2798C30.9492 62.0501 29.9039 62.4829 28.814 62.483C28.737 62.483 28.6658 62.5018 28.5902 62.5062C27.9612 63.2403 27.6136 64.174 27.6094 65.1407V70.4969C27.6094 74.6703 29.2674 78.6722 32.2187 81.6235C33.5214 82.9269 35.0682 83.9608 36.7706 84.6662C38.4731 85.3715 40.2978 85.7345 42.1406 85.7344C43.7892 85.7295 45.4239 85.4334 46.9694 84.8596C47.7571 84.3407 48.4903 83.7433 49.1578 83.0766C51.2249 81.009 52.6755 78.4066 53.3471 75.5611L53.7656 69.75Z" fill="#8BC6AE"/>
<path d="M39.2344 78.4688C42.4445 78.4688 45.0469 75.8664 45.0469 72.6562C45.0469 69.4461 42.4445 66.8438 39.2344 66.8438C36.0242 66.8438 33.4219 69.4461 33.4219 72.6562C33.4219 75.8664 36.0242 78.4688 39.2344 78.4688Z" fill="#559580"/>
<path d="M78.4688 91.5469L66.5938 79.6719C65.2908 78.369 63.744 77.3355 62.0416 76.6304C60.3391 75.9253 58.5145 75.5624 56.6719 75.5625H40.6875C39.9167 75.5625 39.1775 75.2563 38.6325 74.7113C38.0874 74.1663 37.7812 73.427 37.7812 72.6562C37.7812 71.8855 38.0874 71.1462 38.6325 70.6012C39.1775 70.0562 39.9167 69.75 40.6875 69.75H56.6719C62.2548 69.75 67.6081 71.9675 71.5562 75.9156L87.1875 91.5469" fill="#BEE2DC"/>
</svg>
