<svg width="76" height="76" viewBox="0 0 76 76" fill="none" xmlns="http://www.w3.org/2000/svg">
<g clip-path="url(#clip0_41_885)">
<path d="M15.6198 27.202L8.31562 28.1726L0 27.202V23.0697C0 21.9737 0.888331 21.0854 1.98425 21.0854H15.6196C18.5924 21.0854 21.5349 20.3179 24.1289 18.8663L27.6194 16.9127C31.3857 14.8081 34.2354 11.3789 35.6151 7.29096L37.0886 2.93466C37.3508 2.15968 38.1915 1.7439 38.9665 2.00594L41.9541 3.0165C42.7291 3.2787 43.1449 4.11946 42.8828 4.89444L41.4094 9.25073C39.5385 14.7819 35.7021 19.3986 30.6068 22.2502L27.1164 24.2038C23.6027 26.1676 19.645 27.1997 15.6198 27.202Z" fill="#FFEEE6"/>
<path d="M41.9541 3.01652L38.9665 2.00596C38.2603 1.76717 37.5013 2.09209 37.1733 2.73765L37.9977 3.01652C38.7727 3.27872 39.1885 4.11948 38.9264 4.89446L37.4529 9.25075C35.582 14.7819 31.7457 19.3986 26.6504 22.2502L23.1599 24.2038C19.6462 26.1676 15.6885 27.1997 11.6633 27.202L13.9031 27.4303L15.6199 27.202C19.6451 27.1997 23.6028 26.1676 27.1165 24.2038L30.607 22.2502C35.7023 19.3986 39.5386 14.7819 41.4095 9.25075L42.883 4.89446C43.1449 4.11933 42.7291 3.27857 41.9541 3.01652Z" fill="#FFDFCF"/>
<path d="M76 24.124V27.2019L63.6485 28.6033L43.3574 27.2019L49.4024 24.9978C54.5879 23.107 60.0646 22.1397 65.5841 22.1398H74.0158C75.1117 22.1398 76 23.0283 76 24.124Z" fill="#FFEEE6"/>
<path d="M70.2528 22.1398C70.7711 22.2985 71.2248 22.6194 71.5472 23.0552C71.8695 23.4911 72.0435 24.0188 72.0435 24.5609V27.6509L76.0001 27.2019V24.124C76.0001 23.0281 75.1118 22.1398 74.0159 22.1398H70.2528Z" fill="#FFDFCF"/>
<path d="M76 72.0882V67.4953L38 64.5254L0 67.4953V72.0882C0 73.1841 0.888331 74.0725 1.98425 74.0725H74.0157C75.1117 74.0725 76 73.1841 76 72.0882Z" fill="#FD8087"/>
<path d="M72.0434 67.1859V71.3767C72.0434 72.5883 71.2799 73.6683 70.1379 74.0724H74.0157C75.1116 74.0724 76 73.1841 76 72.0882V67.4951L72.0434 67.1859Z" fill="#FE646F"/>
<path d="M76 47.356V67.4953H31.8848L30.8565 66.7364L29.5901 67.4953H0V44.7661L54.5742 40.6067L72.044 46.1092L76 47.356Z" fill="#FDB4BA"/>
<path d="M76 47.356V67.4953H72.0441V46.1093L76 47.356ZM67.7699 57.4006L63.0884 52.0398V43.1617C63.0884 42.5279 62.5749 42.0144 61.9411 42.0144C61.3073 42.0144 60.7938 42.5279 60.7938 43.1617V52.0735L57.8366 55.8367C57.7435 55.9552 57.6746 56.0908 57.634 56.2359C57.5933 56.381 57.5816 56.5327 57.5996 56.6823C57.6358 56.9844 57.7906 57.2598 58.0299 57.4478C58.2691 57.6358 58.5733 57.721 58.8754 57.6848C59.1776 57.6485 59.4529 57.4938 59.6409 57.2545L61.9876 54.2682L66.0413 58.9101C66.1489 59.0336 66.2818 59.1325 66.431 59.2003C66.5801 59.268 66.7421 59.3029 66.9059 59.3027C67.1262 59.3026 67.3418 59.2391 67.527 59.1198C67.7122 59.0005 67.8591 58.8303 67.9502 58.6298C68.0413 58.4292 68.0728 58.2066 68.0408 57.9887C68.0088 57.7707 67.9148 57.5665 67.7699 57.4006ZM35.1172 52.6612L31.8848 61.2401V67.4953H29.5902V61.592L23.9163 57.1587C22.6022 56.1322 20.9593 55.5678 19.2918 55.5678H18.0986C17.4653 55.5678 16.9513 55.0538 16.9513 54.4204C16.9513 53.7871 17.4653 53.2731 18.0986 53.2731H19.2918C21.4687 53.2731 23.6119 54.0105 25.3283 55.3505L30.2143 59.1673L32.9694 51.852C33.1928 51.26 33.8551 50.9601 34.4487 51.1835C35.0407 51.4068 35.3405 52.0692 35.1172 52.6612Z" fill="#FE99A0"/>
<path d="M46.2295 61.3701C46.854 61.3701 47.3602 60.8638 47.3602 60.2394C47.3602 59.615 46.854 59.1088 46.2295 59.1088C45.6051 59.1088 45.0989 59.615 45.0989 60.2394C45.0989 60.8638 45.6051 61.3701 46.2295 61.3701Z" fill="#FE99A0"/>
<path d="M7.56485 59.2859C8.18929 59.2859 8.69549 58.7797 8.69549 58.1553C8.69549 57.5309 8.18929 57.0247 7.56485 57.0247C6.94041 57.0247 6.4342 57.5309 6.4342 58.1553C6.4342 58.7797 6.94041 59.2859 7.56485 59.2859Z" fill="#FE99A0"/>
<path d="M76 34.8373V47.3558L65.441 45.3556C63.3893 44.9657 61.2783 45.0131 59.2462 45.4948L49.0115 47.9155C46.7398 48.4526 44.3735 48.4474 42.1042 47.9002L32.6997 45.6356C30.3277 45.0638 27.8515 45.0848 25.4896 45.6968L17.6999 47.7122C15.1217 48.3805 12.4113 48.3436 9.85226 47.6051L0 44.7653V34.8373L38.0145 32.7382L76 34.8373Z" fill="#FFCEBF"/>
<path d="M72.0435 34.6188V46.6063L76 47.3559V34.8374L72.0435 34.6188Z" fill="#FFB09E"/>
<path d="M0 27.202H76V34.8374H0V27.202Z" fill="#FFDFCF"/>
<path d="M72.0435 27.202H76V34.8374H72.0435V27.202Z" fill="#FFCEBF"/>
</g>
<defs>
<clipPath id="clip0_41_885">
<rect width="76" height="76" fill="white"/>
</clipPath>
</defs>
</svg>
