<svg width="78" height="78" viewBox="0 0 78 78" fill="none" xmlns="http://www.w3.org/2000/svg">
<path fill-rule="evenodd" clip-rule="evenodd" d="M20.2556 15.3127C10.2102 17.4792 6.70126 33.1966 14.6644 39.4738C20.3715 34.4023 26.5289 25.4068 30.4392 17.0698C28.5085 13.4975 27.7997 9.92963 29.7525 6.09468C31.7813 2.11303 24.2283 -1.97542 21.7313 2.21098C19.5778 6.63764 19.2256 11.0241 20.2556 15.3127Z" fill="#E94444"/>
<path fill-rule="evenodd" clip-rule="evenodd" d="M60.116 9.7561C47.8236 11.807 40.159 27.3776 56.6115 33.5347C59.2376 34.5133 62.4792 35.2563 66.4116 35.6657C65.569 33.0275 64.334 30.4918 62.7421 28.0582C60.6777 24.8997 58.3682 22.3772 55.9069 20.4153C57.2267 19.2497 58.8674 18.3155 60.8828 17.0209C62.4388 15.9932 62.2872 14.1159 61.5918 12.7235L60.116 9.7561Z" fill="#D83131"/>
<path fill-rule="evenodd" clip-rule="evenodd" d="M17.2816 30.603C15.9128 33.3834 14.9943 36.3818 14.6643 39.4738C14.2096 43.7001 14.8516 48.1088 16.9382 52.4018C20.7058 60.156 28.883 68.3239 37.9297 74.9926C40.6583 77.0034 43.2801 77.9643 45.7144 78H45.973C48.8978 77.9599 51.5419 76.5675 53.7711 74.0228C66.5942 59.3685 69.9071 46.6318 66.4114 35.6657C62.4788 35.2563 59.2374 34.5135 56.6113 33.5347C55.4609 33.1031 54.4265 32.6272 53.5036 32.111C41.2512 25.2644 48.6838 11.6645 60.1158 9.75609L63.8388 8.71513C65.1675 8.34143 66.0279 7.45616 65.4795 5.78343L64.1686 1.78852C63.8168 0.707332 63.1122 0.0266602 62.1269 0H61.904C53.709 0.0801328 42.861 6.07257 36.4273 13.4843C35.21 14.8857 34.996 15.1792 33.5781 15.6908C32.5125 16.0733 31.4647 16.536 30.4392 17.07C24.9416 19.926 20.1352 24.7929 17.2816 30.603Z" fill="#F47C7C"/>
<path fill-rule="evenodd" clip-rule="evenodd" d="M55.2249 7.50953C42.6068 12.0873 36.7972 28.2897 49.0496 35.9238C49.9725 36.4976 51.0069 37.0315 52.1573 37.512C52.6674 37.722 53.1834 37.9179 53.7045 38.0992C56.0274 38.9045 58.765 39.5183 61.9574 39.892C65.4529 52.1171 56.1924 61.3438 43.3647 77.6887C44.1673 77.8888 44.9476 77.9912 45.7145 78H45.973C48.8979 77.96 51.5419 76.5676 53.7712 74.0228C66.5943 59.3686 69.9071 46.6319 66.4115 35.6657C62.4789 35.2564 59.2374 34.5135 56.6113 33.5347C55.461 33.1031 54.4266 32.6272 53.5037 32.1111C41.2513 25.2644 48.6838 11.6646 60.1159 9.75614L63.8388 8.71518C65.1676 8.34148 66.028 7.45621 65.4796 5.78348L65.1051 4.64014C64.9535 4.7157 64.793 4.77801 64.6236 4.82691L55.2249 7.50953Z" fill="#EE6161"/>
<path d="M22.2801 60.862C22.097 60.8621 21.9164 60.8194 21.7526 60.7374C21.5889 60.6555 21.4465 60.5364 21.3368 60.3897C21.2272 60.243 21.1533 60.0728 21.121 59.8925C21.0887 59.7123 21.0989 59.527 21.1508 59.3513C23.7769 50.4539 31.6343 43.375 40.7034 41.7366C41.0083 41.6864 41.3207 41.7581 41.5733 41.9363C41.8258 42.1144 41.9981 42.3847 42.053 42.6888C42.108 42.993 42.0411 43.3065 41.8669 43.5617C41.6927 43.817 41.4251 43.9935 41.1219 44.0531C32.9073 45.5373 25.7891 51.9528 23.4089 60.0175C23.3369 60.2612 23.1881 60.475 22.9847 60.6272C22.7813 60.7794 22.5342 60.8617 22.2801 60.862Z" fill="#E94444"/>
<path d="M32.151 47.6621C31.8411 47.662 31.5437 47.5397 31.3234 47.3217C31.1031 47.1037 30.9776 46.8076 30.9743 46.4977C30.9284 42.2181 26.1844 37.5191 21.9097 37.5191C21.5975 37.5191 21.2981 37.3951 21.0774 37.1743C20.8567 36.9536 20.7327 36.6542 20.7327 36.342C20.7327 36.0299 20.8567 35.7305 21.0774 35.5098C21.2981 35.289 21.5975 35.165 21.9097 35.165C24.533 35.165 27.3517 36.452 29.6429 38.6959C31.9563 40.9613 33.2995 43.7958 33.3283 46.4726C33.3316 46.7848 33.2108 47.0855 32.9924 47.3086C32.774 47.5317 32.476 47.6589 32.1638 47.6623L32.151 47.6621Z" fill="#E94444"/>
<path d="M30.2255 42.3413H30.2126C29.9004 42.338 29.6024 42.2108 29.384 41.9877C29.1656 41.7647 29.0448 41.464 29.048 41.1518C29.0947 36.798 33.5769 32.3622 37.9297 32.3622C38.2419 32.3622 38.5412 32.4862 38.762 32.7069C38.9827 32.9277 39.1067 33.2271 39.1067 33.5392C39.1067 33.8514 38.9827 34.1508 38.762 34.3715C38.5412 34.5922 38.2419 34.7162 37.9297 34.7162C34.8513 34.7162 31.435 38.0975 31.4021 41.1768C31.3988 41.4867 31.2734 41.7829 31.0531 42.0009C30.8329 42.2189 30.5355 42.3413 30.2255 42.3413ZM32.7674 55.0337C30.1181 55.0337 27.4169 54.052 25.8142 52.1855C25.6171 51.9478 25.5211 51.6422 25.5472 51.3345C25.5732 51.0268 25.7191 50.7416 25.9534 50.5405C26.1876 50.3393 26.4916 50.2383 26.7997 50.2591C27.1078 50.2799 27.3954 50.421 27.6005 50.6518C29.6117 52.9941 34.4099 53.4003 36.769 51.4277C37.0084 51.2275 37.3176 51.1305 37.6286 51.1582C37.9395 51.186 38.2267 51.336 38.4269 51.5755C38.5261 51.6941 38.601 51.831 38.6472 51.9785C38.6935 52.126 38.7102 52.2811 38.6965 52.4351C38.6828 52.589 38.6388 52.7388 38.5672 52.8758C38.4956 53.0128 38.3977 53.1343 38.2792 53.2335C36.8264 54.4484 34.8124 55.0337 32.7674 55.0337ZM50.5201 47.5599C50.3012 47.5597 50.0867 47.4985 49.9007 47.3831C49.7146 47.2677 49.5645 47.1027 49.467 46.9067C49.3696 46.7106 49.3287 46.4913 49.3491 46.2734C49.3694 46.0554 49.4501 45.8474 49.5822 45.6728C52.0919 42.3541 53.4224 36.0468 52.3735 32.4398C52.2864 32.14 52.3219 31.8178 52.4723 31.5442C52.6226 31.2706 52.8755 31.0679 53.1753 30.9808C53.4751 30.8936 53.7973 30.9291 54.0709 31.0795C54.3445 31.2298 54.5472 31.4827 54.6343 31.7825C55.8992 36.1335 54.4457 43.1446 51.4601 47.0928C51.3503 47.2381 51.2082 47.3559 51.0451 47.437C50.882 47.518 50.7023 47.5601 50.5201 47.5599Z" fill="#E94444"/>
<path d="M55.2194 49.9401C55.017 49.94 54.8179 49.8876 54.6416 49.788C54.4653 49.6885 54.3176 49.5451 54.2129 49.3719C54.1082 49.1986 54.0499 49.0012 54.0437 48.7988C54.0375 48.5964 54.0836 48.3959 54.1776 48.2165C55.022 46.605 54.0069 43.524 52.3368 42.6289C51.7637 42.3217 51.5483 41.6083 51.8554 41.0353C52.1625 40.4624 52.8756 40.2465 53.4489 40.5539C56.2572 42.0592 57.7036 46.5595 56.2628 49.3091C56.1632 49.4996 56.0132 49.6591 55.8293 49.7704C55.6453 49.8816 55.4344 49.9403 55.2194 49.9401ZM59.7674 66.97C59.5083 66.9697 59.2566 66.8841 59.0512 66.7263C58.8457 66.5685 58.6981 66.3473 58.631 66.0971C57.8238 63.0818 53.1457 60.4627 50.0006 61.2654C49.8508 61.3036 49.695 61.312 49.542 61.29C49.3889 61.2681 49.2417 61.2161 49.1088 61.1373C48.9759 61.0584 48.8598 60.9541 48.7671 60.8303C48.6745 60.7065 48.6072 60.5657 48.569 60.4159C48.4918 60.1135 48.5379 59.7927 48.6972 59.5243C48.8564 59.2558 49.1158 59.0616 49.4182 58.9843C51.4297 58.4709 53.9981 58.9161 56.2889 60.1755C58.6688 61.4838 60.3511 63.4201 60.9051 65.4882C60.9518 65.6627 60.9578 65.8455 60.9226 66.0227C60.8873 66.1999 60.8118 66.3665 60.7018 66.5098C60.5918 66.6531 60.4503 66.7691 60.2883 66.8489C60.1262 66.9287 59.948 66.9702 59.7674 66.97Z" fill="#E94444"/>
<path d="M47.4375 66.0436C46.7799 66.0436 46.1499 65.9472 45.5698 65.7513C45.274 65.6514 45.03 65.4381 44.8915 65.1584C44.753 64.8786 44.7313 64.5552 44.8312 64.2595C44.931 63.9637 45.1443 63.7197 45.4241 63.5812C45.7039 63.4427 46.0272 63.4209 46.323 63.5208C48.5298 64.2662 52.2233 62.3822 53.0215 60.105C53.0727 59.9591 53.152 59.8247 53.2551 59.7095C53.3582 59.5943 53.4829 59.5005 53.6222 59.4335C53.7616 59.3665 53.9127 59.3276 54.0671 59.3191C54.2214 59.3105 54.3759 59.3324 54.5218 59.3836C54.6677 59.4348 54.802 59.5141 54.9172 59.6172C55.0324 59.7203 55.1262 59.845 55.1932 59.9843C55.2602 60.1236 55.2991 60.2747 55.3076 60.4291C55.3162 60.5834 55.2943 60.7379 55.2432 60.8838C54.6786 62.4945 53.2085 64.0443 51.3107 65.0296C50.021 65.6992 48.6797 66.0436 47.4375 66.0436Z" fill="#E94444"/>
</svg>
