<svg width="95" height="95" viewBox="0 0 95 95" fill="none" xmlns="http://www.w3.org/2000/svg">
<path d="M90.5469 90.5469H4.45312V63.8281L6.98064 62.856C18.0655 58.5926 29.8404 56.4062 41.7169 56.4063H49.9971C63.9989 56.4063 77.8338 59.445 90.5469 65.3125V90.5469Z" fill="#FAA6A6"/>
<path d="M31.1719 56.9843C22.8889 57.8917 14.7579 59.8653 6.98064 62.8561L4.45312 63.8282V90.5469H90.5469V74.2188H48.4064C43.8355 74.2188 39.4518 72.403 36.2197 69.1709C32.9876 65.9388 31.1719 61.5551 31.1719 56.9843Z" fill="#E88080"/>
<path d="M90.5469 65.3126C84.3627 62.4591 77.8946 60.2665 71.25 58.7713V78.6719H23.75V58.0903C18.0282 59.1711 12.4156 60.7661 6.98064 62.8561L4.45312 63.8282V90.5469H90.5469V65.3126Z" fill="#3B9DAF"/>
<path d="M90.5469 65.3126C84.3627 62.4591 77.8946 60.2665 71.25 58.7713V78.6719H23.75V58.0903C18.0282 59.1711 12.4156 60.7661 6.98064 62.8561L4.45312 63.8282C9.60552 70.3857 16.0516 75.8135 23.3907 79.7741C30.7298 83.7346 38.8051 86.1434 47.1146 86.8507L90.5469 90.5469V65.3126Z" fill="#77D5D8"/>
<path d="M41.5625 68.2812H34.1406V65.3125H44.5312C44.5312 66.0999 44.2185 66.855 43.6617 67.4117C43.105 67.9685 42.3499 68.2812 41.5625 68.2812ZM28.2031 65.3125H31.1719V68.2812H28.2031V65.3125Z" fill="#CE3521"/>
<path d="M39.8979 66.7969L73.2964 33.3984C73.8869 32.8079 74.6878 32.4762 75.5229 32.4762C76.3581 32.4762 77.159 32.8079 77.7495 33.3984C78.0419 33.6908 78.2739 34.0379 78.4321 34.42C78.5904 34.802 78.6718 35.2115 78.6718 35.625C78.6718 36.0385 78.5904 36.448 78.4321 36.83C78.2739 37.212 78.0419 37.5592 77.7495 37.8516L62.1636 53.4375V57.8906L53.2573 66.7969H39.8979Z" fill="#E5E5E5"/>
<path d="M77.7495 33.3984C77.5781 33.2281 77.3877 33.0781 77.1819 32.9514C77.1553 33.746 76.8276 34.5008 76.2651 35.0628L60.6792 50.6487C60.6792 52.0605 60.4012 53.4585 59.8609 54.7628C59.3206 56.0671 58.5288 57.2523 57.5305 58.2505L54.9219 60.8593C52.9057 62.8755 50.1711 64.0082 47.3198 64.0083H42.6867L39.8979 66.7968H53.2573L62.1636 57.8906V53.4375L77.7495 37.8515C78.0419 37.5591 78.2739 37.212 78.4321 36.83C78.5904 36.4479 78.6718 36.0385 78.6718 35.625C78.6718 35.2114 78.5904 34.802 78.4321 34.4199C78.2739 34.0379 78.0419 33.6908 77.7495 33.3984Z" fill="#B7B7B7"/>
<path d="M71.25 13.3594C65.5474 7.65681 57.8131 4.45313 49.7485 4.45312H45.2515C37.1869 4.45313 29.4526 7.65681 23.75 13.3594V16.3281H71.25V13.3594Z" fill="#066991"/>
<path d="M72.3277 13.3594H22.6723C21.6279 13.3594 20.7812 14.206 20.7812 15.2505V17.4058C20.7812 18.4502 21.6279 19.2969 22.6723 19.2969H72.3277C73.3721 19.2969 74.2188 18.4502 74.2188 17.4058V15.2505C74.2188 14.206 73.3721 13.3594 72.3277 13.3594Z" fill="#77D5D8"/>
<path d="M72.3277 13.3594H22.6723C22.1708 13.3594 21.6898 13.5586 21.3351 13.9133C20.9805 14.2679 20.7813 14.7489 20.7812 15.2505V17.4058C20.7815 17.5426 20.7966 17.679 20.8263 17.8125C20.9189 17.3918 21.1524 17.0153 21.4881 16.7454C21.8238 16.4755 22.2416 16.3282 22.6723 16.3281H72.3277C72.7584 16.3282 73.1762 16.4755 73.5119 16.7454C73.8476 17.0153 74.0811 17.3918 74.1737 17.8125C74.2034 17.679 74.2185 17.5426 74.2188 17.4058V15.2505C74.2188 14.7489 74.0195 14.2679 73.6649 13.9133C73.3102 13.5586 72.8292 13.3594 72.3277 13.3594Z" fill="#3B9DAF"/>
<path d="M22.2656 19.2969C25.5004 25.1197 33.8746 25.1197 37.1094 19.2969H22.2656ZM40.0781 19.2969C43.313 25.1197 51.687 25.1197 54.9219 19.2969H40.0781ZM57.8906 19.2969C61.1255 25.1197 69.4995 25.1197 72.7344 19.2969H57.8906Z" fill="#F9E48C"/>
<path d="M9.18799 33.2704L16.6069 22.8765L19.0233 24.6013L11.6046 34.9953L9.18799 33.2704ZM31.2239 39.736L34.1982 27.8629L37.0779 28.5841L34.1034 40.4574L31.2239 39.736ZM56.4555 28.5323L59.335 27.8109L62.3093 39.684L59.4298 40.4055L56.4555 28.5323ZM75.9954 24.6377L78.412 22.913L85.8307 33.307L83.4143 35.0318L75.9954 24.6377Z" fill="#F7CE23"/>
</svg>
