<svg width="122" height="122" viewBox="0 0 122 122" fill="none" xmlns="http://www.w3.org/2000/svg">
<path d="M119.897 54.6896C120.454 54.6896 120.989 54.468 121.384 54.0736C121.778 53.6791 122 53.1441 122 52.5862V42.069C122 40.9532 121.557 39.8832 120.768 39.0942C119.979 38.3053 118.909 37.8621 117.793 37.8621H4.2069C3.09116 37.8621 2.02112 38.3053 1.23217 39.0942C0.443225 39.8832 0 40.9532 0 42.069L0 52.5862C0 53.1441 0.221613 53.6791 0.616086 54.0736C1.01056 54.468 1.54558 54.6896 2.10345 54.6896H119.897Z" fill="#FDD7AD"/>
<path d="M4.36283e-05 105.679C-0.00204981 105.355 0.0712218 105.035 0.214068 104.745C0.356914 104.454 0.565419 104.201 0.823105 104.004C1.08079 103.808 1.3806 103.674 1.69882 103.614C2.01705 103.553 2.34498 103.568 2.6567 103.656C19.86 108.262 37.9418 108.494 55.2576 104.331C83.7404 97.7809 94.8761 98.1364 120.065 100.2C120.593 100.242 121.086 100.482 121.445 100.872C121.803 101.262 122.002 101.773 122 102.303V119.897C122 120.454 121.778 120.989 121.384 121.384C120.989 121.778 120.454 122 119.897 122H2.10349C1.54562 122 1.0106 121.778 0.616129 121.384C0.221656 120.989 4.36283e-05 120.454 4.36283e-05 119.897V105.679Z" fill="#F3D55B"/>
<path d="M119.897 63.1035C120.454 63.1035 120.989 63.3251 121.384 63.7196C121.778 64.1141 122 64.6491 122 65.207V89.6701C121.998 89.9612 121.936 90.2488 121.818 90.5147C121.699 90.7806 121.526 91.0189 121.311 91.2146C121.095 91.4104 120.842 91.5593 120.566 91.6518C120.289 91.7444 119.997 91.7787 119.707 91.7525C111.157 91.0478 102.573 90.4021 94.6973 90.4483C66.6794 90.6103 54.4794 98.8621 29.7428 98.8621C20.1773 98.9245 10.6537 97.5924 1.47245 94.9077C1.04338 94.7727 0.668851 94.5038 0.403846 94.1404C0.138842 93.7769 -0.00268492 93.3381 3.85831e-05 92.8883V65.207C3.85831e-05 64.6491 0.221651 64.1141 0.616124 63.7196C1.0106 63.3251 1.54562 63.1035 2.10349 63.1035H119.897Z" fill="#FB7B76"/>
<path d="M73.6332 0C73.6332 0 70.7283 10.2228 70.6231 68.3621C70.6231 72.4217 66.5761 75.7241 61.5972 75.7241C56.7593 75.7241 52.8048 72.611 52.5945 68.6986V65.7538C53.4064 8.07724 73.6332 0 73.6332 0Z" fill="#805333"/>
<path d="M39.9654 2.10352C39.9654 2.10352 38.2238 6.9772 38.1586 41.8734C38.0121 43.1715 37.3633 44.3607 36.3509 45.1863C35.3386 46.0119 34.0432 46.4083 32.7422 46.2907C32.0747 46.3556 31.4011 46.2836 30.7625 46.079C30.1239 45.8743 29.5338 45.5414 29.0284 45.1007C28.5231 44.6599 28.1131 44.1205 27.8235 43.5157C27.534 42.9108 27.3711 42.2532 27.3447 41.5831C28.6173 6.98352 39.9654 2.10352 39.9654 2.10352ZM100.978 2.10352C100.978 2.10352 99.2343 6.9772 99.1712 41.8734C99.0242 43.1717 98.3749 44.3609 97.3622 45.1864C96.3496 46.012 95.0539 46.4083 93.7527 46.2907C93.0845 46.3568 92.4098 46.2857 91.7701 46.0817C91.1304 45.8776 90.5392 45.5449 90.0327 45.1041C89.5262 44.6632 89.1153 44.1235 88.825 43.518C88.5347 42.9125 88.3713 42.2541 88.3447 41.5831C89.6278 6.98352 100.978 2.10352 100.978 2.10352Z" fill="#A56A43"/>
<path d="M10.5173 73.6207C11.679 73.6207 12.6207 72.679 12.6207 71.5173C12.6207 70.3556 11.679 69.4138 10.5173 69.4138C9.35556 69.4138 8.41382 70.3556 8.41382 71.5173C8.41382 72.679 9.35556 73.6207 10.5173 73.6207Z" fill="#DF4D60"/>
<path d="M18.9311 73.6207C20.0928 73.6207 21.0345 72.679 21.0345 71.5173C21.0345 70.3556 20.0928 69.4138 18.9311 69.4138C17.7694 69.4138 16.8276 70.3556 16.8276 71.5173C16.8276 72.679 17.7694 73.6207 18.9311 73.6207Z" fill="#DF4D60"/>
<path d="M27.3449 73.6207C28.5066 73.6207 29.4484 72.679 29.4484 71.5173C29.4484 70.3556 28.5066 69.4138 27.3449 69.4138C26.1832 69.4138 25.2415 70.3556 25.2415 71.5173C25.2415 72.679 26.1832 73.6207 27.3449 73.6207Z" fill="#DF4D60"/>
<path d="M35.7585 73.6207C36.9202 73.6207 37.8619 72.679 37.8619 71.5173C37.8619 70.3556 36.9202 69.4138 35.7585 69.4138C34.5968 69.4138 33.655 70.3556 33.655 71.5173C33.655 72.679 34.5968 73.6207 35.7585 73.6207Z" fill="#DF4D60"/>
<path d="M44.1725 73.6207C45.3342 73.6207 46.276 72.679 46.276 71.5173C46.276 70.3556 45.3342 69.4138 44.1725 69.4138C43.0108 69.4138 42.0691 70.3556 42.0691 71.5173C42.0691 72.679 43.0108 73.6207 44.1725 73.6207Z" fill="#DF4D60"/>
<path d="M39.9655 79.931C41.1272 79.931 42.069 78.9893 42.069 77.8276C42.069 76.6659 41.1272 75.7241 39.9655 75.7241C38.8038 75.7241 37.8621 76.6659 37.8621 77.8276C37.8621 78.9893 38.8038 79.931 39.9655 79.931Z" fill="#DF4D60"/>
<path d="M31.5517 79.931C32.7134 79.931 33.6551 78.9893 33.6551 77.8276C33.6551 76.6659 32.7134 75.7241 31.5517 75.7241C30.39 75.7241 29.4482 76.6659 29.4482 77.8276C29.4482 78.9893 30.39 79.931 31.5517 79.931Z" fill="#DF4D60"/>
<path d="M23.1379 79.931C24.2996 79.931 25.2413 78.9893 25.2413 77.8276C25.2413 76.6659 24.2996 75.7241 23.1379 75.7241C21.9762 75.7241 21.0344 76.6659 21.0344 77.8276C21.0344 78.9893 21.9762 79.931 23.1379 79.931Z" fill="#DF4D60"/>
<path d="M14.7241 79.931C15.8858 79.931 16.8275 78.9893 16.8275 77.8276C16.8275 76.6659 15.8858 75.7241 14.7241 75.7241C13.5624 75.7241 12.6206 76.6659 12.6206 77.8276C12.6206 78.9893 13.5624 79.931 14.7241 79.931Z" fill="#DF4D60"/>
<path d="M10.5173 86.2413C11.679 86.2413 12.6207 85.2996 12.6207 84.1379C12.6207 82.9762 11.679 82.0344 10.5173 82.0344C9.35556 82.0344 8.41382 82.9762 8.41382 84.1379C8.41382 85.2996 9.35556 86.2413 10.5173 86.2413Z" fill="#DF4D60"/>
<path d="M18.9311 86.2413C20.0928 86.2413 21.0345 85.2996 21.0345 84.1379C21.0345 82.9762 20.0928 82.0344 18.9311 82.0344C17.7694 82.0344 16.8276 82.9762 16.8276 84.1379C16.8276 85.2996 17.7694 86.2413 18.9311 86.2413Z" fill="#DF4D60"/>
<path d="M27.3449 86.2413C28.5066 86.2413 29.4484 85.2996 29.4484 84.1379C29.4484 82.9762 28.5066 82.0344 27.3449 82.0344C26.1832 82.0344 25.2415 82.9762 25.2415 84.1379C25.2415 85.2996 26.1832 86.2413 27.3449 86.2413Z" fill="#DF4D60"/>
<path d="M35.7585 86.2413C36.9202 86.2413 37.8619 85.2996 37.8619 84.1379C37.8619 82.9762 36.9202 82.0344 35.7585 82.0344C34.5968 82.0344 33.655 82.9762 33.655 84.1379C33.655 85.2996 34.5968 86.2413 35.7585 86.2413Z" fill="#DF4D60"/>
<path d="M14.7241 92.5516C15.8858 92.5516 16.8275 91.6099 16.8275 90.4482C16.8275 89.2865 15.8858 88.3447 14.7241 88.3447C13.5624 88.3447 12.6206 89.2865 12.6206 90.4482C12.6206 91.6099 13.5624 92.5516 14.7241 92.5516Z" fill="#DF4D60"/>
<path d="M23.1379 92.5516C24.2996 92.5516 25.2413 91.6099 25.2413 90.4482C25.2413 89.2865 24.2996 88.3447 23.1379 88.3447C21.9762 88.3447 21.0344 89.2865 21.0344 90.4482C21.0344 91.6099 21.9762 92.5516 23.1379 92.5516Z" fill="#DF4D60"/>
<path d="M31.5517 92.5516C32.7134 92.5516 33.6551 91.6099 33.6551 90.4482C33.6551 89.2865 32.7134 88.3447 31.5517 88.3447C30.39 88.3447 29.4482 89.2865 29.4482 90.4482C29.4482 91.6099 30.39 92.5516 31.5517 92.5516Z" fill="#DF4D60"/>
<path d="M39.9655 92.5516C41.1272 92.5516 42.069 91.6099 42.069 90.4482C42.069 89.2865 41.1272 88.3447 39.9655 88.3447C38.8038 88.3447 37.8621 89.2865 37.8621 90.4482C37.8621 91.6099 38.8038 92.5516 39.9655 92.5516Z" fill="#DF4D60"/>
<path d="M48.3793 92.5516C49.541 92.5516 50.4828 91.6099 50.4828 90.4482C50.4828 89.2865 49.541 88.3447 48.3793 88.3447C47.2176 88.3447 46.2759 89.2865 46.2759 90.4482C46.2759 91.6099 47.2176 92.5516 48.3793 92.5516Z" fill="#DF4D60"/>
<path d="M44.1725 86.2413C45.3342 86.2413 46.276 85.2996 46.276 84.1379C46.276 82.9762 45.3342 82.0344 44.1725 82.0344C43.0108 82.0344 42.0691 82.9762 42.0691 84.1379C42.0691 85.2996 43.0108 86.2413 44.1725 86.2413Z" fill="#DF4D60"/>
<path d="M48.3793 79.931C49.541 79.931 50.4828 78.9893 50.4828 77.8276C50.4828 76.6659 49.541 75.7241 48.3793 75.7241C47.2176 75.7241 46.2759 76.6659 46.2759 77.8276C46.2759 78.9893 47.2176 79.931 48.3793 79.931Z" fill="#DF4D60"/>
<path d="M52.5861 86.2413C53.7478 86.2413 54.6896 85.2996 54.6896 84.1379C54.6896 82.9762 53.7478 82.0344 52.5861 82.0344C51.4244 82.0344 50.4827 82.9762 50.4827 84.1379C50.4827 85.2996 51.4244 86.2413 52.5861 86.2413Z" fill="#DF4D60"/>
<path d="M60.9999 86.2413C62.1616 86.2413 63.1034 85.2996 63.1034 84.1379C63.1034 82.9762 62.1616 82.0344 60.9999 82.0344C59.8382 82.0344 58.8965 82.9762 58.8965 84.1379C58.8965 85.2996 59.8382 86.2413 60.9999 86.2413Z" fill="#DF4D60"/>
<path d="M69.4138 86.2413C70.5755 86.2413 71.5172 85.2996 71.5172 84.1379C71.5172 82.9762 70.5755 82.0344 69.4138 82.0344C68.252 82.0344 67.3103 82.9762 67.3103 84.1379C67.3103 85.2996 68.252 86.2413 69.4138 86.2413Z" fill="#DF4D60"/>
<path d="M111.483 73.6207C112.645 73.6207 113.586 72.679 113.586 71.5173C113.586 70.3556 112.645 69.4138 111.483 69.4138C110.321 69.4138 109.379 70.3556 109.379 71.5173C109.379 72.679 110.321 73.6207 111.483 73.6207Z" fill="#DF4D60"/>
<path d="M103.069 73.6207C104.231 73.6207 105.172 72.679 105.172 71.5173C105.172 70.3556 104.231 69.4138 103.069 69.4138C101.907 69.4138 100.966 70.3556 100.966 71.5173C100.966 72.679 101.907 73.6207 103.069 73.6207Z" fill="#DF4D60"/>
<path d="M94.6552 73.6207C95.8169 73.6207 96.7587 72.679 96.7587 71.5173C96.7587 70.3556 95.8169 69.4138 94.6552 69.4138C93.4935 69.4138 92.5518 70.3556 92.5518 71.5173C92.5518 72.679 93.4935 73.6207 94.6552 73.6207Z" fill="#DF4D60"/>
<path d="M86.2414 73.6207C87.4031 73.6207 88.3448 72.679 88.3448 71.5173C88.3448 70.3556 87.4031 69.4138 86.2414 69.4138C85.0797 69.4138 84.1379 70.3556 84.1379 71.5173C84.1379 72.679 85.0797 73.6207 86.2414 73.6207Z" fill="#DF4D60"/>
<path d="M77.8276 73.6207C78.9893 73.6207 79.931 72.679 79.931 71.5173C79.931 70.3556 78.9893 69.4138 77.8276 69.4138C76.6659 69.4138 75.7241 70.3556 75.7241 71.5173C75.7241 72.679 76.6659 73.6207 77.8276 73.6207Z" fill="#DF4D60"/>
<path d="M82.0346 79.931C83.1963 79.931 84.138 78.9893 84.138 77.8276C84.138 76.6659 83.1963 75.7241 82.0346 75.7241C80.8729 75.7241 79.9312 76.6659 79.9312 77.8276C79.9312 78.9893 80.8729 79.931 82.0346 79.931Z" fill="#DF4D60"/>
<path d="M90.4482 79.931C91.6099 79.931 92.5516 78.9893 92.5516 77.8276C92.5516 76.6659 91.6099 75.7241 90.4482 75.7241C89.2865 75.7241 88.3447 76.6659 88.3447 77.8276C88.3447 78.9893 89.2865 79.931 90.4482 79.931Z" fill="#DF4D60"/>
<path d="M98.862 79.931C100.024 79.931 100.965 78.9893 100.965 77.8276C100.965 76.6659 100.024 75.7241 98.862 75.7241C97.7003 75.7241 96.7585 76.6659 96.7585 77.8276C96.7585 78.9893 97.7003 79.931 98.862 79.931Z" fill="#DF4D60"/>
<path d="M107.276 79.931C108.438 79.931 109.379 78.9893 109.379 77.8276C109.379 76.6659 108.438 75.7241 107.276 75.7241C106.114 75.7241 105.172 76.6659 105.172 77.8276C105.172 78.9893 106.114 79.931 107.276 79.931Z" fill="#DF4D60"/>
<path d="M77.8276 86.2413C78.9893 86.2413 79.931 85.2996 79.931 84.1379C79.931 82.9762 78.9893 82.0344 77.8276 82.0344C76.6659 82.0344 75.7241 82.9762 75.7241 84.1379C75.7241 85.2996 76.6659 86.2413 77.8276 86.2413Z" fill="#DF4D60"/>
<path d="M86.2414 86.2413C87.4031 86.2413 88.3448 85.2996 88.3448 84.1379C88.3448 82.9762 87.4031 82.0344 86.2414 82.0344C85.0797 82.0344 84.1379 82.9762 84.1379 84.1379C84.1379 85.2996 85.0797 86.2413 86.2414 86.2413Z" fill="#DF4D60"/>
<path d="M94.6552 86.2413C95.8169 86.2413 96.7587 85.2996 96.7587 84.1379C96.7587 82.9762 95.8169 82.0344 94.6552 82.0344C93.4935 82.0344 92.5518 82.9762 92.5518 84.1379C92.5518 85.2996 93.4935 86.2413 94.6552 86.2413Z" fill="#DF4D60"/>
<path d="M103.069 86.2413C104.231 86.2413 105.172 85.2996 105.172 84.1379C105.172 82.9762 104.231 82.0344 103.069 82.0344C101.907 82.0344 100.966 82.9762 100.966 84.1379C100.966 85.2996 101.907 86.2413 103.069 86.2413Z" fill="#DF4D60"/>
<path d="M111.483 86.2413C112.645 86.2413 113.586 85.2996 113.586 84.1379C113.586 82.9762 112.645 82.0344 111.483 82.0344C110.321 82.0344 109.379 82.9762 109.379 84.1379C109.379 85.2996 110.321 86.2413 111.483 86.2413Z" fill="#DF4D60"/>
<path d="M73.6208 79.931C74.7825 79.931 75.7242 78.9893 75.7242 77.8276C75.7242 76.6659 74.7825 75.7241 73.6208 75.7241C72.4591 75.7241 71.5173 76.6659 71.5173 77.8276C71.5173 78.9893 72.4591 79.931 73.6208 79.931Z" fill="#DF4D60"/>
<path d="M113.586 109.379H109.379C108.821 109.379 108.286 109.158 107.892 108.763C107.497 108.369 107.276 107.834 107.276 107.276C107.276 106.718 107.497 106.183 107.892 105.788C108.286 105.394 108.821 105.172 109.379 105.172H113.586C114.144 105.172 114.679 105.394 115.073 105.788C115.468 106.183 115.69 106.718 115.69 107.276C115.69 107.834 115.468 108.369 115.073 108.763C114.679 109.158 114.144 109.379 113.586 109.379ZM100.965 109.379H96.7585C96.2007 109.379 95.6656 109.158 95.2712 108.763C94.8767 108.369 94.6551 107.834 94.6551 107.276C94.6551 106.718 94.8767 106.183 95.2712 105.788C95.6656 105.394 96.2007 105.172 96.7585 105.172H100.965C101.523 105.172 102.058 105.394 102.453 105.788C102.847 106.183 103.069 106.718 103.069 107.276C103.069 107.834 102.847 108.369 102.453 108.763C102.058 109.158 101.523 109.379 100.965 109.379ZM88.3447 109.379H84.1378C83.58 109.379 83.045 109.158 82.6505 108.763C82.256 108.369 82.0344 107.834 82.0344 107.276C82.0344 106.718 82.256 106.183 82.6505 105.788C83.045 105.394 83.58 105.172 84.1378 105.172H88.3447C88.9026 105.172 89.4376 105.394 89.8321 105.788C90.2266 106.183 90.4482 106.718 90.4482 107.276C90.4482 107.834 90.2266 108.369 89.8321 108.763C89.4376 109.158 88.9026 109.379 88.3447 109.379ZM75.7241 109.379H71.5172C70.9593 109.379 70.4243 109.158 70.0298 108.763C69.6353 108.369 69.4137 107.834 69.4137 107.276C69.4137 106.718 69.6353 106.183 70.0298 105.788C70.4243 105.394 70.9593 105.172 71.5172 105.172H75.7241C76.2819 105.172 76.8169 105.394 77.2114 105.788C77.6059 106.183 77.8275 106.718 77.8275 107.276C77.8275 107.834 77.6059 108.369 77.2114 108.763C76.8169 109.158 76.2819 109.379 75.7241 109.379ZM107.276 115.69H103.069C102.511 115.69 101.976 115.468 101.582 115.074C101.187 114.679 100.965 114.144 100.965 113.586C100.965 113.028 101.187 112.493 101.582 112.099C101.976 111.704 102.511 111.483 103.069 111.483H107.276C107.834 111.483 108.369 111.704 108.763 112.099C109.158 112.493 109.379 113.028 109.379 113.586C109.379 114.144 109.158 114.679 108.763 115.074C108.369 115.468 107.834 115.69 107.276 115.69ZM94.6551 115.69H90.4482C89.8903 115.69 89.3553 115.468 88.9608 115.074C88.5664 114.679 88.3447 114.144 88.3447 113.586C88.3447 113.028 88.5664 112.493 88.9608 112.099C89.3553 111.704 89.8903 111.483 90.4482 111.483H94.6551C95.213 111.483 95.748 111.704 96.1425 112.099C96.5369 112.493 96.7585 113.028 96.7585 113.586C96.7585 114.144 96.5369 114.679 96.1425 115.074C95.748 115.468 95.213 115.69 94.6551 115.69ZM82.0344 115.69H77.8275C77.2696 115.69 76.7346 115.468 76.3401 115.074C75.9457 114.679 75.7241 114.144 75.7241 113.586C75.7241 113.028 75.9457 112.493 76.3401 112.099C76.7346 111.704 77.2696 111.483 77.8275 111.483H82.0344C82.5923 111.483 83.1273 111.704 83.5218 112.099C83.9162 112.493 84.1378 113.028 84.1378 113.586C84.1378 114.144 83.9162 114.679 83.5218 115.074C83.1273 115.468 82.5923 115.69 82.0344 115.69ZM69.4137 115.69H65.2068C64.6489 115.69 64.1139 115.468 63.7195 115.074C63.325 114.679 63.1034 114.144 63.1034 113.586C63.1034 113.028 63.325 112.493 63.7195 112.099C64.1139 111.704 64.6489 111.483 65.2068 111.483H69.4137C69.9716 111.483 70.5066 111.704 70.9011 112.099C71.2955 112.493 71.5172 113.028 71.5172 113.586C71.5172 114.144 71.2955 114.679 70.9011 115.074C70.5066 115.468 69.9716 115.69 69.4137 115.69ZM56.793 115.69H52.5861C52.0283 115.69 51.4932 115.468 51.0988 115.074C50.7043 114.679 50.4827 114.144 50.4827 113.586C50.4827 113.028 50.7043 112.493 51.0988 112.099C51.4932 111.704 52.0283 111.483 52.5861 111.483H56.793C57.3509 111.483 57.8859 111.704 58.2804 112.099C58.6749 112.493 58.8965 113.028 58.8965 113.586C58.8965 114.144 58.6749 114.679 58.2804 115.074C57.8859 115.468 57.3509 115.69 56.793 115.69ZM44.1723 115.69H39.9654C39.4076 115.69 38.8725 115.468 38.4781 115.074C38.0836 114.679 37.862 114.144 37.862 113.586C37.862 113.028 38.0836 112.493 38.4781 112.099C38.8725 111.704 39.4076 111.483 39.9654 111.483H44.1723C44.7302 111.483 45.2652 111.704 45.6597 112.099C46.0542 112.493 46.2758 113.028 46.2758 113.586C46.2758 114.144 46.0542 114.679 45.6597 115.074C45.2652 115.468 44.7302 115.69 44.1723 115.69ZM31.5516 115.69H27.3447C26.7869 115.69 26.2519 115.468 25.8574 115.074C25.4629 114.679 25.2413 114.144 25.2413 113.586C25.2413 113.028 25.4629 112.493 25.8574 112.099C26.2519 111.704 26.7869 111.483 27.3447 111.483H31.5516C32.1095 111.483 32.6445 111.704 33.039 112.099C33.4335 112.493 33.6551 113.028 33.6551 113.586C33.6551 114.144 33.4335 114.679 33.039 115.074C32.6445 115.468 32.1095 115.69 31.5516 115.69ZM18.931 115.69H14.7241C14.1662 115.69 13.6312 115.468 13.2367 115.074C12.8422 114.679 12.6206 114.144 12.6206 113.586C12.6206 113.028 12.8422 112.493 13.2367 112.099C13.6312 111.704 14.1662 111.483 14.7241 111.483H18.931C19.4888 111.483 20.0238 111.704 20.4183 112.099C20.8128 112.493 21.0344 113.028 21.0344 113.586C21.0344 114.144 20.8128 114.679 20.4183 115.074C20.0238 115.468 19.4888 115.69 18.931 115.69Z" fill="#F5EFCA"/>
</svg>

