<svg width="116" height="122" viewBox="0 0 116 122" fill="none" xmlns="http://www.w3.org/2000/svg">
<path d="M67.4233 46.1641L58 58.7318H31.2602C20.8604 58.7318 12.3992 50.2706 12.3992 39.8708C12.3992 37.8939 14.0036 36.2896 15.9804 36.2896H58L67.4233 46.1641Z" fill="#E8941B"/>
<path d="M103.601 39.8708C103.601 50.2706 95.1396 58.7318 84.7397 58.7318H58V36.2896H100.02C101.996 36.2896 103.601 37.8939 103.601 39.8708Z" fill="#DA840D"/>
<path d="M68.1944 31.739L57.9999 39.632H19.8003C9.40042 39.632 0.939209 31.1708 0.939209 20.7709C0.939209 18.7941 2.54359 17.1897 4.52042 17.1897H57.9999L68.1944 31.739Z" fill="#F5A220"/>
<path d="M115.061 20.7709C115.061 31.1708 106.599 39.632 96.1996 39.632H58V17.1897H111.479C113.456 17.1897 115.061 18.7941 115.061 20.7709Z" fill="#E8941B"/>
<path d="M61.82 25.398V114.518L58 122C53.7814 122 50.3601 118.579 50.3601 114.36V18.8611H58L61.82 25.398Z" fill="#FDBF2E"/>
<path d="M65.6399 18.8611V114.36C65.6399 118.579 62.2187 122 58 122V18.8611H65.6399Z" fill="#F5A220"/>
<path d="M31.499 60.8807V58.7319H38.6614V60.8807C38.6614 65.2259 42.1949 68.7593 46.5401 68.7593H58L60.8387 73.1475L58 75.9218H46.5401C38.246 75.9218 31.499 69.1748 31.499 60.8807ZM58 99.319L59.9458 102.246L58 106.481H42.7202C36.5318 106.481 31.499 101.449 31.499 95.2603C31.499 89.072 36.5318 84.0392 42.7202 84.0392H58L60.514 88.3366L58 91.2016H42.7202C40.4831 91.2016 38.6614 93.0232 38.6614 95.2603C38.6614 97.4974 40.4831 99.319 42.7202 99.319H58Z" fill="#FDE445"/>
<path d="M86.411 79.9804C86.411 86.1687 81.3782 91.2015 75.1898 91.2015H58V84.0391H75.1898C77.4269 84.0391 79.2485 82.2175 79.2485 79.9804C79.2485 77.7433 77.4269 75.9217 75.1898 75.9217H58V68.7593H75.1898C81.3782 68.7593 86.411 73.7921 86.411 79.9804ZM84.501 114.36C84.501 116.337 82.8966 117.941 80.9198 117.941C78.9429 117.941 77.3386 116.337 77.3386 114.36C77.3386 110.015 73.8051 106.481 69.4599 106.481H58V99.319H69.4599C77.754 99.319 84.501 106.066 84.501 114.36Z" fill="#FDBF2E"/>
<path d="M66.2034 15.6857L58.0001 30.0822C49.706 30.0822 42.959 23.3352 42.959 15.0411C42.959 6.74701 49.706 0 58.0001 0L66.2034 15.6857Z" fill="#FDE445"/>
<path d="M73.0411 15.0411C73.0411 23.3352 66.2941 30.0822 58 30.0822V0C66.2941 0 73.0411 6.74701 73.0411 15.0411Z" fill="#FDBF2E"/>
</svg>
