<svg width="92" height="87" viewBox="0 0 92 87" fill="none" xmlns="http://www.w3.org/2000/svg">
<path d="M50.2139 23.9034C49.1953 18.4284 49.8177 12.6991 52.3037 7.37392C53.5423 4.72059 52.2721 1.6202 49.4662 0.448754C46.6597 -0.722857 43.3815 0.47883 42.1431 3.13199C39.8785 7.98241 38.7013 13.1322 38.644 18.4379C38.5718 25.0733 39.8404 31.0923 44.5716 35.994C44.9506 36.3862 45.3455 36.7645 45.7553 37.1281L53.6215 29.6894C51.9195 28.2774 50.6626 26.3146 50.2139 23.9034ZM32.8861 54.5057C23.6317 45.754 7.7694 50.4639 5.5012 62.6531C5.11329 64.7399 4.93 66.8561 4.95369 68.9748C5.00032 73.5365 6.03006 78.0412 7.97999 82.2138C8.86333 84.106 10.8582 85.3162 13.0456 85.3162C17.0706 85.3162 19.7186 81.4072 18.1081 77.9189C16.7884 75.0628 16.0918 71.9843 16.06 68.8676C16.0445 67.4398 16.1635 66.035 16.4075 64.6653C17.1033 60.7588 22.1494 59.2057 25.1116 62.0069L32.9659 54.5808L32.8861 54.5057Z" fill="#FF8E9E"/>
<path d="M72.5931 23.3036H58.9239L49.2488 29.7197V82.1266H62.2238C77.2588 74.7391 87.048 59.995 87.048 43.5015C87.0482 34.3218 81.0409 26.5027 72.5931 23.3036Z" fill="#FFB5C0"/>
<path d="M64.0483 21.751C51.0539 21.751 41.0327 31.7415 41.0327 43.179C41.0327 47.0413 38.5101 50.0333 34.8619 51.191C27.1136 53.6499 21.524 60.6084 21.6126 68.8134C21.7224 78.9599 30.8006 87.1031 41.5303 86.9989C48.988 86.9265 56.0193 85.1752 62.2241 82.1266C60.0081 81.4787 57.946 80.4085 56.1856 78.9815L65.6441 67.6615V27.0721C67.5901 25.439 69.9239 24.1353 72.5934 23.3036C69.9512 22.3031 67.0682 21.751 64.0483 21.751Z" fill="#FF8E9E"/>
<path d="M65.6441 27.0721L49.249 36.5689V58.504H65.6441L80.6929 51.0872C81.1903 48.7519 81.4565 46.3779 81.488 43.9959L81.4914 43.7867C81.6418 35.006 74.6026 27.8376 65.6441 27.0721Z" fill="#FF8E9E"/>
<path d="M65.6442 27.0721C55.1082 26.1717 46.5861 34.071 46.5861 43.1795C46.5861 46.2568 45.5461 49.1009 43.7124 51.3991V58.5039H49.2491L56.5538 54.4858C58.7131 51.3917 59.797 47.5293 59.1955 43.4247C58.3102 37.3826 60.7468 31.182 65.6442 27.0721Z" fill="#EA5B70"/>
<path d="M62.2717 51.3081C60.6236 52.8666 58.6474 53.9247 56.5537 54.4856L49.249 58.5038V78.9814H56.1855C69.0251 74.0594 78.0515 63.4831 80.6929 51.087C75.5233 46.4373 67.3454 46.5102 62.2717 51.3081Z" fill="#FFCE71"/>
<path d="M54.8662 56.5276C55.4854 55.8907 56.0496 55.2079 56.5536 54.4858C52.1435 55.6679 47.2115 54.6382 43.7121 51.3992C41.9872 53.5607 39.5604 55.2397 36.6286 56.1702C30.9066 57.986 27.1037 63.0456 27.1655 68.7603C27.2439 76.0127 33.777 81.7486 41.3264 81.7489C42.1736 81.6674 48.4308 81.9544 56.1854 78.9816C49.0912 73.2304 48.5404 63.0347 54.8662 56.5276Z" fill="#FFB357"/>
<path d="M29.3558 26.985H27.3196V25.0594C27.3196 23.116 26.2023 21.4204 24.5429 20.5123H19.2363V43.9609H24.5429C26.2023 43.0528 27.3196 41.3572 27.3196 39.4138V37.4882H29.3558C32.4227 37.4882 34.909 35.137 34.909 32.2368C34.909 29.3365 32.4227 26.985 29.3558 26.985Z" fill="#FF8E9E"/>
<path d="M21.7662 39.4136V25.0594C21.7662 23.116 22.8835 21.4204 24.5429 20.5123C23.6993 20.05 22.7413 19.807 21.7662 19.808C18.6993 19.808 16.213 22.1592 16.213 25.0594V26.985H14.1768C11.1099 26.985 8.62354 29.3362 8.62354 32.2364C8.62354 35.1366 11.1099 37.4878 14.1768 37.4878H16.213V39.4134C16.213 42.3136 18.6993 44.6648 21.7662 44.6648C22.7413 44.6658 23.6993 44.4228 24.5429 43.9605C22.8835 43.0526 21.7662 41.357 21.7662 39.4136Z" fill="#EA5B70"/>
<path d="M53.4263 38.194C53.244 38.1939 53.0635 38.2279 52.8951 38.2939C52.7266 38.3598 52.5736 38.4565 52.4446 38.5784C52.3157 38.7003 52.2135 38.8451 52.1437 39.0044C52.074 39.1637 52.0381 39.3344 52.0381 39.5068V41.6074C52.0381 41.9555 52.1843 42.2895 52.4447 42.5357C52.705 42.7819 53.0582 42.9202 53.4263 42.9202C53.7945 42.9202 54.1477 42.7819 54.408 42.5357C54.6684 42.2895 54.8146 41.9555 54.8146 41.6074V39.5068C54.8146 39.3344 54.7787 39.1637 54.709 39.0044C54.6392 38.8451 54.537 38.7003 54.4081 38.5784C54.2791 38.4565 54.1261 38.3598 53.9576 38.2939C53.7892 38.2279 53.6087 38.1939 53.4263 38.194ZM74.7141 38.194C74.5318 38.1939 74.3513 38.2279 74.1828 38.2939C74.0144 38.3598 73.8613 38.4565 73.7324 38.5784C73.6035 38.7003 73.5012 38.8451 73.4315 39.0044C73.3617 39.1637 73.3258 39.3344 73.3258 39.5068V41.6074C73.3258 41.9555 73.4721 42.2895 73.7325 42.5357C73.9928 42.7819 74.3459 42.9202 74.7141 42.9202C75.0823 42.9202 75.4354 42.7819 75.6958 42.5357C75.9561 42.2895 76.1024 41.9555 76.1024 41.6074V39.5068C76.1024 39.3344 76.0665 39.1637 75.9967 39.0044C75.927 38.8451 75.8247 38.7003 75.6958 38.5784C75.5669 38.4565 75.4139 38.3598 75.2454 38.2939C75.077 38.2279 74.8964 38.1939 74.7141 38.194ZM68.0299 40.5516C67.8925 40.4383 67.7328 40.3518 67.56 40.2968C67.3872 40.2419 67.2046 40.2197 67.0227 40.2316C66.8409 40.2434 66.6632 40.289 66.5 40.3657C66.3367 40.4425 66.1911 40.5489 66.0713 40.6789C65.566 41.2271 64.8369 41.5414 64.0703 41.5414C63.3038 41.5414 62.5746 41.2271 62.0693 40.6789C61.9496 40.5489 61.8039 40.4425 61.6407 40.3658C61.4774 40.289 61.2998 40.2435 61.1179 40.2316C60.936 40.2198 60.7535 40.242 60.5807 40.2969C60.4078 40.3518 60.2482 40.4384 60.1107 40.5516C59.8331 40.7804 59.663 41.104 59.6377 41.4513C59.6125 41.7987 59.7341 42.1413 59.976 42.4038C61.0084 43.5246 62.5009 44.1672 64.0703 44.1672C65.6397 44.1672 67.132 43.5244 68.1647 42.4038C68.4065 42.1413 68.5282 41.7987 68.5029 41.4513C68.4776 41.104 68.3075 40.7804 68.0299 40.5516Z" fill="#313D40"/>
</svg>
