<svg width="122" height="122" viewBox="0 0 122 122" fill="none" xmlns="http://www.w3.org/2000/svg">
<mask id="mask0_191_507" style="mask-type:luminance" maskUnits="userSpaceOnUse" x="0" y="0" width="122" height="122">
<path d="M0 0.000358582H122V122H0V0.000358582Z" fill="white"/>
</mask>
<g mask="url(#mask0_191_507)">
<path d="M85.644 122H68.9643C66.9904 122 65.3901 120.4 65.3901 118.426V82.6837C65.3901 80.7098 66.9904 79.1095 68.9643 79.1095H90.4096C91.4399 79.1095 92.42 79.5541 93.0988 80.3293C93.7775 81.1044 93.4129 85.2366 93.2766 86.2579L89.187 118.898C89.0725 119.757 88.6502 120.544 87.9985 121.115C87.3468 121.686 86.5101 122 85.644 122Z" fill="#0D8EBC"/>
<path d="M90.4095 79.1095H85.6439V122C86.5101 122 87.3468 121.686 87.9985 121.115C88.6501 120.544 89.0725 119.757 89.1869 118.898L93.2765 86.2579C93.4128 85.2366 93.7774 81.1044 93.0988 80.3293C92.7633 79.9461 92.3498 79.639 91.886 79.4287C91.4222 79.2183 90.9188 79.1095 90.4095 79.1095Z" fill="#0A617D"/>
<path d="M118.425 122C116.452 122 114.851 120.4 114.851 118.426V75.5353C114.851 73.5645 113.248 71.9611 111.277 71.9611C109.306 71.9611 107.703 73.5645 107.703 75.5353V77.9181C107.703 79.892 106.103 81.4923 104.129 81.4923C102.155 81.4923 100.554 79.892 100.554 77.9181V75.5353C100.554 69.6228 105.365 64.8127 111.277 64.8127C117.19 64.8127 122 69.6228 122 75.5353V118.426C122 120.4 120.399 122 118.425 122Z" fill="#6B5C59"/>
<path d="M26.681 69.5784L14.055 116.7C13.0332 120.513 9.11326 122.777 5.30006 121.755C1.48662 120.733 -0.77657 116.813 0.245415 113L11.3693 71.4846L26.681 69.5784Z" fill="#D5D3EA"/>
<path d="M15.2795 69.5782L27.9056 116.7C28.9275 120.513 32.8472 122.776 36.6605 121.755C40.4737 120.733 42.7371 116.813 41.7153 113L30.5914 71.4844L15.2795 69.5782Z" fill="#E2DFF4"/>
<path d="M30.5911 71.4844L27.4022 71.0874V114.822L27.9055 116.7C28.9272 120.513 32.8469 122.776 36.6604 121.755C40.4738 120.733 42.7368 116.813 41.715 113L30.5911 71.4844Z" fill="#D5D3EA"/>
<path d="M119.906 54.7038L88.1712 22.9688C87.8393 22.637 87.4453 22.3737 87.0117 22.1941C86.5781 22.0145 86.1133 21.9221 85.644 21.9221C78.3862 21.9221 71.5463 24.7314 66.3847 29.8325C61.2281 34.9291 58.3375 41.726 58.2457 48.9719L58.2455 49.0162L58.2417 62.2642V82.6836C58.2417 84.6575 59.842 86.2578 61.8159 86.2578H93.2766L100.179 55.1956L109.797 64.8133C111.19 66.2065 113.021 66.9032 114.851 66.9032C116.682 66.9032 118.512 66.2065 119.906 64.8133C121.256 63.4632 122 61.668 122 59.7584C122 57.8488 121.256 56.0536 119.906 54.7038Z" fill="#ACCEFF"/>
<path d="M93.2765 86.2578L100.179 55.1958L109.797 64.8133C111.19 66.2067 113.021 66.9032 114.851 66.9032C116.682 66.9032 118.512 66.2067 119.906 64.8133C121.256 63.4632 122 61.668 122 59.7584C122 57.8488 121.256 56.0536 119.906 54.7038L88.1711 22.9691C87.8393 22.6371 87.4453 22.3738 87.0117 22.1942C86.5781 22.0145 86.1133 21.9221 85.6439 21.9221V86.2578H93.2765Z" fill="#989DEC"/>
<path d="M80.8784 40.9486C79.4826 42.3442 79.4826 44.6074 80.8784 46.0032L98.3415 63.4663L100.179 55.1958L100.18 55.1951L85.9331 40.9486C84.5372 39.5529 82.2743 39.5529 80.8784 40.9486Z" fill="#989DEC"/>
<path d="M85.644 25.4963C78.6147 25.4963 72.896 19.7776 72.896 12.7483C72.896 5.71905 78.6147 0.000320435 85.644 0.000320435C92.6733 0.000320435 98.392 5.71905 98.392 12.7483C98.392 19.7776 92.6733 25.4963 85.644 25.4963Z" fill="#FFDDCE"/>
<path d="M85.6439 40.6903V50.7688L98.3414 63.4663L100.179 55.1958L100.18 55.1951L85.933 40.9486C85.8405 40.8559 85.7435 40.7706 85.6439 40.6903Z" fill="#6E75E2"/>
<path d="M85.6439 0.000320435V25.4963C92.6732 25.4963 98.3919 19.7776 98.3919 12.7483C98.3919 5.71905 92.6732 0.000320435 85.6439 0.000320435Z" fill="#FFBCA7"/>
<path d="M69.7278 49.5852C68.7804 47.9275 67.2442 46.7378 65.4021 46.2353L39.3022 39.1169L30.5056 23.723C30.193 23.1759 29.7413 22.7212 29.1963 22.4049C28.6513 22.0886 28.0324 21.9221 27.4023 21.9221C12.2927 21.9221 0 34.2147 0 49.3243V82.6836C0 84.6575 1.60029 86.2578 3.57421 86.2578H34.5507C36.5246 86.2578 38.1249 84.6575 38.1249 82.6836V56.6336L38.6107 53.7475L61.6401 60.0281C62.2568 60.1971 62.8933 60.2829 63.5327 60.2833C64.7604 60.2833 65.973 59.9643 67.0676 59.3388C68.7256 58.3911 69.9153 56.8549 70.4176 55.0128C70.9202 53.1709 70.6752 51.2432 69.7278 49.5852Z" fill="#F9F9F9"/>
<path d="M34.5506 86.2578C36.5246 86.2578 38.1248 84.6575 38.1248 82.6836V56.6336L38.6107 53.7475L61.64 60.0281C62.2567 60.1971 62.8933 60.2829 63.5327 60.2833C64.7603 60.2833 65.9729 59.964 67.0676 59.3385C68.7255 58.3911 69.9153 56.8549 70.4176 55.0128C70.9201 53.1709 70.6752 51.2432 69.7278 49.5852C68.7804 47.9275 67.2442 46.7378 65.402 46.2353L39.302 39.1169L30.5053 23.723C30.1928 23.1759 29.7412 22.7211 29.1962 22.4049C28.6512 22.0886 28.0323 21.922 27.4022 21.9221V86.2578H34.5506Z" fill="#E2DFF4"/>
<path d="M29.9893 51.3965C29.1957 51.179 28.4556 50.7999 27.8154 50.283C27.1752 49.7661 26.6487 49.1224 26.269 48.3925L25.0723 46.0857C24.1633 44.3333 22.0061 43.6497 20.2538 44.5588C18.5015 45.4676 17.8179 47.625 18.7267 49.3773L19.9233 51.6841C21.6039 54.924 24.5874 57.3327 28.1085 58.293L38.1249 61.0247V56.6336L38.6105 53.7476L29.9893 51.3965Z" fill="#E2DFF4"/>
<path d="M27.4022 49.9148V58.0774C27.6356 58.1559 27.8711 58.2278 28.1085 58.293L38.1248 61.0247V56.6334L38.6105 53.7476L29.9892 51.3965C29.0154 51.1295 28.1252 50.6197 27.4022 49.9148Z" fill="#D5D3EA"/>
<path d="M27.4023 25.4963C20.373 25.4963 14.6543 19.7776 14.6543 12.7483C14.6543 5.71905 20.373 0.000320435 27.4023 0.000320435C34.4316 0.000320435 40.1503 5.71905 40.1503 12.7483C40.1503 19.7776 34.4316 25.4963 27.4023 25.4963Z" fill="#FFDDCE"/>
<path d="M27.4022 0.000320435V25.4963C34.4315 25.4963 40.1502 19.7776 40.1502 12.7483C40.1502 5.71905 34.4315 0.000320435 27.4022 0.000320435Z" fill="#FFBCA7"/>
</g>
</svg>
