<svg width="122" height="100" viewBox="0 0 122 100" fill="none" xmlns="http://www.w3.org/2000/svg">
<path d="M66.7189 0.4375H55.2814C50.7269 0.4375 46.6382 2.43358 43.8439 5.59915L41.9233 15.6875V32.8438C41.9233 40.2958 45.8169 46.8268 51.6764 50.5416C53.8965 51.9491 55.2671 54.3565 55.2671 56.9852V94.0041C55.2671 96.1096 56.9741 97.8154 59.0796 97.8154H64.8126L68.6251 95.75V56.9955C68.6251 54.367 69.9957 51.9489 72.2158 50.5416C78.0754 46.8268 81.9689 40.2958 81.9689 32.8438V15.6875C81.9689 7.26521 75.1412 0.4375 66.7189 0.4375Z" fill="#FF9BA6"/>
<path d="M57.1875 56.9854C57.1875 53.0621 55.1826 49.4488 51.8262 47.3219C46.8277 44.1528 43.8438 38.7402 43.8438 32.8437V5.59912C41.4779 8.28574 40.0312 11.8261 40.0312 15.6875V32.8437C40.0312 40.2993 43.9288 46.8335 49.7932 50.5471C52.0085 51.9498 53.375 54.3522 53.375 56.9745V95.7512C53.375 97.8569 55.0818 99.5625 57.1875 99.5625H64.8125C66.918 99.5625 68.625 97.8554 68.625 95.75L64.8132 95.7502C60.6018 95.7505 57.1875 92.3366 57.1875 88.1252V56.9854Z" fill="#FF7E92"/>
<path d="M110.562 6.15625H104.525C100.678 6.15625 96.8827 7.05219 93.4412 8.77282L87.046 11.9706C84.6645 13.1613 82.0384 13.7812 79.3757 13.7812H42.6256C39.9621 13.7812 37.3351 13.161 34.9527 11.9698L28.5585 8.77258C25.1171 7.05199 21.3223 6.15624 17.4748 6.15625H11.8354C6.02276 6.15625 0.836335 10.3238 0.0967097 16.089C-0.798036 23.0637 4.63549 29.0312 11.4375 29.0312H40.0312V25.2188H11.7765C7.79677 25.2188 4.23613 22.317 3.84964 18.356C3.4062 13.8108 6.98065 9.96875 11.4375 9.96875H17.4746C20.7298 9.9688 23.9403 10.7267 26.8519 12.1824L33.2471 15.3801C36.1587 16.8358 39.3692 17.5937 42.6244 17.5938H43.8437C48.0549 17.5938 51.4687 21.0076 51.4687 25.2188V32.8438C51.4687 36.753 53.8599 40.265 57.4987 41.6935L57.5647 41.7197C58.0157 41.9004 58.4024 42.2119 58.6748 42.6142C58.9473 43.0165 59.0931 43.4911 59.0935 43.977V70.9688H57.1872C56.6817 70.9688 56.1968 71.1696 55.8393 71.5271C55.4818 71.8846 55.281 72.3694 55.281 72.875C55.281 73.3806 55.4818 73.8654 55.8393 74.2229C56.1968 74.5804 56.6817 74.7812 57.1872 74.7812V88.1252C57.1872 94.2574 59.1309 96.9486 59.1309 96.9486L64.8125 95.9652V74.7812C65.318 74.7812 65.8029 74.5804 66.1604 74.2229C66.5179 73.8654 66.7187 73.3806 66.7187 72.875C66.7187 72.3694 66.5179 71.8846 66.1604 71.5271C65.8029 71.1696 65.318 70.9688 64.8125 70.9688H62.9062V43.9772C62.9062 42.9831 63.5126 42.09 64.435 41.72L64.501 41.6938C68.1401 40.265 70.5312 36.753 70.5312 32.8438V25.2188C70.5312 21.0076 73.9451 17.5938 78.1562 17.5938H79.3755C82.6307 17.5937 85.8412 16.8358 88.7528 15.3801L95.1469 12.1831C98.0592 10.7269 101.271 9.96878 104.527 9.96875H110.223C114.203 9.96875 117.764 12.8705 118.15 16.8315C118.594 21.3767 115.019 25.2188 110.562 25.2188H81.9687V29.0312H110.165C115.977 29.0312 121.164 24.8637 121.903 19.0985C122.798 12.1235 117.364 6.15625 110.562 6.15625Z" fill="#FF5F7A"/>
<path d="M30.5001 27.125C30.5001 27.5303 30.4439 27.9256 30.3372 28.3071C30.3372 28.3071 27.769 32.0243 22.8752 32.0243C18.664 32.0243 16.0208 30.2837 16.0208 27.1252C16.0208 24.0026 19.2373 22.098 19.2373 22.098C20.3186 21.6567 21.5579 21.4062 22.8752 21.4062C27.0863 21.4062 30.5001 23.9666 30.5001 27.125Z" fill="#FFB3B7"/>
<path d="M26.6875 29.0312C22.4764 29.0312 19.0625 26.4708 19.0625 23.3124C19.0625 22.9071 19.1304 22.4791 19.2372 22.0977C16.877 23.0698 15.25 24.9628 15.25 27.1249C15.25 30.2833 18.6639 32.8437 22.875 32.8437C26.546 32.8437 29.611 30.8981 30.337 28.307C29.1796 28.7847 27.9396 29.0307 26.6875 29.0312Z" fill="#FF9BA6"/>
<path d="M57.1875 88.1252V99.5625H64.8125V95.75C60.6016 95.7502 57.1875 92.3364 57.1875 88.1252ZM61 38.5625C57.8416 38.5625 55.2812 36.0022 55.2812 32.8438V21.4062C55.2812 19.3006 56.9881 17.5938 59.0938 17.5938H62.9062C65.0119 17.5938 66.7188 19.3006 66.7188 21.4062V32.8438C66.7188 36.0022 64.1584 38.5625 61 38.5625Z" fill="#FB4455"/>
<path d="M106.75 27.125C106.75 27.5303 106.694 27.9256 106.587 28.3071C106.587 28.3071 104.019 32.0243 99.1249 32.0243C94.9138 32.0243 92.2705 30.2837 92.2705 27.1252C92.2705 24.0026 95.4871 22.098 95.4871 22.098C96.5684 21.6567 97.8077 21.4062 99.1249 21.4062C103.336 21.4062 106.75 23.9666 106.75 27.125Z" fill="#FFB3B7"/>
<path d="M102.938 29.0312C98.7264 29.0312 95.3125 26.4708 95.3125 23.3124C95.3125 22.9071 95.3804 22.4791 95.4872 22.0977C93.127 23.0698 91.5 24.9628 91.5 27.1249C91.5 30.2833 94.9139 32.8437 99.125 32.8437C102.796 32.8437 105.861 30.8981 106.587 28.307C105.43 28.7847 104.19 29.0307 102.938 29.0312Z" fill="#FF9BA6"/>
</svg>
