<svg width="93" height="93" viewBox="0 0 93 93" fill="none" xmlns="http://www.w3.org/2000/svg">
<path d="M78.2052 34.1372C78.2058 34.8372 78.0413 35.5275 77.7253 36.1521C77.4092 36.7767 76.9504 37.318 76.3861 37.7322L70.1504 41.9561C67.1604 43.981 64.9781 46.9934 63.9859 50.4656C63.5779 51.8955 62.878 53.2073 61.9479 54.3283C61.0177 55.4494 59.8574 56.3776 58.5268 57.0437C57.2412 57.6854 56.16 58.6731 55.4052 59.8958C54.3494 61.6038 53.9998 63.6556 54.4301 65.617C55.0046 68.2482 56.8425 77.1956 58.2273 89.8878C58.4088 91.5478 57.1062 93 55.4351 93H51.0165L38.2476 85.8828L34.1641 83.6072L30.8871 68.7215C31.0692 67.782 31.2607 66.8443 31.4617 65.9087C31.6214 65.1632 31.7024 64.4029 31.7031 63.6405V63.6274C31.7033 62.218 31.4257 60.8223 30.8862 59.5202C30.3468 58.2181 29.556 57.035 28.559 56.0387C26.8756 54.3543 25.5403 52.355 24.6291 50.1548C23.7183 47.9553 23.2496 45.598 23.2499 43.2174C23.2499 41.082 22.9037 38.9748 22.2374 36.9724C21.5657 34.9592 20.5743 33.0673 19.3012 31.3693L15.6874 26.5522C15.1086 25.8116 14.7943 24.8984 14.7947 23.9584C14.7947 22.6989 15.3543 21.4525 16.4247 20.6197C18.2662 19.1843 20.9236 19.5155 22.3573 21.3569L28.1943 29.7335C28.6548 30.3941 29.5099 30.6411 30.2585 30.3398C30.2754 30.3342 30.2921 30.3267 30.309 30.3211C31.1979 29.9674 31.6302 28.955 31.2653 28.0678L23.817 9.98024C23.6278 9.49462 23.5307 8.978 23.5307 8.45682C23.5307 6.76121 24.56 5.16114 26.235 4.51359C28.4134 3.66969 30.8612 4.75317 31.7032 6.92959L38.0287 23.4771C38.4141 24.4877 39.5877 24.9443 40.5551 24.4595C40.8591 24.3076 41.1149 24.0744 41.2944 23.7858C41.4732 23.4968 41.5678 23.1637 41.5676 22.8239V4.32305C41.5676 1.99496 43.4091 0.0317871 45.7353 0H45.7989C45.8699 0 45.9411 0.00181641 46.0122 0.00563086H46.016C46.0834 0.00944531 46.1508 0.0130781 46.2161 0.020707C46.2761 0.0263379 46.334 0.0337852 46.392 0.0432305C46.4219 0.0470449 46.4519 0.0506777 46.4799 0.0563086C46.5473 0.0655723 46.6127 0.078832 46.6782 0.0937266C46.7287 0.103172 46.7774 0.114252 46.8261 0.12733C46.9552 0.159117 47.0824 0.196535 47.2061 0.241582C47.2322 0.251027 47.2584 0.260291 47.2847 0.271553C47.5077 0.355197 47.7231 0.457901 47.9285 0.578525C48.2404 0.761585 48.5279 0.983575 48.7838 1.23915C49.1772 1.63097 49.4893 2.09678 49.7019 2.60972C49.9145 3.12266 50.0235 3.67261 50.0226 4.22787V21.9337C50.0226 23.0491 50.9264 23.9548 52.0437 23.9548C52.5285 23.9548 52.9775 23.7826 53.3294 23.4925C53.6812 23.2024 53.9357 22.7926 54.0274 22.3173L57.1433 6.24154C57.5887 3.94905 59.8063 2.45179 62.0988 2.89735C64.1181 3.28842 65.5216 5.05706 65.5216 7.04075C65.5216 7.30849 65.4955 7.57968 65.443 7.85105L64.2078 15.1085C63.2066 20.9957 62.7032 26.9568 62.7031 32.9285C62.7031 33.7465 63.375 34.3341 64.1087 34.3341C64.3547 34.3335 64.5963 34.2677 64.8085 34.1432L71.5102 30.275C73.6455 29.0436 76.3741 29.7753 77.6055 31.9088C77.9985 32.5857 78.2054 33.3545 78.2052 34.1372Z" fill="#FFDDCF"/>
<path d="M47.9288 0.578344C46.9145 1.55521 46.2857 2.56949 45.9356 7.39986L43.8922 39.6467C43.383 50.1324 43.9278 50.6396 43.4955 56.0389C43.3494 57.8767 43.037 59.6226 42.616 61.1647C40.3852 69.3319 39.2585 76.0504 38.2481 85.8829L34.1646 83.6074L30.8876 68.7217C31.0697 67.7822 31.2612 66.8445 31.4621 65.9088C31.6219 65.1634 31.7028 64.4031 31.7035 63.6407V63.6276C31.7038 62.2182 31.4262 60.8225 30.8867 59.5204C30.3472 58.2182 29.5565 57.0352 28.5595 56.0389C26.8761 54.3544 25.5408 52.3551 24.6296 50.155C23.7188 47.9555 23.2501 45.5982 23.2504 43.2176C23.2504 41.0822 22.9041 38.975 22.2379 36.9726C21.5662 34.9594 20.5748 33.0675 19.3017 31.3695L15.6879 26.5524C15.109 25.8117 14.7948 24.8986 14.7952 23.9586C14.7952 22.6991 15.3548 21.4527 16.4252 20.6198C18.2667 19.1845 20.9241 19.5156 22.3578 21.3571L28.1948 29.7337C28.6553 30.3943 29.5104 30.6413 30.259 30.34C30.2759 30.3343 30.2926 30.3269 30.3095 30.3213C31.1984 29.9676 31.6307 28.9551 31.2658 28.068L23.8174 9.98042C23.6283 9.4948 23.5312 8.97818 23.5312 8.457C23.5312 6.76139 24.5605 5.16132 26.2354 4.51377C28.4139 3.66987 30.8616 4.75335 31.7037 6.92977L38.0292 23.4772C38.4146 24.4879 39.5882 24.9445 40.5556 24.4597C40.8595 24.3078 41.1154 24.0746 41.2949 23.786C41.4737 23.497 41.5683 23.1639 41.5681 22.8241V4.32305C41.5681 1.99496 43.4096 0.0317871 45.7358 0H45.7994C45.8704 0 45.9416 0.00181641 46.0126 0.00563086H46.0165C46.0839 0.00944531 46.1512 0.0130781 46.2166 0.020707C46.2766 0.0263379 46.3345 0.0337852 46.3925 0.0432305C46.4224 0.0470449 46.4524 0.0506777 46.4804 0.0563086C46.5478 0.0655723 46.6132 0.078832 46.6787 0.0937266C46.7292 0.103172 46.7779 0.114252 46.8266 0.12733C46.9557 0.159117 47.0829 0.196535 47.2066 0.241582C47.2327 0.251027 47.2589 0.260291 47.2852 0.271553C47.5082 0.354948 47.7236 0.457599 47.9288 0.578344Z" fill="#FFCBBE"/>
<path d="M56.2586 42.0534C50.4627 45.5418 47.2177 54.5677 46.0611 58.4043C45.6363 59.8155 44.2102 60.6968 42.8103 60.4049L37.894 41.3835L44.4778 30.4131C52.207 26.7167 63.5255 37.6798 56.2586 42.0534Z" fill="#FFB3C2"/>
<path d="M43.8922 39.6467C43.3831 50.1324 43.9278 50.6396 43.4955 56.0388C43.3738 57.581 43.1324 59.0575 42.8105 60.4049C42.6899 60.3793 42.5711 60.3456 42.4551 60.3039C40.507 59.6077 40.404 57.0346 38.6597 55.1668C36.2662 52.6065 31.6847 54.8505 31.3274 44.3666C30.9699 33.8808 36.1745 35.2808 43.8998 30.7199C44.0878 30.6089 44.2808 30.5064 44.4782 30.413L43.8922 39.6467Z" fill="#FF899F"/>
<path d="M51.0167 93H43.892L37.6937 91.6544L33.64 90.7729L29.1842 78.6422C29.8149 74.4576 30.425 71.0871 30.8873 68.7216L34.6901 71.6129L40.6732 69.2287C49.6055 71.3659 47.721 76.9541 51.1832 85.9351C52.0891 88.2839 51.8926 90.7449 51.0167 93Z" fill="#FFB3C2"/>
<path d="M37.7838 68.7084C38.8562 68.8507 39.8144 69.0229 40.6733 69.2287C39.3352 75.7171 38.538 82.2877 37.6941 91.6544L33.6404 90.7729L29.1846 78.6422C29.8152 74.4576 30.4254 71.087 30.8876 68.7215C32.5044 68.3622 34.7014 68.3025 37.7838 68.7084Z" fill="#FF899F"/>
<path d="M46.8658 43.6273C46.2203 45.7627 44.9926 46.8649 43.6582 47.3048L41.6351 42.1115L44.0793 36.6843C45.2432 36.3156 46.557 36.6131 47.3973 37.5658C48.5371 38.8589 47.8839 40.2681 46.8658 43.6273Z" fill="#FD5C6F"/>
<path d="M44.0793 36.6843L43.8922 39.6469C43.7238 43.1091 43.6713 45.4839 43.6583 47.3049C41.9926 47.8532 40.1586 47.3684 39.0695 46.5712C37.1081 45.1377 36.4905 40.2924 39.8872 38.9002C41.0568 38.421 42.2658 37.7811 43.1716 37.1372C43.449 36.9402 43.7552 36.7875 44.0793 36.6843Z" fill="#F6334C"/>
<path d="M43.8922 93.0001H37.5742L33.4739 82.5069L39.2379 77.5906C41.5754 78.0734 43.748 80.4035 42.3839 85.6621C41.5473 88.8828 42.511 91.2934 43.8922 93.0001Z" fill="#FD5C6F"/>
<path d="M39.2379 77.5905C38.6146 82.0183 38.1113 86.9272 37.574 93H30.5167C28.8475 93 27.5449 91.5496 27.7264 89.8877C28.1357 86.1297 28.6218 82.3804 29.1842 78.6422C31.3757 79.1924 33.8161 79.1924 36.363 77.9198C37.1662 77.5193 38.2179 77.3789 39.2379 77.5905Z" fill="#F6334C"/>
</svg>
