<svg width="83" height="83" viewBox="0 0 83 83" fill="none" xmlns="http://www.w3.org/2000/svg">
<g clip-path="url(#clip0_41_920)">
<path d="M58.906 73.4871C54.8602 79.4511 48.248 83.1409 40.3515 82.9959C23.6562 82.619 13.6408 64.2299 22.0909 49.8255L38.3144 22.1726C39.0977 20.8346 40.6605 20.4021 41.9479 20.8733C42.5659 21.098 43.12 21.5305 43.4967 22.1726L59.7204 49.8257C64.3538 57.7228 63.435 66.8194 58.906 73.4873V73.4871ZM80.4595 25.0729C78.6061 29.334 74.495 32.2741 69.2836 32.1456C60.3574 31.8669 55.0598 22.0138 59.5786 14.3103L67.1037 1.48233C67.8876 0.146069 69.4505 -0.288221 70.7372 0.184813C71.356 0.407713 71.9114 0.84022 72.287 1.48233L79.8121 14.3103C81.8715 17.8205 81.8919 21.7787 80.4594 25.0729H80.4595ZM20.1663 37.7388C18.7112 41.6512 15.0618 44.5482 10.4158 44.5482C2.25082 44.5482 -2.59089 35.6486 1.456 28.7502L8.12031 17.3898C8.87071 16.1114 10.4195 15.765 11.6018 16.3513C12.0427 16.5672 12.4314 16.9154 12.7099 17.3898L19.3742 28.7502C21.0871 31.6693 21.2067 34.9361 20.1663 37.7388Z" fill="#F44545"/>
<path d="M58.906 73.4875C55.7993 75.4045 52.122 76.5682 48.0479 76.6613C30.8027 77.1363 20.003 58.2804 28.6783 43.491L41.9479 20.8735C42.5658 21.0983 43.1199 21.5308 43.4967 22.1729L59.7204 49.826C64.3538 57.7232 63.435 66.8198 58.906 73.4877V73.4875ZM80.4596 25.0732C79.3008 25.5109 78.0388 25.7692 76.6938 25.8108C76.5589 25.8147 76.4201 25.818 76.2833 25.818C76.1447 25.818 76.0079 25.8147 75.8711 25.811C66.9456 25.5323 61.646 15.6791 66.1667 7.97766L70.7374 0.185059C71.3561 0.407959 71.9115 0.840467 72.2871 1.48258L79.8123 14.3106C81.8717 17.8208 81.8921 21.779 80.4596 25.0732ZM20.1662 37.7392C19.2912 38.0147 18.3538 38.1781 17.3674 38.2085C17.1247 38.2161 16.8819 38.2161 16.6392 38.2085C8.73508 37.9621 4.04217 29.2373 8.04417 22.4161L11.6017 16.3516C12.0426 16.5675 12.4313 16.9157 12.7098 17.3901L19.3742 28.7505C21.087 31.6696 21.2066 34.9364 20.1662 37.7392Z" fill="#FB5858"/>
</g>
<defs>
<clipPath id="clip0_41_920">
<rect width="83" height="83" fill="white"/>
</clipPath>
</defs>
</svg>
