<svg width="118" height="118" viewBox="0 0 118 118" fill="none" xmlns="http://www.w3.org/2000/svg">
<path d="M19.8943 71.8203V78.597C23.487 77.6982 27.2396 77.6476 30.8552 78.4492L30.5607 69.5261C26.4556 69.2259 22.8585 69.5242 19.8943 71.8203ZM72.6021 17.3015C71.3954 22.4122 67.9242 25.058 64.0144 26.4515L73.8211 32.6468C79.8525 29.9628 79.254 20.8824 79.5837 17.6627L72.6021 17.3015Z" fill="#FF5082"/>
<path d="M114.744 37.5192C119.085 28.2463 114.786 23.6141 116.025 19.1163C120.607 2.48328 97.6302 -6.1139 87.9979 5.62383C82.6375 0.907768 71.7176 1.62357 68.3263 8.33452C65.1505 6.3015 61.3151 6.04702 57.556 6.12708C53.7673 6.21096 49.5831 7.00205 46.4921 9.19138C43.6661 3.89963 33.9109 -0.389435 26.9235 5.64766C24.0203 2.88169 18.8992 1.38433 14.1011 1.75414C11.6709 1.99171 9.34024 2.84013 7.32599 4.22046C5.31175 5.60078 3.67936 7.46817 2.58072 9.64888C0.2713 14.5918 0.506722 20.5145 2.98389 26.7441C0.301801 31.5908 -1.65878 42.0294 3.50049 47.3574C-0.0117778 51.7475 -2.19062 64.1667 5.67075 70.0713C4.20389 80.0295 7.87628 86.4403 11.5925 88.8212C15.2249 91.1544 21.1114 91.7291 25.0926 87.3152C28.1597 83.9231 28.8431 71.7326 24.0318 66.9107C25.7398 63.3146 25.7607 55.6638 19.9638 50.4464C23.1997 45.3472 24.8467 36.751 19.9638 31.098C21.912 28.008 21.6604 28.2386 21.6365 24.632C24.006 27.0615 32.6652 26.8242 39.1092 25.3831C43.0315 24.5708 47.1083 24.9751 50.7946 26.5421C53.7422 27.7096 56.9427 28.0907 60.0821 27.6481C63.2215 27.2054 66.1919 25.9542 68.7019 24.0172C76.0266 28.7619 83.1646 26.9872 86.2279 23.1518C91.4482 23.595 93.6337 21.5982 95.5085 20.5059C94.6669 26.7012 96.3034 33.8316 99.9834 37.4763C94.8842 44.355 94.1522 54.5125 98.386 60.1655L98.3974 60.1769C94.7536 63.6291 93.0933 69.3269 93.4907 74.3451C88.7766 73.8161 77.6793 75.9978 74.2996 82.8651C66.0312 80.5347 48.9464 81.729 48.2335 98.8071C48.0553 103.104 48.9074 106.146 49.7861 109.534C50.1931 111.213 51.1265 112.719 52.45 113.83C53.7735 114.941 55.4177 115.6 57.1424 115.711C58.2003 115.75 59.2554 115.575 60.2441 115.197C61.2329 114.819 62.1351 114.245 62.8965 113.509C63.6579 112.773 64.2629 111.891 64.6751 110.916C65.0873 109.941 65.2983 108.893 65.2954 107.834C65.2612 105.754 65.5756 103.682 66.2256 101.706C68.8017 102.198 71.4554 102.109 73.9923 101.443C76.5291 100.777 78.8848 99.5514 80.8866 97.8568C90.9535 101.86 99.8538 98.8099 103.834 87.0569C113.9 85.3251 118.14 72.9621 114.171 63.7854C118.981 56.8657 118.941 42.2458 114.744 37.5192Z" fill="#FFCCCC"/>
<path d="M20.325 103.852C20.028 103.852 19.7383 103.76 19.4967 103.587C19.255 103.414 19.0734 103.17 18.9773 102.889C18.9191 102.723 17.5972 98.7137 18.8543 90.2242C20.1391 82.6355 14.3041 72.7963 11.7364 68.9171C11.2852 68.2469 10.9759 67.4915 10.8274 66.6974C10.6789 65.9033 10.6944 65.0872 10.8729 64.2992C12.1558 58.9255 10.9567 51.6656 10.5593 49.5687C10.4283 48.8756 10.4609 48.1615 10.6546 47.4833C12.0576 42.4317 11.9442 36.4346 11.0358 33.783C10.5365 32.2935 10.6391 30.6678 11.3218 29.2528C11.989 27.8355 12.8916 25.894 13.4272 20.1457C13.4433 19.9577 13.4963 19.7747 13.5834 19.6073C13.6705 19.44 13.7898 19.2915 13.9346 19.1704C14.0793 19.0494 14.2466 18.9582 14.4267 18.9021C14.6069 18.846 14.7964 18.8261 14.9842 18.8436C15.1721 18.8611 15.3547 18.9156 15.5214 19.0039C15.6881 19.0923 15.8357 19.2128 15.9556 19.3585C16.0755 19.5042 16.1654 19.6722 16.2201 19.8527C16.2748 20.0333 16.2932 20.223 16.2742 20.4107C15.7386 26.1771 14.8522 28.4532 13.9171 30.4643C13.5509 31.2076 13.4887 32.0643 13.7437 32.8528C14.9675 36.4165 14.8236 43.1789 13.4158 48.2505C13.3405 48.5051 13.3258 48.7737 13.3729 49.0349C13.9171 51.9039 15.0342 59.1991 13.6588 64.9626C13.5707 65.3696 13.5667 65.7903 13.647 66.1989C13.7273 66.6075 13.8903 66.9954 14.1259 67.3387C16.8814 71.501 23.1329 82.1122 21.6822 90.6722C20.5471 98.341 21.6822 101.938 21.6908 101.973C21.762 102.189 21.781 102.417 21.7463 102.641C21.7116 102.865 21.6241 103.078 21.4912 103.261C21.3583 103.445 21.1837 103.594 20.9817 103.697C20.7798 103.799 20.5563 103.853 20.3298 103.852H20.325ZM58.2527 19.1907C50.1988 19.0732 42.1568 18.5288 34.1606 17.5599L32.3592 17.3693C28.8326 17.0004 26.2763 15.2305 23.5685 13.3566C20.6672 11.3493 17.6686 9.27438 13.1051 8.8083C12.7278 8.77039 12.381 8.58415 12.1411 8.29056C11.9011 7.99697 11.7876 7.62008 11.8255 7.2428C11.8634 6.86551 12.0497 6.51875 12.3432 6.27878C12.6368 6.03882 13.0137 5.92531 13.391 5.96323C18.6866 6.50365 22.1426 8.89599 25.1917 11.0053C27.6936 12.7371 29.8553 14.2325 32.6527 14.5251L34.4684 14.7215C42.4413 15.5936 63.6178 17.9097 73.9135 14.5861C76.201 13.8484 78.4885 13.0707 80.7312 12.3091C90.1748 9.0971 98.3259 6.32637 103.754 7.19847C104.128 7.25902 104.463 7.4658 104.685 7.77333C104.907 8.08086 104.998 8.46395 104.937 8.83833C104.877 9.2127 104.67 9.54769 104.362 9.7696C104.055 9.99152 103.672 10.0822 103.297 10.0216C98.5832 9.25913 90.3559 12.0556 81.6519 15.0151C79.3705 15.7976 77.083 16.562 74.7894 17.3083C70.4193 18.716 64.4328 19.1907 58.2527 19.1907Z" fill="#FF8F95"/>
<path d="M28.724 9.54226C28.4605 9.542 28.2023 9.46896 27.9778 9.33122C27.7532 9.19347 27.5711 8.99636 27.4515 8.76166C27.0423 7.98214 26.5183 7.26854 25.897 6.64476C25.6373 6.37211 25.4957 6.00803 25.5029 5.63157C25.51 5.25512 25.6654 4.8967 25.9353 4.63412C26.2051 4.37155 26.5677 4.22602 26.9442 4.22915C27.3207 4.23228 27.6808 4.38381 27.9462 4.65083C28.7676 5.48049 29.4599 6.42858 30.0002 7.4635C30.1112 7.68142 30.1645 7.92418 30.1549 8.16858C30.1454 8.41297 30.0732 8.65082 29.9455 8.85938C29.8177 9.06794 29.6386 9.24024 29.4252 9.3598C29.2119 9.47936 28.9714 9.54218 28.7268 9.54226H28.724ZM3.29363 28.8745C3.01557 28.8744 2.74359 28.7931 2.51099 28.6408C2.27839 28.4884 2.09526 28.2715 1.98404 28.0167C1.87661 27.7731 1.77239 27.5281 1.67141 27.2818C1.59675 27.1077 1.55743 26.9206 1.55572 26.7311C1.55402 26.5417 1.58997 26.3539 1.66149 26.1785C1.73301 26.0031 1.83867 25.8436 1.97234 25.7094C2.106 25.5752 2.26501 25.4689 2.44011 25.3967C2.61522 25.3244 2.80293 25.2877 2.99235 25.2886C3.18176 25.2895 3.36911 25.3281 3.5435 25.4021C3.71789 25.476 3.87584 25.5839 4.00819 25.7194C4.14053 25.8549 4.24463 26.0154 4.31443 26.1915L4.60037 26.8644C4.75304 27.2114 4.7616 27.6049 4.62414 27.9583C4.48669 28.3117 4.21448 28.596 3.86741 28.7487C3.68707 28.8303 3.49159 28.8732 3.29363 28.8745ZM6.49041 51.0308C6.28048 51.0305 6.07319 50.984 5.88327 50.8945C4.58764 50.2667 3.42321 49.3982 2.45202 48.3354C2.32066 48.199 2.2177 48.0378 2.14914 47.8613C2.08059 47.6847 2.04779 47.4963 2.05266 47.307C2.05752 47.1177 2.09996 46.9312 2.1775 46.7584C2.25504 46.5856 2.36614 46.4299 2.50435 46.3004C2.64256 46.1709 2.80511 46.0702 2.98258 46.0041C3.16005 45.9379 3.34889 45.9077 3.53813 45.9152C3.72738 45.9226 3.91326 45.9676 4.08497 46.0475C4.25669 46.1274 4.41082 46.2406 4.53841 46.3805C5.26279 47.1786 6.13179 47.8322 7.09946 48.3068C7.39396 48.445 7.63254 48.6794 7.77581 48.9715C7.91909 49.2635 7.95849 49.5957 7.88751 49.9131C7.81653 50.2306 7.63942 50.5143 7.38542 50.7175C7.13141 50.9207 6.8157 51.0313 6.49041 51.0308ZM25.4776 26.6537C16.6755 26.6537 10.3372 18.4568 8.61493 12.4979C8.5628 12.3175 8.54671 12.1286 8.5676 11.9419C8.58848 11.7553 8.64592 11.5746 8.73664 11.4101C8.82736 11.2457 8.94958 11.1007 9.09632 10.9835C9.24306 10.8663 9.41146 10.7791 9.59188 10.727C9.77231 10.6749 9.96124 10.6588 10.1479 10.6797C10.3345 10.7005 10.5152 10.758 10.6797 10.8487C10.8441 10.9394 10.9891 11.0616 11.1063 11.2084C11.2235 11.3551 11.3107 11.5235 11.3628 11.704C12.8601 16.8851 18.3787 24.0593 25.8884 23.7829C26.2676 23.7691 26.6367 23.9065 26.9146 24.1649C27.1924 24.4233 27.3563 24.7815 27.37 25.1606C27.3838 25.5398 27.2464 25.9089 26.988 26.1868C26.7297 26.4647 26.3715 26.6285 25.9923 26.6423C25.8214 26.6499 25.6498 26.6537 25.4776 26.6537ZM69.8294 10.8347C69.5085 10.8351 69.197 10.7266 68.9458 10.5268C68.499 10.1752 68.0353 9.84564 67.5562 9.53941C67.2365 9.33528 67.0111 9.01254 66.9294 8.64218C66.8477 8.27182 66.9165 7.88418 67.1206 7.56453C67.3247 7.24488 67.6475 7.01942 68.0178 6.93773C68.3882 6.85604 68.7758 6.92483 69.0955 7.12895C69.6511 7.48447 70.1963 7.87239 70.7158 8.28223C70.9492 8.46625 71.1195 8.71845 71.2029 9.00374C71.2863 9.28904 71.2788 9.59324 71.1813 9.87403C71.0838 10.1548 70.9012 10.3982 70.6589 10.5704C70.4166 10.7426 70.1266 10.835 69.8294 10.8347ZM45.5752 11.358C45.2833 11.3581 44.9983 11.2688 44.7586 11.1022C44.5189 10.9356 44.3359 10.6996 44.2343 10.4259C44.1327 10.1522 44.1173 9.85396 44.1902 9.57128C44.2631 9.28859 44.4208 9.03499 44.6421 8.84458C44.9598 8.56944 45.2874 8.30479 45.6248 8.05062C45.9272 7.82185 46.3082 7.7226 46.6838 7.77471C47.0594 7.82681 47.399 8.026 47.6278 8.32846C47.8565 8.63092 47.9558 9.01186 47.9037 9.3875C47.8516 9.76313 47.6524 10.1027 47.3499 10.3315C47.064 10.5488 46.7781 10.7766 46.5074 11.012C46.2481 11.2351 45.9173 11.3579 45.5752 11.358ZM87.7357 24.8008C87.1771 24.801 86.619 24.7653 86.0649 24.6941C85.6932 24.6406 85.3574 24.443 85.1302 24.1439C84.903 23.8449 84.8026 23.4684 84.8507 23.096C84.8988 22.7235 85.0915 22.3849 85.3872 22.1534C85.6829 21.9218 86.0578 21.8159 86.4309 21.8585C93.0542 22.7087 98.6481 16.7879 99.1618 13.2556C99.1847 13.0664 99.2451 12.8836 99.3397 12.718C99.4342 12.5525 99.5609 12.4075 99.7123 12.2916C99.8637 12.1758 100.037 12.0913 100.221 12.0433C100.406 11.9953 100.598 11.9847 100.787 12.0121C100.975 12.0395 101.157 12.1044 101.32 12.2029C101.483 12.3014 101.625 12.4315 101.737 12.5857C101.849 12.7398 101.93 12.9148 101.973 13.1004C102.017 13.286 102.023 13.4785 101.991 13.6664C101.292 18.4807 95.1606 24.8008 87.7357 24.8008ZM89.0796 8.23076C88.8687 8.23132 88.6603 8.1852 88.4693 8.09573C88.2784 8.00625 88.1095 7.87562 87.975 7.71322C87.6889 7.35387 87.3798 7.01352 87.0495 6.69433C86.9048 6.57112 86.7861 6.42029 86.7003 6.25066C86.6146 6.08103 86.5635 5.89601 86.5501 5.70641C86.5368 5.51682 86.5613 5.32646 86.6224 5.14646C86.6834 4.96647 86.7797 4.80045 86.9057 4.65813C87.0317 4.51581 87.1848 4.40003 87.356 4.31757C87.5273 4.23512 87.7132 4.18763 87.9031 4.1779C88.0929 4.16817 88.2827 4.19638 88.4615 4.26089C88.6403 4.3254 88.8044 4.42492 88.9443 4.55361C89.3875 4.96767 89.7997 5.41366 90.1776 5.88798C90.3507 6.0969 90.4608 6.35075 90.495 6.61989C90.5292 6.88903 90.4861 7.16235 90.3708 7.40792C90.2555 7.65348 90.0726 7.86117 89.8437 8.0067C89.6147 8.15224 89.349 8.22962 89.0777 8.22981L89.0796 8.23076ZM113.833 40.6809C113.586 40.6807 113.342 40.6161 113.127 40.4936C112.912 40.371 112.732 40.1946 112.605 39.9816C112.479 39.7686 112.41 39.5265 112.405 39.2788C112.4 39.0311 112.46 38.7864 112.578 38.5687L112.851 38.0722C113.067 37.6842 113.252 37.3516 113.439 36.9351C113.515 36.7627 113.624 36.607 113.76 36.477C113.897 36.3471 114.058 36.2453 114.233 36.1777C114.409 36.11 114.597 36.0778 114.785 36.0829C114.974 36.088 115.159 36.1302 115.331 36.2072C115.503 36.2842 115.658 36.3945 115.787 36.5316C115.916 36.6687 116.017 36.83 116.084 37.0063C116.151 37.1825 116.182 37.3702 116.176 37.5585C116.17 37.7468 116.126 37.9321 116.048 38.1036C115.837 38.5661 115.604 39.0187 115.351 39.4599L115.091 39.9317C114.969 40.1584 114.787 40.3477 114.566 40.4796C114.344 40.6115 114.091 40.681 113.833 40.6809ZM102.264 88.6602C101.669 88.6727 101.077 88.5841 100.511 88.3981C100.331 88.3371 100.165 88.2408 100.023 88.1148C99.8804 87.9888 99.7645 87.8356 99.682 87.6643C99.5995 87.493 99.552 87.3069 99.5423 87.117C99.5326 86.9271 99.5609 86.7372 99.6255 86.5583C99.6901 86.3795 99.7897 86.2153 99.9186 86.0754C100.047 85.9356 100.203 85.8228 100.376 85.7438C100.549 85.6647 100.736 85.6209 100.926 85.615C101.116 85.6091 101.305 85.6412 101.483 85.7094C102.16 85.85 102.861 85.832 103.53 85.6569C103.715 85.6137 103.906 85.6076 104.093 85.6391C104.28 85.6706 104.459 85.7389 104.619 85.8401C104.78 85.9414 104.918 86.0735 105.027 86.2289C105.136 86.3842 105.212 86.5596 105.253 86.7449C105.293 86.9302 105.296 87.1217 105.262 87.3081C105.227 87.4946 105.156 87.6724 105.053 87.8311C104.949 87.9899 104.815 88.1264 104.658 88.2327C104.501 88.3391 104.324 88.4131 104.138 88.4505C103.523 88.5869 102.895 88.6572 102.264 88.6602ZM114.171 65.2114C113.879 65.2114 113.594 65.1221 113.354 64.9554C113.115 64.7888 112.932 64.5528 112.831 64.2793C112.793 64.179 112.758 64.0779 112.725 63.9762C112.639 63.6452 112.484 63.3361 112.271 63.0688C112.149 62.9251 112.056 62.7586 111.999 62.5789C111.941 62.3993 111.92 62.21 111.936 62.022C111.951 61.834 112.004 61.651 112.091 61.4836C112.178 61.3162 112.298 61.1676 112.442 61.0465C112.587 60.9253 112.754 60.834 112.934 60.7778C113.114 60.7216 113.304 60.7016 113.492 60.719C113.68 60.7363 113.862 60.7907 114.029 60.8789C114.196 60.9672 114.343 61.0875 114.463 61.2331C114.911 61.7739 115.243 62.4001 115.44 63.0736L115.513 63.2833C115.593 63.4995 115.62 63.732 115.591 63.9609C115.562 64.1898 115.478 64.4082 115.347 64.5977C115.215 64.7871 115.039 64.9419 114.835 65.0488C114.631 65.1557 114.403 65.2115 114.173 65.2114H114.171ZM66.2266 103.132C66.1063 103.132 65.9865 103.117 65.8701 103.087C65.7038 103.044 65.537 103.004 65.3697 102.966C64.7699 102.839 64.1799 102.67 63.6045 102.459C63.4275 102.39 63.266 102.287 63.1292 102.156C62.9925 102.024 62.8833 101.867 62.808 101.692C62.7327 101.518 62.6929 101.331 62.6908 101.141C62.6887 100.951 62.7244 100.763 62.7958 100.587C62.8673 100.411 62.973 100.251 63.1068 100.117C63.2406 99.9824 63.3999 99.8759 63.5753 99.8035C63.7508 99.7312 63.9389 99.6945 64.1286 99.6956C64.3184 99.6967 64.506 99.7355 64.6806 99.8099C65.1214 99.9618 65.5712 100.086 66.0274 100.183C66.2256 100.229 66.4143 100.278 66.5811 100.317C66.9192 100.403 67.2143 100.609 67.4109 100.897C67.6074 101.185 67.6919 101.535 67.6483 101.881C67.6047 102.227 67.4361 102.546 67.1743 102.776C66.9124 103.007 66.5754 103.133 66.2266 103.132ZM80.8875 99.2828C80.5769 99.2829 80.2747 99.1819 80.0266 98.9949C79.7785 98.808 79.598 98.5453 79.5125 98.2467C79.427 97.948 79.4411 97.6296 79.5526 97.3397C79.6642 97.0498 79.8671 96.8041 80.1308 96.6398C80.8927 96.1594 81.5673 95.5528 82.1256 94.846C82.3635 94.5506 82.709 94.3618 83.086 94.3212C83.4631 94.2805 83.8409 94.3913 84.1363 94.6292C84.4316 94.867 84.6204 95.2125 84.6611 95.5896C84.7018 95.9666 84.591 96.3444 84.3531 96.6398C83.5945 97.5972 82.6781 98.4182 81.6434 99.0674C81.4165 99.2084 81.1547 99.283 80.8875 99.2828Z" fill="#FF8F95"/>
<path d="M58.3509 117.094C57.9717 117.094 57.6081 116.943 57.3399 116.675C57.0718 116.407 56.9212 116.043 56.9212 115.664C56.8983 114.628 56.7677 113.597 56.5314 112.588C56.0805 110.291 55.5172 107.432 56.0863 100.996C56.9822 90.8932 65.0218 89.7704 75.2012 88.3465L76.8291 88.1177C87.3955 86.6127 93.2734 83.3378 98.0523 80.0238C106.911 73.8799 107.965 65.9175 107.291 60.3103C107.19 59.4252 107.315 58.5289 107.655 57.7054C110.33 51.0116 109.297 45.8066 108.384 41.2163C108.15 40.0383 107.93 38.9288 107.786 37.847C107.687 35.9404 107.726 34.0292 107.903 32.1283C108.162 27.5819 108.555 20.7117 107.309 18.4338C107.212 18.2688 107.148 18.0858 107.123 17.8958C107.098 17.7059 107.111 17.5127 107.162 17.3279C107.212 17.1431 107.3 16.9704 107.419 16.8201C107.538 16.6697 107.685 16.5448 107.854 16.4528C108.022 16.3607 108.207 16.3034 108.397 16.2843C108.588 16.2651 108.781 16.2845 108.964 16.3413C109.147 16.398 109.316 16.491 109.463 16.6147C109.609 16.7384 109.729 16.8903 109.816 17.0613C111.456 20.057 111.069 26.8403 110.757 32.2913C110.607 34.0124 110.561 35.741 110.618 37.4677C110.752 38.457 110.964 39.5264 111.19 40.6587C112.13 45.3948 113.301 51.289 110.31 58.7681C110.15 59.1464 110.088 59.5594 110.131 59.9681C111.218 68.9904 107.507 76.9471 99.6822 82.3732C94.6144 85.8883 88.3876 89.3596 77.2332 90.9513L75.5986 91.182C64.814 92.6879 59.5995 93.7421 58.9351 101.248C58.4014 107.278 58.9199 109.917 59.3374 112.036C59.6105 113.227 59.759 114.443 59.7806 115.664C59.7806 116.043 59.6299 116.407 59.3618 116.675C59.0937 116.943 58.7301 117.094 58.3509 117.094ZM5.67356 71.5009C5.59952 71.5008 5.5256 71.4951 5.45244 71.4838C5.07786 71.4258 4.74163 71.2214 4.51768 70.9156C4.29374 70.6098 4.20039 70.2276 4.25817 69.853C4.34612 69.1903 4.55002 68.5482 4.86054 67.9562L4.95586 67.7523C5.1184 67.4096 5.4104 67.1456 5.76762 67.0182C6.12484 66.8909 6.51803 66.9106 6.86068 67.0732C7.20333 67.2357 7.46737 67.5277 7.59473 67.8849C7.72209 68.2422 7.70232 68.6353 7.53978 68.978L7.43208 69.201C7.24515 69.5393 7.12692 69.9111 7.08419 70.2952C7.0309 70.6311 6.85961 70.937 6.60107 71.158C6.34253 71.379 6.01367 71.5006 5.67356 71.5009ZM68.7009 25.4431C68.4335 25.443 68.1714 25.3679 67.9446 25.2263C67.7177 25.0848 67.5351 24.8825 67.4174 24.6423C67.2998 24.4022 67.2519 24.1339 67.2791 23.8679C67.3063 23.6018 67.4076 23.3488 67.5714 23.1375C68.0255 22.5487 68.4094 21.909 68.7152 21.2312C68.8605 20.8808 69.1391 20.6026 69.4896 20.4576C69.8401 20.3126 70.2339 20.3129 70.5842 20.4582C70.9346 20.6036 71.2129 20.8821 71.3578 21.2327C71.5028 21.5832 71.5026 21.9769 71.3572 22.3273C70.9535 23.2388 70.4415 24.0983 69.8322 24.8874C69.6986 25.0603 69.5272 25.2003 69.3311 25.2966C69.135 25.393 68.9194 25.4431 68.7009 25.4431Z" fill="#FF8F95"/>
<path d="M75.8359 32.749C75.9093 32.7595 75.9608 32.77 76.0266 32.7804C76.1752 32.6642 76.2315 32.5727 75.8359 32.749Z" fill="#FF4A7A"/>
<path d="M94.4343 51.6464C100.09 46.9856 98.102 43.4066 99.2552 39.7476C102.863 28.2967 99.708 23.8799 95.824 22.1453C87.5223 18.4214 79.6256 23.025 80.453 35.2374C78.4819 33.2501 74.595 32.5381 74.595 32.5381L70.8464 27.1187C70.313 26.342 69.5242 25.7769 68.6173 25.5218C67.7103 25.2667 66.7426 25.3376 65.8825 25.7223C60.9206 27.9622 53.1307 28.5693 48.182 25.2944C42.7359 22.4922 30.5635 19.5509 24.6237 23.3395C18.0547 27.5333 17.6287 38.8183 26.771 40.9132C27.4759 41.071 28.1885 41.1916 28.906 41.2745C23.3274 41.2039 18.4684 44.9802 17.0673 49.4218C16.2859 52.3069 16.3089 55.3508 17.1338 58.2238C17.9587 61.0967 19.5541 63.6892 21.7471 65.7202C24.7018 68.429 28.297 69.914 37.7682 66.9202L37.7949 66.9069C38.7104 68.8612 39.8576 70.6984 41.2118 72.3788C37.7789 70.8024 34.0994 69.8312 30.3357 69.5079L30.2538 78.3243C35.4378 79.5634 36.8246 82.3809 41.1451 85.0039C47.9428 89.1309 55.8232 88.8516 63.251 84.0765C64.6214 83.1841 66.2216 82.709 67.8569 82.709C69.4923 82.709 71.0925 83.1841 72.4629 84.0765C73.4817 84.683 74.6101 85.0828 75.7835 85.253C76.9569 85.4232 78.1524 85.3606 79.3016 85.0687C83.2923 84.2109 83.2094 81.5983 86.3623 76.8079C88.1733 74.0715 95.112 75.16 99.9834 71.1292C108.338 64.1952 105.151 50.4931 94.4343 51.6464Z" fill="#FF5082"/>
<path d="M28.7955 42.6775C30.303 42.8923 31.8276 42.9632 33.3486 42.8891C37.3822 42.8243 41.1852 42.7623 44.3572 47.2944C46.454 50.2911 49.0646 54.0206 53.1545 54.36C53.3597 54.3771 53.5659 54.3857 53.7731 54.3857C57.0223 54.3857 60.6022 52.2888 64.9714 47.8387C66.2338 46.5382 67.8271 45.6069 69.5797 45.1451C70.3919 44.9151 71.2509 44.9065 72.0675 45.1202C72.8842 45.3339 73.6288 45.7621 74.2243 46.3604C75.1664 47.3721 76.3408 48.1391 77.646 48.595C78.9512 49.0509 80.3477 49.1819 81.7149 48.9767C83.0613 48.7672 84.3456 48.2654 85.4773 47.5064C86.609 46.7475 87.5608 45.7499 88.2657 44.5838C89.4281 42.1148 90.1537 39.463 90.4103 36.7462C90.8125 34.005 91.1604 31.6365 92.7149 30.4146C92.9944 30.1748 93.1706 29.8363 93.2067 29.4698C93.2428 29.1032 93.1361 28.7369 92.9087 28.4471C92.6814 28.1573 92.351 27.9665 91.9864 27.9143C91.6218 27.8622 91.2511 27.9527 90.9516 28.1671C88.5012 30.0943 88.0551 33.1234 87.5842 36.3316C87.3704 38.7256 86.7472 41.0652 85.7419 43.2484C85.2406 44.0156 84.585 44.67 83.8168 45.1699C83.0486 45.6697 82.1848 46.0041 81.2803 46.1516C80.3529 46.2826 79.4076 46.1843 78.527 45.8655C77.6464 45.5466 76.8573 45.0169 76.2287 44.3226C75.2937 43.3825 74.1271 42.7059 72.8468 42.3613C71.5665 42.0167 70.2178 42.0163 68.9373 42.3601C66.6507 42.9401 64.57 44.1434 62.9269 45.8362C59.0334 49.8031 55.8156 51.7093 53.3909 51.5101C50.8403 51.2985 48.9312 48.8414 46.699 45.6541C42.6577 39.8791 37.4746 39.9649 33.3019 40.0307C31.9652 40.098 30.6251 40.0419 29.2987 39.8629C28.9255 39.7961 28.541 39.8802 28.2298 40.0968C27.9186 40.3135 27.7062 40.6449 27.6394 41.0181C27.5725 41.3913 27.6566 41.7759 27.8733 42.0871C28.0899 42.3983 28.4213 42.6106 28.7945 42.6775H28.7955Z" fill="#CC336E"/>
<path d="M36.3919 52.7159C38.1942 53.2525 40.6809 54.726 42.285 58.7034C43.4202 61.517 45.1635 65.0197 48.0114 66.4647C47.9168 66.7606 47.9211 67.0792 48.0237 67.3724C48.1263 67.6656 48.3216 67.9175 48.5801 68.0898C48.8386 68.2621 49.1461 68.3455 49.4562 68.3275C49.7664 68.3094 50.0622 68.1908 50.2989 67.9897C53.5026 65.4162 57.2462 63.5998 61.2503 62.676C67.3684 61.3912 69.532 58.6662 70.9655 55.7544C74.0203 57.1995 77.3625 57.9346 80.7417 57.9047C86.1926 57.9047 91.7027 56.1242 95.5256 52.7159C95.8088 52.4631 95.9799 52.1082 96.0013 51.7292C96.0228 51.3503 95.8928 50.9784 95.64 50.6952C95.3872 50.4121 95.0323 50.241 94.6534 50.2196C94.2744 50.1981 93.9025 50.3281 93.6194 50.5809C88.8328 54.8451 79.313 56.7276 72.1369 53.139C72.2692 52.7934 72.2623 52.4098 72.1176 52.0691C71.9729 51.7285 71.7017 51.4572 71.361 51.3123C71.0204 51.1675 70.6369 51.1605 70.2911 51.2926C69.9454 51.4248 69.6644 51.6859 69.5072 52.021L69.2041 52.7197C67.7249 56.1462 66.6564 58.6205 60.6651 59.8795C57.036 60.6899 53.5929 62.1791 50.5172 64.2687C48.4737 64.0781 46.6808 61.9602 44.9328 57.634C43.3487 53.7062 40.6037 50.9869 37.2049 49.9756C35.82 49.5722 34.3669 49.4587 32.9362 49.6422C31.5055 49.8257 30.128 50.3023 28.8898 51.0422C28.6279 50.6198 28.408 50.1729 28.2331 49.7078C28.1002 49.3544 27.833 49.068 27.4897 48.9109C27.1464 48.7539 26.7549 48.739 26.4007 48.8694C26.0464 48.9999 25.7582 49.2653 25.5988 49.6075C25.4395 49.9497 25.4219 50.3411 25.5501 50.6962C25.9437 51.7646 26.8072 53.6194 28.1645 54.0455C28.4606 54.1406 28.7749 54.1652 29.0822 54.1172C29.3896 54.0692 29.6814 53.95 29.9344 53.7691C30.8642 53.1232 31.9266 52.6934 33.0439 52.5112C34.1612 52.329 35.3051 52.3989 36.3919 52.7159ZM32.9949 33.0186C40.1529 33.0186 51.3902 38.906 53.0334 43.5182C53.0945 43.6975 53.1906 43.8628 53.3161 44.0047C53.4416 44.1465 53.594 44.262 53.7646 44.3444C53.9351 44.4269 54.1203 44.4746 54.3094 44.4848C54.4985 44.4951 54.6878 44.4676 54.8662 44.4041C55.0446 44.3406 55.2087 44.2423 55.3488 44.1148C55.4889 43.9874 55.6023 43.8334 55.6823 43.6617C55.7624 43.4901 55.8076 43.3043 55.8153 43.115C55.8229 42.9258 55.7929 42.7369 55.7269 42.5594C55.5346 42.0369 55.2887 41.5357 54.993 41.0639C56.743 38.0387 59.9426 35.7474 64.1326 34.5874C69.5482 33.0853 75.6501 33.8116 79.6685 36.4355C79.8258 36.5381 80.0017 36.6087 80.1863 36.6433C80.3708 36.6779 80.5604 36.6757 80.7441 36.6371C80.9278 36.5984 81.1022 36.5239 81.2571 36.4179C81.4121 36.3118 81.5446 36.1763 81.6472 36.019C81.7498 35.8617 81.8203 35.6858 81.8549 35.5013C81.8895 35.3167 81.8874 35.1271 81.8487 34.9434C81.81 34.7597 81.7356 34.5854 81.6295 34.4304C81.5235 34.2754 81.3879 34.1429 81.2307 34.0403C76.4784 30.9417 69.6321 30.0944 63.3653 31.831C59.2368 32.8375 55.598 35.273 53.0935 38.7059C48.4041 33.9984 39.1836 30.1602 32.9911 30.1602C32.6119 30.1602 32.2483 30.3108 31.9802 30.5789C31.712 30.847 31.5614 31.2107 31.5614 31.5898C31.5614 31.969 31.712 32.3327 31.9802 32.6008C32.2483 32.8689 32.6119 33.0195 32.9911 33.0195L32.9949 33.0186ZM73.2092 82.7812C71.8977 82.1674 71.0637 80.1411 70.4213 76.0064C70.3951 75.8186 70.3317 75.6379 70.235 75.4748C70.1383 75.3117 70.0101 75.1695 69.8579 75.0564C69.7056 74.9433 69.5324 74.8617 69.3483 74.8162C69.1643 74.7707 68.973 74.7623 68.7856 74.7914C68.5982 74.8206 68.4185 74.8867 68.257 74.9859C68.0954 75.0852 67.9552 75.2156 67.8445 75.3696C67.7338 75.5235 67.6548 75.698 67.6122 75.8827C67.5696 76.0675 67.5642 76.2589 67.5962 76.4458C68.2863 80.8902 69.2994 84.108 71.9977 85.3709C72.1683 85.4541 72.3536 85.5026 72.5431 85.5134C72.7325 85.5243 72.9222 85.4973 73.1011 85.4341C73.28 85.3709 73.4445 85.2728 73.5851 85.1453C73.7257 85.0179 73.8395 84.8638 73.9199 84.6919C74.0003 84.52 74.0457 84.3339 74.0534 84.1443C74.0611 83.9547 74.031 83.7655 73.9649 83.5876C73.8987 83.4098 73.7978 83.2469 73.6681 83.1085C73.5383 82.97 73.3823 82.8588 73.2092 82.7812Z" fill="#CC336E"/>
<path d="M96.2109 57.4673C96.0483 57.3733 95.8687 57.3123 95.6825 57.2877C95.4962 57.2631 95.307 57.2755 95.1255 57.3241C94.9441 57.3727 94.774 57.4565 94.6249 57.5709C94.4759 57.6853 94.3509 57.8279 94.257 57.9906C93.1847 59.8463 90.1014 61.1178 86.836 62.4627C83.0635 64.0172 78.8554 65.7548 76.3745 68.9716C75.957 68.6442 75.5136 68.3512 75.0487 68.0956C73.3795 67.2313 71.5373 66.7535 69.6584 66.6976C67.7795 66.6416 65.9121 67.009 64.1945 67.7725C62.6398 68.5022 61.1302 69.3243 59.6738 70.2344C55.725 72.5953 51.9983 74.8228 46.8876 73.3292C42.6653 72.0902 40.4293 67.5476 38.6317 63.8933C37.2554 61.0959 36.1678 58.8865 34.2959 58.4462C33.8309 58.3484 33.3496 58.359 32.8893 58.477C32.429 58.595 32.0021 58.8173 31.6414 59.1267C31.4864 59.2384 31.3554 59.3799 31.256 59.543C31.1566 59.7062 31.0909 59.8876 31.0628 60.0765C31.0347 60.2654 31.0447 60.4581 31.0923 60.6431C31.1399 60.8281 31.2241 61.0017 31.3399 61.1536C31.4557 61.3055 31.6008 61.4327 31.7665 61.5276C31.9323 61.6225 32.1154 61.6833 32.3051 61.7062C32.4947 61.7292 32.687 61.7139 32.8707 61.6613C33.0543 61.6087 33.2255 61.5198 33.3742 61.3999C33.4597 61.3382 33.5484 61.2812 33.6402 61.2293C34.2177 61.3999 35.33 63.6598 36.0659 65.1552C38.0036 69.0917 40.6561 74.4825 46.0851 76.0714C47.4016 76.4645 48.7677 76.6668 50.1416 76.6719C54.4774 76.6719 57.9734 74.5817 61.1416 72.6878C62.4992 71.836 63.9066 71.0664 65.3563 70.3831C66.6722 69.793 68.104 69.5066 69.5456 69.5454C70.9872 69.5842 72.4016 69.9471 73.6838 70.6071C74.3977 70.9378 75.025 71.4296 75.5166 72.0438C76.0081 72.6581 76.3504 73.378 76.5165 74.147C76.546 74.3325 76.6118 74.5103 76.71 74.6703C76.8083 74.8303 76.9371 74.9694 77.0891 75.0796C77.2411 75.1899 77.4134 75.2691 77.596 75.3127C77.7786 75.3564 77.968 75.3637 78.1535 75.3341C78.3389 75.3046 78.5167 75.2388 78.6767 75.1406C78.8367 75.0423 78.9758 74.9135 79.0861 74.7615C79.1963 74.6095 79.2755 74.4373 79.3192 74.2546C79.3629 74.072 79.3701 73.8826 79.3406 73.6972C79.1869 72.7815 78.85 71.9062 78.3503 71.1237C80.2728 68.2643 84.1567 66.6631 87.9263 65.1095C91.6531 63.5731 95.1701 62.1224 96.7332 59.4241C96.8277 59.2614 96.8892 59.0817 96.9141 58.8952C96.939 58.7087 96.9268 58.5191 96.8783 58.3373C96.8298 58.1555 96.7458 57.9851 96.6313 57.8358C96.5168 57.6865 96.3739 57.5613 96.2109 57.4673Z" fill="#CC336E"/>
</svg>
