<svg xmlns="http://www.w3.org/2000/svg" width="122" height="122" viewBox="0 0 122 122" fill="none">
  <path d="M21.8943 74.8203V81.597C25.487 80.6982 29.2396 80.6476 32.8552 81.4492L32.5607 72.5261C28.4556 72.2259 24.8585 72.5242 21.8943 74.8203ZM74.6021 20.3015C73.3954 25.4122 69.9242 28.058 66.0144 29.4515L75.8211 35.6468C81.8525 32.9628 81.254 23.8824 81.5837 20.6627L74.6021 20.3015Z" fill="#FF5082"/>
  <path d="M116.744 40.5192C121.085 31.2463 116.786 26.6141 118.025 22.1163C122.607 5.48328 99.6302 -3.1139 89.9979 8.62383C84.6375 3.90777 73.7176 4.62357 70.3263 11.3345C67.1505 9.3015 63.3151 9.04702 59.556 9.12708C55.7673 9.21096 51.5831 10.002 48.4921 12.1914C45.6661 6.89963 35.9109 2.61056 28.9235 8.64766C26.0203 5.88169 20.8992 4.38433 16.1011 4.75414C13.6709 4.99171 11.3402 5.84013 9.32599 7.22046C7.31175 8.60078 5.67936 10.4682 4.58072 12.6489C2.2713 17.5918 2.50672 23.5145 4.98389 29.7441C2.3018 34.5908 0.341222 45.0294 5.50049 50.3574C1.98822 54.7475 -0.190621 67.1667 7.67075 73.0713C6.20389 83.0295 9.87628 89.4403 13.5925 91.8212C17.2249 94.1544 23.1114 94.7291 27.0926 90.3152C30.1597 86.9231 30.8431 74.7326 26.0318 69.9107C27.7398 66.3146 27.7607 58.6638 21.9638 53.4464C25.1997 48.3472 26.8467 39.751 21.9638 34.098C23.912 31.008 23.6604 31.2386 23.6365 27.632C26.006 30.0615 34.6652 29.8242 41.1092 28.3831C45.0315 27.5708 49.1083 27.9751 52.7946 29.5421C55.7422 30.7096 58.9427 31.0907 62.0821 30.6481C65.2215 30.2054 68.1919 28.9542 70.7019 27.0172C78.0266 31.7619 85.1646 29.9872 88.2279 26.1518C93.4482 26.595 95.6337 24.5982 97.5085 23.5059C96.6669 29.7012 98.3034 36.8316 101.983 40.4763C96.8842 47.355 96.1522 57.5125 100.386 63.1655L100.397 63.1769C96.7536 66.6291 95.0933 72.3269 95.4907 77.3451C90.7766 76.8161 79.6793 78.9978 76.2996 85.8651C68.0312 83.5347 50.9464 84.729 50.2335 101.807C50.0553 106.104 50.9074 109.146 51.7861 112.534C52.1931 114.213 53.1265 115.719 54.45 116.83C55.7735 117.941 57.4177 118.6 59.1424 118.711C60.2003 118.75 61.2554 118.575 62.2441 118.197C63.2329 117.819 64.1351 117.245 64.8965 116.509C65.6579 115.773 66.2629 114.891 66.6751 113.916C67.0873 112.941 67.2983 111.893 67.2954 110.834C67.2612 108.754 67.5756 106.682 68.2256 104.706C70.8017 105.198 73.4554 105.109 75.9923 104.443C78.5291 103.777 80.8848 102.551 82.8866 100.857C92.9535 104.86 101.854 101.81 105.834 90.0569C115.9 88.3251 120.14 75.9621 116.171 66.7854C120.981 59.8657 120.941 45.2458 116.744 40.5192Z" fill="#FFCCCC"/>
  <path d="M22.325 106.852C22.028 106.852 21.7383 106.76 21.4967 106.587C21.255 106.414 21.0734 106.17 20.9773 105.889C20.9191 105.723 19.5972 101.714 20.8543 93.2242C22.1391 85.6355 16.3041 75.7963 13.7364 71.9171C13.2852 71.2469 12.9759 70.4915 12.8274 69.6974C12.6789 68.9033 12.6944 68.0872 12.8729 67.2992C14.1558 61.9255 12.9567 54.6656 12.5593 52.5687C12.4283 51.8756 12.4609 51.1615 12.6546 50.4833C14.0576 45.4317 13.9442 39.4346 13.0358 36.783C12.5365 35.2935 12.6391 33.6678 13.3218 32.2528C13.989 30.8355 14.8916 28.894 15.4272 23.1457C15.4433 22.9577 15.4963 22.7747 15.5834 22.6073C15.6705 22.44 15.7898 22.2915 15.9346 22.1704C16.0793 22.0494 16.2466 21.9582 16.4267 21.9021C16.6069 21.846 16.7964 21.8261 16.9842 21.8436C17.1721 21.8611 17.3547 21.9156 17.5214 22.0039C17.6881 22.0923 17.8357 22.2128 17.9556 22.3585C18.0755 22.5042 18.1654 22.6722 18.2201 22.8527C18.2748 23.0333 18.2932 23.223 18.2742 23.4107C17.7386 29.1771 16.8522 31.4532 15.9171 33.4643C15.5509 34.2076 15.4887 35.0643 15.7437 35.8528C16.9675 39.4165 16.8236 46.1789 15.4158 51.2505C15.3405 51.5051 15.3258 51.7737 15.3729 52.0349C15.9171 54.9039 17.0342 62.1991 15.6588 67.9626C15.5707 68.3696 15.5667 68.7903 15.647 69.1989C15.7273 69.6075 15.8903 69.9954 16.1259 70.3387C18.8814 74.501 25.1329 85.1122 23.6822 93.6722C22.5471 101.341 23.6822 104.938 23.6908 104.973C23.762 105.189 23.781 105.417 23.7463 105.641C23.7116 105.865 23.6241 106.078 23.4912 106.261C23.3583 106.445 23.1837 106.594 22.9817 106.697C22.7798 106.799 22.5563 106.853 22.3298 106.852H22.325ZM60.2527 22.1907C52.1988 22.0732 44.1568 21.5288 36.1606 20.5599L34.3592 20.3693C30.8326 20.0004 28.2763 18.2305 25.5685 16.3566C22.6672 14.3493 19.6686 12.2744 15.1051 11.8083C14.7278 11.7704 14.381 11.5841 14.1411 11.2906C13.9011 10.997 13.7876 10.6201 13.8255 10.2428C13.8634 9.86551 14.0497 9.51875 14.3432 9.27878C14.6368 9.03882 15.0137 8.92531 15.391 8.96323C20.6866 9.50365 24.1426 11.896 27.1917 14.0053C29.6936 15.7371 31.8553 17.2325 34.6527 17.5251L36.4684 17.7215C44.4413 18.5936 65.6178 20.9097 75.9135 17.5861C78.201 16.8484 80.4885 16.0707 82.7312 15.3091C92.1748 12.0971 100.326 9.32637 105.754 10.1985C106.128 10.259 106.463 10.4658 106.685 10.7733C106.907 11.0809 106.998 11.464 106.937 11.8383C106.877 12.2127 106.67 12.5477 106.362 12.7696C106.055 12.9915 105.672 13.0822 105.297 13.0216C100.583 12.2591 92.3559 15.0556 83.6519 18.0151C81.3705 18.7976 79.083 19.562 76.7894 20.3083C72.4193 21.716 66.4328 22.1907 60.2527 22.1907Z" fill="#FF8F95"/>
  <path d="M30.724 12.5423C30.4605 12.542 30.2023 12.469 29.9778 12.3312C29.7532 12.1935 29.5711 11.9964 29.4515 11.7617C29.0423 10.9821 28.5183 10.2685 27.897 9.64476C27.6373 9.37211 27.4957 9.00803 27.5029 8.63157C27.51 8.25512 27.6654 7.8967 27.9353 7.63412C28.2051 7.37155 28.5677 7.22602 28.9442 7.22915C29.3207 7.23228 29.6808 7.38381 29.9462 7.65083C30.7676 8.48049 31.4599 9.42858 32.0002 10.4635C32.1112 10.6814 32.1645 10.9242 32.1549 11.1686C32.1454 11.413 32.0732 11.6508 31.9455 11.8594C31.8177 12.0679 31.6386 12.2402 31.4252 12.3598C31.2119 12.4794 30.9714 12.5422 30.7268 12.5423H30.724ZM5.29363 31.8745C5.01557 31.8744 4.74359 31.7931 4.51099 31.6408C4.27839 31.4884 4.09526 31.2715 3.98404 31.0167C3.87661 30.7731 3.77239 30.5281 3.67141 30.2818C3.59675 30.1077 3.55743 29.9206 3.55572 29.7311C3.55402 29.5417 3.58997 29.3539 3.66149 29.1785C3.73301 29.0031 3.83867 28.8436 3.97234 28.7094C4.106 28.5752 4.26501 28.4689 4.44011 28.3967C4.61522 28.3244 4.80293 28.2877 4.99235 28.2886C5.18176 28.2895 5.36911 28.3281 5.5435 28.4021C5.71789 28.476 5.87584 28.5839 6.00819 28.7194C6.14053 28.8549 6.24463 29.0154 6.31443 29.1915L6.60037 29.8644C6.75304 30.2114 6.7616 30.6049 6.62414 30.9583C6.48669 31.3117 6.21448 31.596 5.86741 31.7487C5.68707 31.8303 5.49159 31.8732 5.29363 31.8745ZM8.49041 54.0308C8.28048 54.0305 8.07319 53.984 7.88327 53.8945C6.58764 53.2667 5.42321 52.3982 4.45202 51.3354C4.32066 51.199 4.2177 51.0378 4.14914 50.8613C4.08059 50.6847 4.04779 50.4963 4.05266 50.307C4.05752 50.1177 4.09996 49.9312 4.1775 49.7584C4.25504 49.5856 4.36614 49.4299 4.50435 49.3004C4.64256 49.1709 4.80511 49.0702 4.98258 49.0041C5.16005 48.9379 5.34889 48.9077 5.53813 48.9152C5.72738 48.9226 5.91326 48.9676 6.08497 49.0475C6.25669 49.1274 6.41082 49.2406 6.53841 49.3805C7.26279 50.1786 8.13179 50.8322 9.09946 51.3068C9.39396 51.445 9.63254 51.6794 9.77581 51.9715C9.91909 52.2635 9.95849 52.5957 9.88751 52.9131C9.81653 53.2306 9.63942 53.5143 9.38542 53.7175C9.13141 53.9207 8.8157 54.0313 8.49041 54.0308ZM27.4776 29.6537C18.6755 29.6537 12.3372 21.4568 10.6149 15.4979C10.5628 15.3175 10.5467 15.1286 10.5676 14.9419C10.5885 14.7553 10.6459 14.5746 10.7366 14.4101C10.8274 14.2457 10.9496 14.1007 11.0963 13.9835C11.2431 13.8663 11.4115 13.7791 11.5919 13.727C11.7723 13.6749 11.9612 13.6588 12.1479 13.6797C12.3345 13.7005 12.5152 13.758 12.6797 13.8487C12.8441 13.9394 12.9891 14.0616 13.1063 14.2084C13.2235 14.3551 13.3107 14.5235 13.3628 14.704C14.8601 19.8851 20.3787 27.0593 27.8884 26.7829C28.2676 26.7691 28.6367 26.9065 28.9146 27.1649C29.1924 27.4233 29.3563 27.7815 29.37 28.1606C29.3838 28.5398 29.2464 28.9089 28.988 29.1868C28.7297 29.4647 28.3715 29.6285 27.9923 29.6423C27.8214 29.6499 27.6498 29.6537 27.4776 29.6537ZM71.8294 13.8347C71.5085 13.8351 71.197 13.7266 70.9458 13.5268C70.499 13.1752 70.0353 12.8456 69.5562 12.5394C69.2365 12.3353 69.0111 12.0125 68.9294 11.6422C68.8477 11.2718 68.9165 10.8842 69.1206 10.5645C69.3247 10.2449 69.6475 10.0194 70.0178 9.93773C70.3882 9.85604 70.7758 9.92483 71.0955 10.129C71.6511 10.4845 72.1963 10.8724 72.7158 11.2822C72.9492 11.4662 73.1195 11.7184 73.2029 12.0037C73.2863 12.289 73.2788 12.5932 73.1813 12.874C73.0838 13.1548 72.9012 13.3982 72.6589 13.5704C72.4166 13.7426 72.1266 13.835 71.8294 13.8347ZM47.5752 14.358C47.2833 14.3581 46.9983 14.2688 46.7586 14.1022C46.5189 13.9356 46.3359 13.6996 46.2343 13.4259C46.1327 13.1522 46.1173 12.854 46.1902 12.5713C46.2631 12.2886 46.4208 12.035 46.6421 11.8446C46.9598 11.5694 47.2874 11.3048 47.6248 11.0506C47.9272 10.8219 48.3082 10.7226 48.6838 10.7747C49.0594 10.8268 49.399 11.026 49.6278 11.3285C49.8565 11.6309 49.9558 12.0119 49.9037 12.3875C49.8516 12.7631 49.6524 13.1027 49.3499 13.3315C49.064 13.5488 48.7781 13.7766 48.5074 14.012C48.2481 14.2351 47.9173 14.3579 47.5752 14.358ZM89.7357 27.8008C89.1771 27.801 88.619 27.7653 88.0649 27.6941C87.6932 27.6406 87.3574 27.443 87.1302 27.1439C86.903 26.8449 86.8026 26.4684 86.8507 26.096C86.8988 25.7235 87.0915 25.3849 87.3872 25.1534C87.6829 24.9218 88.0578 24.8159 88.4309 24.8585C95.0542 25.7087 100.648 19.7879 101.162 16.2556C101.185 16.0664 101.245 15.8836 101.34 15.718C101.434 15.5525 101.561 15.4075 101.712 15.2916C101.864 15.1758 102.037 15.0913 102.221 15.0433C102.406 14.9953 102.598 14.9847 102.787 15.0121C102.975 15.0395 103.157 15.1044 103.32 15.2029C103.483 15.3014 103.625 15.4315 103.737 15.5857C103.849 15.7398 103.93 15.9148 103.973 16.1004C104.017 16.286 104.023 16.4785 103.991 16.6664C103.292 21.4807 97.1606 27.8008 89.7357 27.8008ZM91.0796 11.2308C90.8687 11.2313 90.6603 11.1852 90.4693 11.0957C90.2784 11.0062 90.1095 10.8756 89.975 10.7132C89.6889 10.3539 89.3798 10.0135 89.0495 9.69433C88.9048 9.57112 88.7861 9.42029 88.7003 9.25066C88.6146 9.08103 88.5635 8.89601 88.5501 8.70641C88.5368 8.51682 88.5613 8.32646 88.6224 8.14646C88.6834 7.96647 88.7797 7.80045 88.9057 7.65813C89.0317 7.51581 89.1848 7.40003 89.356 7.31757C89.5273 7.23512 89.7132 7.18763 89.9031 7.1779C90.0929 7.16817 90.2827 7.19638 90.4615 7.26089C90.6403 7.3254 90.8044 7.42492 90.9443 7.55361C91.3875 7.96767 91.7997 8.41366 92.1776 8.88798C92.3507 9.0969 92.4608 9.35075 92.495 9.61989C92.5292 9.88903 92.4861 10.1623 92.3708 10.4079C92.2555 10.6535 92.0726 10.8612 91.8437 11.0067C91.6147 11.1522 91.349 11.2296 91.0777 11.2298L91.0796 11.2308ZM115.833 43.6809C115.586 43.6807 115.342 43.6161 115.127 43.4936C114.912 43.371 114.732 43.1946 114.605 42.9816C114.479 42.7686 114.41 42.5265 114.405 42.2788C114.4 42.0311 114.46 41.7864 114.578 41.5687L114.851 41.0722C115.067 40.6842 115.252 40.3516 115.439 39.9351C115.515 39.7627 115.624 39.607 115.76 39.477C115.897 39.3471 116.058 39.2453 116.233 39.1777C116.409 39.11 116.597 39.0778 116.785 39.0829C116.974 39.088 117.159 39.1302 117.331 39.2072C117.503 39.2842 117.658 39.3945 117.787 39.5316C117.916 39.6687 118.017 39.83 118.084 40.0063C118.151 40.1825 118.182 40.3702 118.176 40.5585C118.17 40.7468 118.126 40.9321 118.048 41.1036C117.837 41.5661 117.604 42.0187 117.351 42.4599L117.091 42.9317C116.969 43.1584 116.787 43.3477 116.566 43.4796C116.344 43.6115 116.091 43.681 115.833 43.6809ZM104.264 91.6602C103.669 91.6727 103.077 91.5841 102.511 91.3981C102.331 91.3371 102.165 91.2408 102.023 91.1148C101.88 90.9888 101.765 90.8356 101.682 90.6643C101.6 90.493 101.552 90.3069 101.542 90.117C101.533 89.9271 101.561 89.7372 101.626 89.5583C101.69 89.3795 101.79 89.2153 101.919 89.0754C102.047 88.9356 102.203 88.8228 102.376 88.7438C102.549 88.6647 102.736 88.6209 102.926 88.615C103.116 88.6091 103.305 88.6412 103.483 88.7094C104.16 88.85 104.861 88.832 105.53 88.6569C105.715 88.6137 105.906 88.6076 106.093 88.6391C106.28 88.6706 106.459 88.7389 106.619 88.8401C106.78 88.9414 106.918 89.0735 107.027 89.2289C107.136 89.3842 107.212 89.5596 107.253 89.7449C107.293 89.9302 107.296 90.1217 107.262 90.3081C107.227 90.4946 107.156 90.6724 107.053 90.8311C106.949 90.9899 106.815 91.1264 106.658 91.2327C106.501 91.3391 106.324 91.4131 106.138 91.4505C105.523 91.5869 104.895 91.6572 104.264 91.6602ZM116.171 68.2114C115.879 68.2114 115.594 68.1221 115.354 67.9554C115.115 67.7888 114.932 67.5528 114.831 67.2793C114.793 67.179 114.758 67.0779 114.725 66.9762C114.639 66.6452 114.484 66.3361 114.271 66.0688C114.149 65.9251 114.056 65.7586 113.999 65.5789C113.941 65.3993 113.92 65.21 113.936 65.022C113.951 64.834 114.004 64.651 114.091 64.4836C114.178 64.3162 114.298 64.1676 114.442 64.0465C114.587 63.9253 114.754 63.834 114.934 63.7778C115.114 63.7216 115.304 63.7016 115.492 63.719C115.68 63.7363 115.862 63.7907 116.029 63.8789C116.196 63.9672 116.343 64.0875 116.463 64.2331C116.911 64.7739 117.243 65.4001 117.44 66.0736L117.513 66.2833C117.593 66.4995 117.62 66.732 117.591 66.9609C117.562 67.1898 117.478 67.4082 117.347 67.5977C117.215 67.7871 117.039 67.9419 116.835 68.0488C116.631 68.1557 116.403 68.2115 116.173 68.2114H116.171ZM68.2266 106.132C68.1063 106.132 67.9865 106.117 67.8701 106.087C67.7038 106.044 67.537 106.004 67.3697 105.966C66.7699 105.839 66.1799 105.67 65.6045 105.459C65.4275 105.39 65.266 105.287 65.1292 105.156C64.9925 105.024 64.8833 104.867 64.808 104.692C64.7327 104.518 64.6929 104.331 64.6908 104.141C64.6887 103.951 64.7244 103.763 64.7958 103.587C64.8673 103.411 64.973 103.251 65.1068 103.117C65.2406 102.982 65.3999 102.876 65.5753 102.804C65.7508 102.731 65.9389 102.694 66.1286 102.696C66.3184 102.697 66.506 102.736 66.6806 102.81C67.1214 102.962 67.5712 103.086 68.0274 103.183C68.2256 103.229 68.4143 103.278 68.5811 103.317C68.9192 103.403 69.2143 103.609 69.4109 103.897C69.6074 104.185 69.6919 104.535 69.6483 104.881C69.6047 105.227 69.4361 105.546 69.1743 105.776C68.9124 106.007 68.5754 106.133 68.2266 106.132ZM82.8875 102.283C82.5769 102.283 82.2747 102.182 82.0266 101.995C81.7785 101.808 81.598 101.545 81.5125 101.247C81.427 100.948 81.4411 100.63 81.5526 100.34C81.6642 100.05 81.8671 99.8041 82.1308 99.6398C82.8927 99.1594 83.5673 98.5528 84.1256 97.846C84.3635 97.5506 84.709 97.3618 85.086 97.3212C85.4631 97.2805 85.8409 97.3913 86.1363 97.6292C86.4316 97.867 86.6204 98.2125 86.6611 98.5896C86.7018 98.9666 86.591 99.3444 86.3531 99.6398C85.5945 100.597 84.6781 101.418 83.6434 102.067C83.4165 102.208 83.1547 102.283 82.8875 102.283Z" fill="#FF8F95"/>
  <path d="M60.3509 120.094C59.9717 120.094 59.6081 119.943 59.3399 119.675C59.0718 119.407 58.9212 119.043 58.9212 118.664C58.8983 117.628 58.7677 116.597 58.5314 115.588C58.0805 113.291 57.5172 110.432 58.0863 103.996C58.9822 93.8932 67.0218 92.7704 77.2012 91.3465L78.8291 91.1177C89.3955 89.6127 95.2734 86.3378 100.052 83.0238C108.911 76.8799 109.965 68.9175 109.291 63.3103C109.19 62.4252 109.315 61.5289 109.655 60.7054C112.33 54.0116 111.297 48.8066 110.384 44.2163C110.15 43.0383 109.93 41.9288 109.786 40.847C109.687 38.9404 109.726 37.0292 109.903 35.1283C110.162 30.5819 110.555 23.7117 109.309 21.4338C109.212 21.2688 109.148 21.0858 109.123 20.8958C109.098 20.7059 109.111 20.5127 109.162 20.3279C109.212 20.1431 109.3 19.9704 109.419 19.8201C109.538 19.6697 109.685 19.5448 109.854 19.4528C110.022 19.3607 110.207 19.3034 110.397 19.2843C110.588 19.2651 110.781 19.2845 110.964 19.3413C111.147 19.398 111.316 19.491 111.463 19.6147C111.609 19.7384 111.729 19.8903 111.816 20.0613C113.456 23.057 113.069 29.8403 112.757 35.2913C112.607 37.0124 112.561 38.741 112.618 40.4677C112.752 41.457 112.964 42.5264 113.19 43.6587C114.13 48.3948 115.301 54.289 112.31 61.7681C112.15 62.1464 112.088 62.5594 112.131 62.9681C113.218 71.9904 109.507 79.9471 101.682 85.3732C96.6144 88.8883 90.3876 92.3596 79.2332 93.9513L77.5986 94.182C66.814 95.6879 61.5995 96.7421 60.9351 104.248C60.4014 110.278 60.9199 112.917 61.3374 115.036C61.6105 116.227 61.759 117.443 61.7806 118.664C61.7806 119.043 61.6299 119.407 61.3618 119.675C61.0937 119.943 60.7301 120.094 60.3509 120.094ZM7.67356 74.5009C7.59952 74.5008 7.5256 74.4951 7.45244 74.4838C7.07786 74.4258 6.74163 74.2214 6.51768 73.9156C6.29374 73.6098 6.20039 73.2276 6.25817 72.853C6.34612 72.1903 6.55002 71.5482 6.86054 70.9562L6.95586 70.7523C7.1184 70.4096 7.4104 70.1456 7.76762 70.0182C8.12484 69.8909 8.51803 69.9106 8.86068 70.0732C9.20333 70.2357 9.46737 70.5277 9.59473 70.8849C9.72209 71.2422 9.70232 71.6353 9.53978 71.978L9.43208 72.201C9.24515 72.5393 9.12692 72.9111 9.08419 73.2952C9.0309 73.6311 8.85961 73.937 8.60107 74.158C8.34253 74.379 8.01367 74.5006 7.67356 74.5009ZM70.7009 28.4431C70.4335 28.443 70.1714 28.3679 69.9446 28.2263C69.7177 28.0848 69.5351 27.8825 69.4174 27.6423C69.2998 27.4022 69.2519 27.1339 69.2791 26.8679C69.3063 26.6018 69.4076 26.3488 69.5714 26.1375C70.0255 25.5487 70.4094 24.909 70.7152 24.2312C70.8605 23.8808 71.1391 23.6026 71.4896 23.4576C71.8401 23.3126 72.2339 23.3129 72.5842 23.4582C72.9346 23.6036 73.2129 23.8821 73.3578 24.2327C73.5028 24.5832 73.5026 24.9769 73.3572 25.3273C72.9535 26.2388 72.4415 27.0983 71.8322 27.8874C71.6986 28.0603 71.5272 28.2003 71.3311 28.2966C71.135 28.393 70.9194 28.4431 70.7009 28.4431Z" fill="#FF8F95"/>
  <path d="M77.8359 35.749C77.9093 35.7595 77.9608 35.77 78.0266 35.7804C78.1752 35.6642 78.2315 35.5727 77.8359 35.749Z" fill="#FF4A7A"/>
  <path d="M96.4343 54.6464C102.09 49.9856 100.102 46.4066 101.255 42.7476C104.863 31.2967 101.708 26.8799 97.824 25.1453C89.5223 21.4214 81.6256 26.025 82.453 38.2374C80.4819 36.2501 76.595 35.5381 76.595 35.5381L72.8464 30.1187C72.313 29.342 71.5242 28.7769 70.6173 28.5218C69.7103 28.2667 68.7426 28.3376 67.8825 28.7223C62.9206 30.9622 55.1307 31.5693 50.182 28.2944C44.7359 25.4922 32.5635 22.5509 26.6237 26.3395C20.0547 30.5333 19.6287 41.8183 28.771 43.9132C29.4759 44.071 30.1885 44.1916 30.906 44.2745C25.3274 44.2039 20.4684 47.9802 19.0673 52.4218C18.2859 55.3069 18.3089 58.3508 19.1338 61.2238C19.9587 64.0967 21.5541 66.6892 23.7471 68.7202C26.7018 71.429 30.297 72.914 39.7682 69.9202L39.7949 69.9069C40.7104 71.8612 41.8576 73.6984 43.2118 75.3788C39.7789 73.8024 36.0994 72.8312 32.3357 72.5079L32.2538 81.3243C37.4378 82.5634 38.8246 85.3809 43.1451 88.0039C49.9428 92.1309 57.8232 91.8516 65.251 87.0765C66.6214 86.1841 68.2216 85.709 69.8569 85.709C71.4923 85.709 73.0925 86.1841 74.4629 87.0765C75.4817 87.683 76.6101 88.0828 77.7835 88.253C78.9569 88.4232 80.1524 88.3606 81.3016 88.0687C85.2923 87.2109 85.2094 84.5983 88.3623 79.8079C90.1733 77.0715 97.112 78.16 101.983 74.1292C110.338 67.1952 107.151 53.4931 96.4343 54.6464Z" fill="#FF5082"/>
  <path d="M30.7955 45.6775C32.303 45.8923 33.8276 45.9632 35.3486 45.8891C39.3822 45.8243 43.1852 45.7623 46.3572 50.2944C48.454 53.2911 51.0646 57.0206 55.1545 57.36C55.3597 57.3771 55.5659 57.3857 55.7731 57.3857C59.0223 57.3857 62.6022 55.2888 66.9714 50.8387C68.2338 49.5382 69.8271 48.6069 71.5797 48.1451C72.3919 47.9151 73.2509 47.9065 74.0675 48.1202C74.8842 48.3339 75.6288 48.7621 76.2243 49.3604C77.1664 50.3721 78.3408 51.1391 79.646 51.595C80.9512 52.0509 82.3477 52.1819 83.7149 51.9767C85.0613 51.7672 86.3456 51.2654 87.4773 50.5064C88.609 49.7475 89.5608 48.7499 90.2657 47.5838C91.4281 45.1148 92.1537 42.463 92.4103 39.7462C92.8125 37.005 93.1604 34.6365 94.7149 33.4146C94.9944 33.1748 95.1706 32.8363 95.2067 32.4698C95.2428 32.1032 95.1361 31.7369 94.9087 31.4471C94.6814 31.1573 94.351 30.9665 93.9864 30.9143C93.6218 30.8622 93.2511 30.9527 92.9516 31.1671C90.5012 33.0943 90.0551 36.1234 89.5842 39.3316C89.3704 41.7256 88.7472 44.0652 87.7419 46.2484C87.2406 47.0156 86.585 47.67 85.8168 48.1699C85.0486 48.6697 84.1848 49.0041 83.2803 49.1516C82.3529 49.2826 81.4076 49.1843 80.527 48.8655C79.6464 48.5466 78.8573 48.0169 78.2287 47.3226C77.2937 46.3825 76.1271 45.7059 74.8468 45.3613C73.5665 45.0167 72.2178 45.0163 70.9373 45.3601C68.6507 45.9401 66.57 47.1434 64.9269 48.8362C61.0334 52.8031 57.8156 54.7093 55.3909 54.5101C52.8403 54.2985 50.9312 51.8414 48.699 48.6541C44.6577 42.8791 39.4746 42.9649 35.3019 43.0307C33.9652 43.098 32.6251 43.0419 31.2987 42.8629C30.9255 42.7961 30.541 42.8802 30.2298 43.0968C29.9186 43.3135 29.7062 43.6449 29.6394 44.0181C29.5725 44.3913 29.6566 44.7759 29.8733 45.0871C30.0899 45.3983 30.4213 45.6106 30.7945 45.6775H30.7955Z" fill="#CC336E"/>
  <path d="M38.3919 55.7159C40.1942 56.2525 42.6809 57.726 44.285 61.7034C45.4202 64.517 47.1635 68.0197 50.0114 69.4647C49.9168 69.7606 49.9211 70.0792 50.0237 70.3724C50.1263 70.6656 50.3216 70.9175 50.5801 71.0898C50.8386 71.2621 51.1461 71.3455 51.4562 71.3275C51.7664 71.3094 52.0622 71.1908 52.2989 70.9897C55.5026 68.4162 59.2462 66.5998 63.2503 65.676C69.3684 64.3912 71.532 61.6662 72.9655 58.7544C76.0203 60.1995 79.3625 60.9346 82.7417 60.9047C88.1926 60.9047 93.7027 59.1242 97.5256 55.7159C97.8088 55.4631 97.9799 55.1082 98.0013 54.7292C98.0228 54.3503 97.8928 53.9784 97.64 53.6952C97.3872 53.4121 97.0323 53.241 96.6534 53.2196C96.2744 53.1981 95.9025 53.3281 95.6194 53.5809C90.8328 57.8451 81.313 59.7276 74.1369 56.139C74.2692 55.7934 74.2623 55.4098 74.1176 55.0691C73.9729 54.7285 73.7017 54.4572 73.361 54.3123C73.0204 54.1675 72.6369 54.1605 72.2911 54.2926C71.9454 54.4248 71.6644 54.6859 71.5072 55.021L71.2041 55.7197C69.7249 59.1462 68.6564 61.6205 62.6651 62.8795C59.036 63.6899 55.5929 65.1791 52.5172 67.2687C50.4737 67.0781 48.6808 64.9602 46.9328 60.634C45.3487 56.7062 42.6037 53.9869 39.2049 52.9756C37.82 52.5722 36.3669 52.4587 34.9362 52.6422C33.5055 52.8257 32.128 53.3023 30.8898 54.0422C30.6279 53.6198 30.408 53.1729 30.2331 52.7078C30.1002 52.3544 29.833 52.068 29.4897 51.9109C29.1464 51.7539 28.7549 51.739 28.4007 51.8694C28.0464 51.9999 27.7582 52.2653 27.5988 52.6075C27.4395 52.9497 27.4219 53.3411 27.5501 53.6962C27.9437 54.7646 28.8072 56.6194 30.1645 57.0455C30.4606 57.1406 30.7749 57.1652 31.0822 57.1172C31.3896 57.0692 31.6814 56.95 31.9344 56.7691C32.8642 56.1232 33.9266 55.6934 35.0439 55.5112C36.1612 55.329 37.3051 55.3989 38.3919 55.7159ZM34.9949 36.0186C42.1529 36.0186 53.3902 41.906 55.0334 46.5182C55.0945 46.6975 55.1906 46.8628 55.3161 47.0047C55.4416 47.1465 55.594 47.262 55.7646 47.3444C55.9351 47.4269 56.1203 47.4746 56.3094 47.4848C56.4985 47.4951 56.6878 47.4676 56.8662 47.4041C57.0446 47.3406 57.2087 47.2423 57.3488 47.1148C57.4889 46.9874 57.6023 46.8334 57.6823 46.6617C57.7624 46.4901 57.8076 46.3043 57.8153 46.115C57.8229 45.9258 57.7929 45.7369 57.7269 45.5594C57.5346 45.0369 57.2887 44.5357 56.993 44.0639C58.743 41.0387 61.9426 38.7474 66.1326 37.5874C71.5482 36.0853 77.6501 36.8116 81.6685 39.4355C81.8258 39.5381 82.0017 39.6087 82.1863 39.6433C82.3708 39.6779 82.5604 39.6757 82.7441 39.6371C82.9278 39.5984 83.1022 39.5239 83.2571 39.4179C83.4121 39.3118 83.5446 39.1763 83.6472 39.019C83.7498 38.8617 83.8203 38.6858 83.8549 38.5013C83.8895 38.3167 83.8874 38.1271 83.8487 37.9434C83.81 37.7597 83.7356 37.5854 83.6295 37.4304C83.5235 37.2754 83.3879 37.1429 83.2307 37.0403C78.4784 33.9417 71.6321 33.0944 65.3653 34.831C61.2368 35.8375 57.598 38.273 55.0935 41.7059C50.4041 36.9984 41.1836 33.1602 34.9911 33.1602C34.6119 33.1602 34.2483 33.3108 33.9802 33.5789C33.712 33.847 33.5614 34.2107 33.5614 34.5898C33.5614 34.969 33.712 35.3327 33.9802 35.6008C34.2483 35.8689 34.6119 36.0195 34.9911 36.0195L34.9949 36.0186ZM75.2092 85.7812C73.8977 85.1674 73.0637 83.1411 72.4213 79.0064C72.3951 78.8186 72.3317 78.6379 72.235 78.4748C72.1383 78.3117 72.0101 78.1695 71.8579 78.0564C71.7056 77.9433 71.5324 77.8617 71.3483 77.8162C71.1643 77.7707 70.973 77.7623 70.7856 77.7914C70.5982 77.8206 70.4185 77.8867 70.257 77.9859C70.0954 78.0852 69.9552 78.2156 69.8445 78.3696C69.7338 78.5235 69.6548 78.698 69.6122 78.8827C69.5696 79.0675 69.5642 79.2589 69.5962 79.4458C70.2863 83.8902 71.2994 87.108 73.9977 88.3709C74.1683 88.4541 74.3536 88.5026 74.5431 88.5134C74.7325 88.5243 74.9222 88.4973 75.1011 88.4341C75.28 88.3709 75.4445 88.2728 75.5851 88.1453C75.7257 88.0179 75.8395 87.8638 75.9199 87.6919C76.0003 87.52 76.0457 87.3339 76.0534 87.1443C76.0611 86.9547 76.031 86.7655 75.9649 86.5876C75.8987 86.4098 75.7978 86.2469 75.6681 86.1085C75.5383 85.97 75.3823 85.8588 75.2092 85.7812Z" fill="#CC336E"/>
  <path d="M98.2109 60.4673C98.0483 60.3733 97.8687 60.3123 97.6825 60.2877C97.4962 60.2631 97.307 60.2755 97.1255 60.3241C96.9441 60.3727 96.774 60.4565 96.6249 60.5709C96.4759 60.6853 96.3509 60.8279 96.257 60.9906C95.1847 62.8463 92.1014 64.1178 88.836 65.4627C85.0635 67.0172 80.8554 68.7548 78.3745 71.9716C77.957 71.6442 77.5136 71.3512 77.0487 71.0956C75.3795 70.2313 73.5373 69.7535 71.6584 69.6976C69.7795 69.6416 67.9121 70.009 66.1945 70.7725C64.6398 71.5022 63.1302 72.3243 61.6738 73.2344C57.725 75.5953 53.9983 77.8228 48.8876 76.3292C44.6653 75.0902 42.4293 70.5476 40.6317 66.8933C39.2554 64.0959 38.1678 61.8865 36.2959 61.4462C35.8309 61.3484 35.3496 61.359 34.8893 61.477C34.429 61.595 34.0021 61.8173 33.6414 62.1267C33.4864 62.2384 33.3554 62.3799 33.256 62.543C33.1566 62.7062 33.0909 62.8876 33.0628 63.0765C33.0347 63.2654 33.0447 63.4581 33.0923 63.6431C33.1399 63.8281 33.2241 64.0017 33.3399 64.1536C33.4557 64.3055 33.6008 64.4327 33.7665 64.5276C33.9323 64.6225 34.1154 64.6833 34.3051 64.7062C34.4947 64.7292 34.687 64.7139 34.8707 64.6613C35.0543 64.6087 35.2255 64.5198 35.3742 64.3999C35.4597 64.3382 35.5484 64.2812 35.6402 64.2293C36.2177 64.3999 37.33 66.6598 38.0659 68.1552C40.0036 72.0917 42.6561 77.4825 48.0851 79.0714C49.4016 79.4645 50.7677 79.6668 52.1416 79.6719C56.4774 79.6719 59.9734 77.5817 63.1416 75.6878C64.4992 74.836 65.9066 74.0664 67.3563 73.3831C68.6722 72.793 70.104 72.5066 71.5456 72.5454C72.9872 72.5842 74.4016 72.9471 75.6838 73.6071C76.3977 73.9378 77.025 74.4296 77.5166 75.0438C78.0081 75.6581 78.3504 76.378 78.5165 77.147C78.546 77.3325 78.6118 77.5103 78.71 77.6703C78.8083 77.8303 78.9371 77.9694 79.0891 78.0796C79.2411 78.1899 79.4134 78.2691 79.596 78.3127C79.7786 78.3564 79.968 78.3637 80.1535 78.3341C80.3389 78.3046 80.5167 78.2388 80.6767 78.1406C80.8367 78.0423 80.9758 77.9135 81.0861 77.7615C81.1963 77.6095 81.2755 77.4373 81.3192 77.2546C81.3629 77.072 81.3701 76.8826 81.3406 76.6972C81.1869 75.7815 80.85 74.9062 80.3503 74.1237C82.2728 71.2643 86.1567 69.6631 89.9263 68.1095C93.6531 66.5731 97.1701 65.1224 98.7332 62.4241C98.8277 62.2614 98.8892 62.0817 98.9141 61.8952C98.939 61.7087 98.9268 61.5191 98.8783 61.3373C98.8298 61.1555 98.7458 60.9851 98.6313 60.8358C98.5168 60.6865 98.3739 60.5613 98.2109 60.4673Z" fill="#CC336E"/>
</svg>