<svg xmlns="http://www.w3.org/2000/svg" width="122" height="122" viewBox="0 0 122 122" fill="none">
  <g clip-path="url(#clip0_191_501)">
    <path d="M60.4394 126.995C47.663 126.995 43.3139 117.158 54.3942 113.736C55.2403 111.702 57.5498 104.99 54.2998 98.6629C48.4488 97.6273 42.8823 95.2149 38.1094 91.6462C31.481 93.8807 28.4182 100.153 27.586 102.17C32.6033 111.67 23.701 117.035 13.9363 107.271C4.86539 98.1996 8.80762 88.206 19.0364 93.6208C21.0752 92.7786 27.4568 89.6593 29.631 82.8917C26.2185 78.0089 23.9864 72.3675 23.1395 66.4839C18.3581 64.1125 12.179 64.838 8.26157 66.4831C4.84219 77.5704 -4.99597 73.2229 -4.99597 60.4426C-4.99597 47.6591 4.84606 43.3194 8.26157 54.4012C12.2657 56.085 18.5143 56.7834 23.3367 54.3022C24.3723 48.4534 26.7847 42.887 30.3518 38.1141C28.1173 31.4842 21.844 28.4221 19.8276 27.5899C9.62979 32.9924 5.6574 23.0119 14.7275 13.9402C23.7234 4.94278 33.8362 8.70634 28.378 19.0387C29.2179 21.0767 32.3318 27.4576 39.1087 29.6333C43.9899 26.2217 49.6298 23.9911 55.5149 23.1434C58.6218 16.8762 56.3502 10.2764 55.5126 8.26239C44.4315 4.84301 48.7783 -4.99438 61.5578 -4.99438C74.3381 -4.99438 78.6864 4.843 67.6038 8.26316C66.7577 10.2973 64.4466 17.0077 67.6989 23.3383C73.5485 24.3739 79.1165 26.7871 83.8886 30.3557C90.517 28.1205 93.5798 21.8486 94.412 19.8315C88.9538 9.49757 99.065 5.73478 108.062 14.7314C117.132 23.8 113.163 33.7821 102.962 28.3803C100.924 29.2226 94.5412 32.3404 92.3694 39.1111C95.7826 43.9938 98.0139 49.6353 98.8608 55.5188C103.645 57.891 109.82 57.1632 113.74 55.5188C117.159 44.4362 126.998 48.7814 126.998 61.5625C126.998 74.3444 117.157 78.6888 113.74 67.6046C109.728 65.9247 103.492 65.2209 98.6652 67.7021C97.6288 73.5531 95.2164 79.1211 91.6477 83.894C93.8853 90.534 100.156 93.5868 102.172 94.4167C112.412 88.9995 116.333 99.0048 107.273 108.066C98.28 117.061 88.1634 113.3 93.6208 102.966C92.7777 100.928 89.6561 94.5435 82.8916 92.3717C78.0073 95.7849 72.3659 98.0178 66.4839 98.8632C63.3754 105.137 65.6493 111.73 66.487 113.743C77.575 117.17 73.2136 126.996 60.4394 126.996V126.995Z" fill="#C0D235"/>
    <path d="M53.766 69.7034C49.0812 69.7034 47.8406 62.3016 52.5579 61.0478C64.8354 57.7855 65.2369 51.8942 69.2905 51.8942C71.7608 51.8942 72.6016 53.3591 73.4786 54.8781C76.6962 60.4484 59.474 69.7042 53.7652 69.7042L53.766 69.7034ZM66.0606 48.3889H54.2989C48.7641 48.3889 48.7641 39.9785 54.2989 39.9785L66.0606 39.9778C71.5969 39.9778 71.5961 48.3882 66.0606 48.3882V48.3889ZM38.7496 58.0562C30.5643 58.0562 30.5643 45.6177 38.7496 45.6177C46.9357 45.6177 46.9342 58.0562 38.7496 58.0562ZM50.9947 90.1207C42.8094 90.1207 42.8086 77.6815 50.9947 77.6815C59.18 77.6815 59.18 90.1207 50.9947 90.1207ZM82.5751 57.4119C74.3882 57.4119 74.3882 44.9742 82.5751 44.9742C90.7604 44.9742 90.7596 57.4119 82.5751 57.4119ZM69.0724 86.542C65.3359 86.542 63.4595 82.0042 66.0985 79.366L74.4161 71.0484C78.2601 67.2067 84.3316 73.0277 80.3638 76.9962L72.0462 85.3138C71.2535 86.1065 70.1969 86.5428 69.0731 86.5428L69.0724 86.542ZM35.6412 80.2013C31.8838 80.2013 30.0407 75.6496 32.6688 73.0238L40.9864 64.7062C44.8273 60.8653 50.9019 66.6847 46.9326 70.654L38.615 78.9715C37.823 79.7651 36.7665 80.2013 35.6412 80.2013ZM71.4453 37.7634C70.9116 37.7634 70.3911 37.4865 70.1049 36.99L67.2176 31.9874C66.2006 30.2231 68.8782 28.6778 69.8961 30.4405L72.7833 35.4431C73.3827 36.4834 72.6194 37.7634 71.4453 37.7634ZM43.265 42.1898C42.0901 42.1898 41.3275 40.9082 41.9269 39.8695L44.8142 34.8684C45.832 33.1034 48.5097 34.6519 47.4926 36.4153L44.6053 41.4164C44.3199 41.9129 43.7986 42.1898 43.265 42.1898ZM87.0912 69.2587C85.9179 69.2587 85.153 67.9779 85.7531 66.9384L88.6404 61.9357C89.6575 60.1731 92.3374 61.7184 91.3188 63.4826L88.4316 68.4852C88.1446 68.9818 87.6249 69.2587 87.0912 69.2587Z" fill="#ADBD30"/>
  </g>
  <defs>
    <clipPath id="clip0_191_501">
      <rect width="132" height="132" fill="white" transform="translate(-5 -5)"/>
    </clipPath>
  </defs>
</svg>