<svg xmlns="http://www.w3.org/2000/svg" width="76" height="76" viewBox="0 0 76 76" fill="none">
  <path d="M9.53172 9.94391L2.84375 21.5278L9.53172 33.1117H16.2197L17.7469 22.4959L16.2197 9.94391H9.53172Z" fill="#AAE8F3"/>
  <path d="M29.5948 21.5278L22.9068 9.94391H16.2189V33.1117H22.9068L29.5948 21.5278Z" fill="#54BBCD"/>
  <path d="M11.2246 21.9124H13.9995V24.6872H11.2246V21.9124Z" fill="#54BBCD"/>
  <path d="M9.94775 15.6262H12.7226V18.401H9.94775V15.6262Z" fill="#54BBCD"/>
  <path d="M16.2189 25.3347H18.9937V28.1096H16.2189V25.3347Z" fill="#1AA5C0"/>
  <path d="M50.5313 70.3905L42.211 62.0702C42.0178 61.8772 41.8645 61.6479 41.7599 61.3956C41.6553 61.1432 41.6015 60.8728 41.6016 60.5996V52.1406C41.6016 50.9909 42.5319 50.0605 43.6816 50.0605C44.8314 50.0605 45.7617 50.9909 45.7617 52.1406V59.7383L53.4726 67.4492C54.285 68.2617 54.285 69.5781 53.4726 70.3905C52.6601 71.203 51.3438 71.2032 50.5313 70.3905ZM45.7617 18.8594V11.2617L53.4726 3.55083C54.285 2.73835 54.285 1.42194 53.4726 0.609463C52.6601 -0.203016 51.3437 -0.203016 50.5312 0.609463L42.2109 8.92978C42.0177 9.12285 41.8644 9.35211 41.7599 9.60445C41.6553 9.85678 41.6015 10.1273 41.6016 10.4004V18.8594C41.6016 20.0091 42.5319 20.9395 43.6816 20.9395C44.8314 20.9395 45.7617 20.0091 45.7617 18.8594ZM62.0702 28.6503L70.3905 20.33C71.203 19.5175 71.203 18.2011 70.3905 17.3886C69.5781 16.5761 68.2617 16.5761 67.4492 17.3886L59.7383 25.0996H52.002C50.8522 25.0996 49.9219 26.03 49.9219 27.1797C49.9219 28.3294 50.8522 29.2598 52.002 29.2598H60.5996C61.1521 29.2598 61.6803 29.0404 62.0702 28.6503ZM70.3905 53.6112C71.203 52.7988 71.203 51.4824 70.3905 50.6699L62.0702 42.3496C61.8772 42.1564 61.6479 42.0031 61.3956 41.8985C61.1432 41.794 60.8727 41.7402 60.5996 41.7402H52.002C50.8522 41.7402 49.9219 42.6706 49.9219 43.8203C49.9219 44.97 50.8522 45.9004 52.002 45.9004H59.7383L67.4492 53.6112C68.2618 54.4239 69.5781 54.4239 70.3905 53.6112ZM71 35.5C71 34.3503 70.0696 33.4199 68.9199 33.4199H52.002C50.8522 33.4199 49.9219 34.3503 49.9219 35.5C49.9219 36.6497 50.8522 37.5801 52.002 37.5801H68.9199C70.0696 37.5801 71 36.6497 71 35.5ZM27.041 0C21.9658 0 17.7223 3.79961 16.8069 8.58365C9.6933 9.49902 4.16016 15.6143 4.16016 23.0195C4.16016 23.7266 4.20176 24.4338 4.32642 25.1412C1.58086 27.8452 0 31.5895 0 35.5C0 39.4105 1.58086 43.1546 4.32642 45.8588C4.20176 46.5659 4.16016 47.2731 4.16016 47.9805C4.16016 55.3854 9.6933 61.501 16.8069 62.4161C17.7223 67.2004 21.9658 71 27.041 71C32.782 71 37.4414 66.202 37.4414 60.4609V54.2207L41.6016 35.5L37.4414 16.7793V10.5391C37.4414 4.79805 32.782 0 27.041 0ZM47.8418 43.8203C47.8418 41.527 45.9771 39.6602 43.6816 39.6602C41.3862 39.6602 39.5215 41.527 39.5215 43.8203C39.5215 46.1137 41.3862 47.9805 43.6816 47.9805C45.9771 47.9805 47.8418 46.1137 47.8418 43.8203ZM47.8418 27.1797C47.8418 24.8863 45.9771 23.0195 43.6816 23.0195C41.3862 23.0195 39.5215 24.8863 39.5215 27.1797C39.5215 29.473 41.3862 31.3398 43.6816 31.3398C45.9771 31.3398 47.8418 29.473 47.8418 27.1797Z" fill="url(#paint0_linear_39_460)"/>
  <path d="M52.002 16.7793H37.4414V33.4199H27.041C25.876 33.4199 24.9609 34.335 24.9609 35.5C24.9609 36.6647 25.876 37.5801 27.041 37.5801H37.4414V54.2207H52.002C53.1669 54.2207 54.082 53.3053 54.082 52.1406V18.8594C54.082 17.6944 53.1669 16.7793 52.002 16.7793ZM43.6816 45.9004C42.5329 45.9004 41.6016 44.9691 41.6016 43.8203C41.6016 42.6713 42.5329 41.7402 43.6816 41.7402C44.8304 41.7402 45.7617 42.6713 45.7617 43.8203C45.7617 44.9691 44.8304 45.9004 43.6816 45.9004ZM43.6816 29.2598C42.5329 29.2598 41.6016 28.3284 41.6016 27.1797C41.6016 26.0307 42.5329 25.0996 43.6816 25.0996C44.8304 25.0996 45.7617 26.0307 45.7617 27.1797C45.7617 28.3284 44.8304 29.2598 43.6816 29.2598ZM14.5605 29.2598C13.4108 29.2598 12.4805 28.3294 12.4805 27.1797C12.4805 26.03 13.4108 25.0996 14.5605 25.0996C18.0016 25.0996 20.8008 22.3004 20.8008 18.8594C20.8008 17.7096 21.7311 16.7793 22.8809 16.7793C24.0306 16.7793 24.9609 17.7096 24.9609 18.8594C24.9609 24.5939 20.297 29.2598 14.5605 29.2598ZM22.8809 54.2207C21.7311 54.2207 20.8008 53.2904 20.8008 52.1406C20.8008 48.6996 18.0016 45.9004 14.5605 45.9004C13.4108 45.9004 12.4805 44.97 12.4805 43.8203C12.4805 42.6706 13.4108 41.7402 14.5605 41.7402C20.297 41.7402 24.9609 46.4061 24.9609 52.1406C24.9609 53.2904 24.0306 54.2207 22.8809 54.2207Z" fill="url(#paint1_linear_39_460)"/>
  <defs>
    <linearGradient id="paint0_linear_39_460" x1="35.5" y1="71" x2="35.5" y2="0" gradientUnits="userSpaceOnUse">
      <stop stop-color="#67D5D6"/>
      <stop offset="1" stop-color="#2699DA"/>
    </linearGradient>
    <linearGradient id="paint1_linear_39_460" x1="33.2812" y1="54.2207" x2="33.2812" y2="16.7793" gradientUnits="userSpaceOnUse">
      <stop stop-color="#ADDCFF"/>
      <stop offset="0.503" stop-color="#EAF6FF"/>
      <stop offset="1" stop-color="#EAF6FF"/>
    </linearGradient>
  </defs>
</svg>