<svg width="86" height="116" viewBox="0 0 86 116" fill="none" xmlns="http://www.w3.org/2000/svg">
<path d="M54.5051 64.7509C53.4827 62.4568 52.5006 59.3937 52.4257 56.0403C52.3986 54.7925 52.516 54.0025 52.6843 53.2366V42.9924H32.5312V52.459C32.83 53.7748 33.1265 54.6125 33.0848 56.519C33.0161 59.5999 32.1644 62.5711 31.2849 64.7316V80.4982H54.5051V64.7509Z" fill="#EBB39E"/>
<path d="M23.4423 27.8753C22.5621 25.8391 22.4076 23.5257 22.2671 21.2741C22.1459 19.3376 22.0339 17.3315 22.4864 15.4336C22.9667 13.4213 24.3789 11.3944 25.6182 9.87948C25.89 9.54746 26.1719 9.2247 26.4638 8.91352C30.6009 4.48755 37.4152 2.16877 40.8821 1.37191C43.6897 0.726395 46.6571 0.399002 49.558 0.622154C51.1749 0.746471 52.8683 0.975028 54.4404 1.41515C55.7322 1.77729 57.0124 2.46296 57.7884 3.66212C58.6239 4.95393 58.8262 6.58626 59.8269 7.76996C60.9187 9.06178 62.409 9.83238 63.5263 11.0941C65.0212 12.7812 66.5083 15.4367 66.7245 17.8172C66.9191 19.9615 66.0697 21.9861 65.0914 23.7736C64.9246 24.0778 63.1865 27.5154 62.7943 27.8745H23.4423V27.8753Z" fill="#784132"/>
<path d="M62.7941 27.8751V37.0792C62.7941 49.1093 53.9846 58.8623 43.1181 58.8623C32.2516 58.8623 23.4421 49.1101 23.4421 37.0792V27.8751C23.4421 27.8751 28.0264 26.2899 30.6594 23.375C30.6594 23.375 41.109 31.6332 57.8747 23.7333C57.8747 23.7333 60.3919 26.3926 62.7941 27.8751Z" fill="#F4BAA6"/>
<path d="M85.7561 115.448H0.243355C0.232545 111.571 0.263431 92.7693 3.4586 81.224C4.24387 78.3879 5.15115 76.2336 6.31633 74.2592C6.96957 73.152 9.83271 68.4928 15.4246 65.3054C20.6212 62.3434 25.4364 62.2121 27.7482 62.321L42.6067 73.1581L58.2513 62.321C60.5631 62.2121 65.3782 62.3434 70.5748 65.3054C76.1667 68.4928 79.0299 73.152 79.6831 74.2592C80.8475 76.2336 81.7556 78.3879 82.5408 81.224C85.736 92.7693 85.7669 111.571 85.7561 115.448Z" fill="#D9EDFF"/>
<path d="M59.2276 62.2961L48.9526 109.278L47.6028 115.448H38.3965L37.1379 109.694L26.7717 62.2961C27.1331 62.2977 27.4589 62.307 27.7477 62.3209L42.6062 73.158L58.2508 62.3209C58.5404 62.3077 58.8662 62.2977 59.2276 62.2961Z" fill="#B3DBFF"/>
<path d="M48.9524 109.278L47.6034 115.448H38.3963L37.1384 109.694L39.6804 82.7568H46.4583L48.9524 109.278Z" fill="#60B8FF"/>
<path d="M48.6243 73.1582H37.4875L39.6812 82.7568H46.4592L48.6243 73.1582Z" fill="#22A7FF"/>
<path d="M33.0841 56.519C33.0748 56.9406 33.0509 57.3606 33.0138 57.7768C29.5399 57.8927 26.4049 59.3482 24.1109 61.643C21.7172 64.0367 20.237 67.343 20.237 70.9945V82.698C20.237 83.4192 19.6347 83.9999 18.9058 83.9651C18.224 83.9327 17.6997 83.3451 17.6997 82.6625V71.3536C17.6997 62.9518 24.1263 56.0511 32.3328 55.3005C32.5791 55.4804 32.83 55.6542 33.0841 55.821C33.0902 56.0379 33.0902 56.2688 33.0841 56.519ZM68.3004 71.7999V93.0982C68.3004 93.7807 67.7761 94.3683 67.0943 94.4008C66.3654 94.4355 65.7631 93.8556 65.7631 93.1337V71.3737C65.7631 63.9888 59.8793 57.9791 52.5438 57.7753C52.4875 57.2819 52.4496 56.7808 52.4319 56.2719C52.9068 55.9888 53.3692 55.6853 53.8179 55.3623C57.5597 55.8326 60.9124 57.5498 63.4482 60.0848C66.4457 63.0823 68.3004 67.2241 68.3004 71.7999Z" fill="#67B2E6"/>
<path d="M26.8891 101.62H22.8847C22.1844 101.62 21.6161 101.051 21.6161 100.351C21.6161 99.6506 22.1844 99.0823 22.8847 99.0823H25.6204V91.0844C25.6204 89.3076 24.9286 87.6375 23.6723 86.3812C22.4152 85.1249 20.7443 84.433 18.9684 84.433C15.3006 84.433 12.317 87.4166 12.317 91.0844V99.0823H15.052C15.7523 99.0823 16.3206 99.6506 16.3206 100.351C16.3206 101.051 15.7523 101.62 15.052 101.62H11.0492C10.3488 101.62 9.78052 101.051 9.78052 100.351V91.0844C9.78052 86.0175 13.9023 81.8958 18.9691 81.8958C21.423 81.8958 23.731 82.8517 25.4668 84.5867C27.2026 86.3225 28.1585 88.6305 28.1585 91.0844V100.351C28.1577 101.051 27.5894 101.62 26.8891 101.62Z" fill="#4A82A8"/>
<path d="M67.0325 101.62C69.7681 101.62 71.9858 99.4019 71.9858 96.6662C71.9858 93.9306 69.7681 91.7129 67.0325 91.7129C64.2968 91.7129 62.0791 93.9306 62.0791 96.6662C62.0791 99.4019 64.2968 101.62 67.0325 101.62Z" fill="#4A82A8"/>
<path d="M42.607 73.158L30.461 79.1615L26.7725 62.2961C27.1338 62.2977 27.4597 62.307 27.7485 62.3209L42.607 73.158Z" fill="#99CEFF"/>
<path d="M59.2273 62.2961L55.5387 79.1615L42.606 73.158L58.2505 62.3209C58.5401 62.3077 58.8659 62.2977 59.2273 62.2961Z" fill="#99CEFF"/>
</svg>
