<svg width="122" height="108" viewBox="0 0 122 108" fill="none" xmlns="http://www.w3.org/2000/svg">
<path d="M49.0064 64.0168L42.9965 58.0068L2.08409 95.7744C-0.619451 98.2702 -0.704279 102.514 1.89751 105.116C4.49931 107.717 8.74286 107.632 11.2386 104.929L49.0064 64.0168Z" fill="#873F30"/>
<path d="M11.0579 105.118C8.54239 107.633 4.43705 107.655 1.89816 105.116C1.17312 104.394 0.631359 103.509 0.318115 102.535C2.56201 103.264 5.1221 102.731 6.89229 100.96C6.95449 100.898 7.01644 100.832 7.07672 100.768L44.8453 59.8552L49.0068 64.0168L11.2385 104.93C11.1783 104.994 11.1182 105.058 11.0579 105.118Z" fill="#6C3328"/>
<path d="M54.9246 43.7666L41.0852 60.2747L46.7387 65.928L63.2468 52.0888L54.9246 43.7666Z" fill="#873F30"/>
<path d="M54.9247 43.7666L50.4528 49.101L51.7946 50.4428C52.7823 51.4304 52.7823 53.0317 51.7946 54.0191L43.3123 62.5015L46.7387 65.928L63.2469 52.0888L54.9247 43.7666Z" fill="#6C3328"/>
<path d="M43.3772 69.1238L37.8893 63.636C36.3028 62.0495 36.3028 59.477 37.8893 57.8905C39.4758 56.3041 42.0483 56.3041 43.6348 57.8905L49.1226 63.3784C50.7091 64.9649 50.7091 67.5371 49.1226 69.1238C47.5361 70.7103 44.9637 70.7103 43.3772 69.1238Z" fill="#BA5D4F"/>
<path d="M49.1212 69.1239C48.7446 69.5014 48.2971 69.8009 47.8044 70.0051C47.3118 70.2093 46.7837 70.3143 46.2504 70.3138C45.7164 70.3147 45.1876 70.21 44.6943 70.0058C44.2009 69.8016 43.7528 69.5018 43.3757 69.1239L39.2161 64.9642C39.5927 65.3421 40.0405 65.6416 40.5336 65.8455C41.0267 66.0494 41.5552 66.1536 42.0888 66.152C42.6223 66.1535 43.1509 66.0492 43.6439 65.8454C44.137 65.6415 44.5848 65.342 44.9615 64.9642C46.5492 63.3765 46.5473 60.8045 44.9615 59.2188L49.1212 63.3784C50.7088 64.9663 50.7091 67.5362 49.1212 69.1239Z" fill="#A34F41"/>
<path d="M62.0952 6.03613L74.2805 18.2214L55.1501 37.3518L42.9648 25.1665L62.0952 6.03613Z" fill="#BA5D4F"/>
<path d="M81.8405 64.06L69.6553 51.8748L88.7857 32.7444L100.971 44.9296L81.8405 64.06Z" fill="#A34F41"/>
<path d="M39.5369 29.3659L39.1137 28.9427C37.5086 27.3376 37.5086 24.7354 39.1137 23.1301L60.0532 2.19061C61.6582 0.585551 64.2605 0.585551 65.8658 2.19061L66.289 2.6138C67.894 4.21886 67.894 6.82113 66.289 8.42643L45.3495 29.3659C43.7445 30.9709 41.1422 30.9709 39.5369 29.3659Z" fill="#873F30"/>
<path d="M77.6478 67.4766L78.071 67.8998C79.6761 69.5049 82.2783 69.5049 83.8836 67.8998L104.823 46.9604C106.428 45.3553 106.428 42.753 104.823 41.1477L104.4 40.7245C102.795 39.1195 100.193 39.1195 98.5873 40.7245L77.6478 61.664C76.0425 63.2693 76.0425 65.8716 77.6478 67.4766Z" fill="#6C3328"/>
<path d="M79.5693 13.7449L93.2531 27.4289L64.3605 56.3214L50.6768 42.6377L79.5693 13.7449Z" fill="#FCC16D"/>
<path d="M57.4255 49.4114L86.3181 20.5188L93.244 27.4447L64.3514 56.3375L57.4255 49.4114Z" fill="#FCA62F"/>
<path d="M79.6356 13.1697L76.283 11.7991C75.7209 11.5693 75.1034 11.5106 74.5081 11.6304C73.9128 11.7503 73.3662 12.0433 72.9368 12.4727L49.3956 36.014C48.9662 36.4434 48.6731 36.99 48.5533 37.5853C48.4335 38.1806 48.4921 38.7981 48.7219 39.3602L50.0925 42.7128C50.6482 44.0722 52.4093 44.4267 53.4478 43.3883L80.3109 16.525C81.3496 15.4865 80.995 13.7254 79.6356 13.1697Z" fill="#873F30"/>
<path d="M93.8437 27.3781L95.2143 30.7307C95.4442 31.2928 95.5029 31.9102 95.383 32.5055C95.2632 33.1009 94.9701 33.6475 94.5407 34.0769L70.9995 57.6181C70.5701 58.0475 70.0234 58.3405 69.4281 58.4604C68.8328 58.5802 68.2154 58.5215 67.6533 58.2917L64.3007 56.9211C62.9413 56.3655 62.5867 54.6043 63.6251 53.5659L90.4885 26.7025C91.5269 25.6641 93.2881 26.0187 93.8437 27.3781Z" fill="#6C3328"/>
<path d="M106.255 93.2631H56.3391V86.2584C56.3391 84.8122 57.5115 83.6399 58.9576 83.6399H103.636C105.082 83.6399 106.255 84.8122 106.255 86.2584V93.2631Z" fill="#BA5D4F"/>
<path d="M106.254 86.2591V93.2634H100.776V86.2591C100.776 84.8137 99.6031 83.6406 98.1577 83.6406H103.636C105.081 83.6406 106.254 84.8137 106.254 86.2591Z" fill="#A34F41"/>
<path d="M117.255 107.012H45.338C43.4304 107.012 42.1632 105.038 42.9574 103.303L45.4998 97.7522C46.5782 95.3975 48.3101 93.4021 50.4896 92.003C52.6691 90.604 55.2045 89.8603 57.7944 89.8604H104.799C107.389 89.8603 109.924 90.604 112.104 92.003C114.283 93.4021 116.015 95.3975 117.094 97.7522L119.636 103.303C120.43 105.038 119.163 107.012 117.255 107.012Z" fill="#873F30"/>
<path d="M117.256 107.013H110.255C112.161 107.013 113.428 105.038 112.635 103.305L110.092 97.7512C107.89 92.9437 103.086 89.8594 97.7988 89.8594H104.798C110.087 89.8594 114.892 92.9439 117.094 97.7512L119.637 103.305C120.43 105.038 119.163 107.013 117.256 107.013Z" fill="#6C3328"/>
<path d="M113.442 79.3043C113.083 79.3042 112.732 79.1974 112.434 78.9976C112.135 78.7978 111.903 78.5139 111.766 78.182C111.629 77.85 111.594 77.4848 111.664 77.1328C111.735 76.7807 111.909 76.4576 112.163 76.2043L114.126 74.2532C114.469 73.923 114.928 73.7408 115.404 73.746C115.88 73.7512 116.335 73.9434 116.671 74.281C117.007 74.6187 117.196 75.0748 117.198 75.5509C117.201 76.027 117.016 76.485 116.684 76.826L114.721 78.777C114.381 79.1153 113.921 79.305 113.442 79.3043ZM107.718 75.2478C107.442 75.248 107.17 75.1853 106.922 75.0644C106.674 74.9435 106.457 74.7676 106.287 74.5502C106.117 74.3327 105.999 74.0793 105.942 73.8094C105.885 73.5395 105.89 73.2601 105.958 72.9925L106.638 70.2785C106.761 69.8183 107.06 69.4248 107.471 69.1832C107.881 68.9415 108.37 68.871 108.832 68.9869C109.294 69.1027 109.692 69.3957 109.94 69.8024C110.188 70.2092 110.266 70.6971 110.157 71.1608L109.476 73.8748C109.378 74.2667 109.151 74.6146 108.833 74.8633C108.515 75.112 108.122 75.2474 107.718 75.2478ZM117.466 85.0517C117.023 85.0506 116.596 84.8874 116.265 84.5931C115.934 84.2987 115.722 83.8935 115.669 83.4537C115.616 83.0139 115.726 82.57 115.978 82.2057C116.23 81.8413 116.606 81.5817 117.037 81.4758L119.755 80.8107C120.729 80.5724 121.71 81.1684 121.948 82.1415C122.186 83.1147 121.59 84.0964 120.617 84.3342L117.898 84.9992C117.757 85.0339 117.612 85.0515 117.466 85.0517Z" fill="#FCC16D"/>
</svg>
