<svg width="122" height="95" viewBox="0 0 122 95" fill="none" xmlns="http://www.w3.org/2000/svg">
<path d="M93.5207 2.69879e-05C84.561 0.0131325 76.5777 4.17186 71.3748 10.6583C70.5332 11.7065 68.9348 11.7065 68.0944 10.6583C62.8915 4.17186 54.9072 0.0131325 45.9473 2.69879e-05C30.3101 -0.0214183 17.497 12.7407 17.4679 28.3779C17.4143 57.8678 57.1458 86.7875 67.3621 93.7368C68.0617 94.2126 68.8882 94.467 69.7342 94.467C70.5803 94.467 71.4067 94.2126 72.1063 93.7368C82.3238 86.7875 122.054 57.8678 122 28.3786C121.971 12.7419 109.158 -0.0214183 93.5207 2.69879e-05Z" fill="#FF592A"/>
<path d="M47.9995 0.0789902C48.7191 0.891529 49.9143 1.00424 50.765 0.414967C49.8491 0.257788 48.9264 0.145661 47.9995 0.0789902ZM95.6121 0.0744629C99.4926 4.92658 101.825 11.0633 101.837 17.723C101.891 46.5858 63.8378 74.8986 52.6396 82.6044C58.9085 87.8251 64.3868 91.7131 67.3618 93.7366C68.0613 94.2124 68.8878 94.4668 69.7339 94.4668C70.5799 94.4668 71.4064 94.2124 72.1059 93.7366C82.3237 86.7874 122.054 57.8677 122 28.3785C121.972 13.4444 110.284 1.13362 95.6121 0.0744629Z" fill="#F63511"/>
<path d="M51.8773 48.5975C51.483 48.5974 51.0992 48.4706 50.7825 48.2358C50.4657 48.001 50.2328 47.6706 50.118 47.2934L44.5296 28.9362H27.7923C26.7758 28.9362 25.952 28.1125 25.952 27.0972C25.952 26.0819 26.7758 25.2579 27.7923 25.2579H45.8933C46.2875 25.2579 46.6712 25.3845 46.9879 25.6191C47.3046 25.8538 47.5375 26.184 47.6523 26.561L51.8782 40.4409L58.0483 20.1703C58.163 19.7932 58.396 19.4629 58.7127 19.2282C59.0295 18.9935 59.4133 18.8669 59.8075 18.8669C60.2019 18.8668 60.5859 18.9933 60.9028 19.228C61.2197 19.4627 61.4528 19.7931 61.5677 20.1703L64.2381 28.9439H80.415C80.6584 28.9411 80.8998 28.9866 81.1255 29.0778C81.3511 29.169 81.5564 29.3041 81.7294 29.4752C81.9025 29.6463 82.0399 29.8501 82.1337 30.0746C82.2274 30.2992 82.2757 30.5401 82.2757 30.7835C82.2757 31.0269 82.2274 31.2678 82.1337 31.4924C82.0399 31.717 81.9025 31.9207 81.7294 32.0918C81.5564 32.2629 81.3511 32.398 81.1255 32.4892C80.8998 32.5804 80.6584 32.6259 80.415 32.6232H62.8754C62.481 32.6232 62.097 32.4965 61.7801 32.2617C61.4632 32.027 61.2301 31.6966 61.1152 31.3193L59.8075 27.0226L53.6374 47.2932C53.5226 47.6705 53.2895 48.001 52.9726 48.2358C52.6557 48.4706 52.2717 48.5976 51.8773 48.5975Z" fill="#FFC5B2"/>
<path d="M14.186 58.6592H66.1259V70.0435H14.186V58.6592Z" fill="#848489"/>
<path d="M55.5483 58.6592V61.5045C55.5483 63.6147 53.8375 65.3253 51.7275 65.3253H14.1863V70.0435H66.1259V58.6592H55.5483Z" fill="#545353"/>
<path d="M69.0158 81.7899H64.8693C63.5532 81.7899 62.4865 80.7224 62.4865 79.4071V49.4766C62.4865 48.1605 63.5532 47.0938 64.8693 47.0938H69.0161C70.3321 47.0938 71.3989 48.1605 71.3989 49.4766V79.4071C71.3989 80.7224 70.3319 81.7899 69.0158 81.7899Z" fill="#848489"/>
<path d="M77.9292 77.3912H73.7814C72.4651 77.3912 71.3986 76.3235 71.3986 75.0084V53.8757C71.3986 52.5594 72.4651 51.4929 73.7814 51.4929H77.9289C79.245 51.4929 80.3117 52.5594 80.3117 53.8757V75.0082C80.3117 76.3235 79.245 77.391 77.9289 77.391L77.9292 77.3912ZM11.295 47.0938H15.443C16.759 47.0938 17.8258 48.1605 17.8258 49.4766V79.4071C17.8258 80.7224 16.759 81.7899 15.443 81.7899H11.295C9.9797 81.7899 8.9122 80.7224 8.9122 79.4071V49.4766C8.9122 48.1605 9.9797 47.0938 11.295 47.0938ZM2.38281 51.4929H6.52938C7.84565 51.4929 8.9122 52.5594 8.9122 53.8757V75.0082C8.9122 76.3235 7.84565 77.391 6.52938 77.391H2.38281C1.06679 77.391 0 76.3235 0 75.0082V53.8757C0 52.5594 1.06679 51.4929 2.38281 51.4929Z" fill="#848489"/>
<path d="M68.8716 47.0938H65.0795C66.4759 47.0938 67.6068 48.2256 67.6068 49.621V79.2629C67.6068 80.658 66.4756 81.7899 65.0795 81.7899H68.8716C70.2679 81.7899 71.3988 80.658 71.3988 79.2629V49.621C71.3988 48.2258 70.2679 47.094 68.8716 47.094V47.0938ZM77.7847 51.4929H73.9927C75.3881 51.4929 76.5199 52.6247 76.5199 54.0199V74.864C76.5199 76.2591 75.3881 77.391 73.9927 77.391H77.7847C79.1801 77.391 80.3119 76.2591 80.3119 74.864V54.0199C80.3119 52.6247 79.1801 51.4929 77.7847 51.4929ZM15.2983 47.0938H11.5065C12.9019 47.0938 14.0337 48.2256 14.0337 49.621V79.2629C14.0337 80.658 12.9019 81.7899 11.5065 81.7899H15.2985C16.6939 81.7899 17.8257 80.658 17.8257 79.2629V49.621C17.8257 48.2258 16.6939 47.094 15.2985 47.094L15.2983 47.0938ZM6.38515 51.4929H2.59314C3.98947 51.4929 5.12011 52.6247 5.12011 54.0199V74.864C5.12011 76.2591 3.98923 77.391 2.59314 77.391H6.38515C7.78148 77.391 8.91212 76.2591 8.91212 74.864V54.0199C8.91212 52.6247 7.78124 51.4929 6.38515 51.4929Z" fill="#545353"/>
</svg>
