<svg width="122" height="122" viewBox="0 0 122 122" fill="none" xmlns="http://www.w3.org/2000/svg">
<path d="M5.71875 32.4062H74.3438C75.3549 32.4062 76.3246 32.8079 77.0396 33.5229C77.7546 34.2379 78.1562 35.2076 78.1562 36.2188V97.2188H5.71875C4.70761 97.2188 3.73789 96.8171 3.02291 96.1021C2.30792 95.3871 1.90625 94.4174 1.90625 93.4062V36.2188C1.90625 35.2076 2.30792 34.2379 3.02291 33.5229C3.73789 32.8079 4.70761 32.4062 5.71875 32.4062Z" fill="#DBE6FD"/>
<path d="M64.8125 91.5C49.6454 91.5 35.0996 85.4749 24.3748 74.7502C13.6501 64.0254 7.625 49.4796 7.625 34.3125V32.4062H5.71875C4.70761 32.4062 3.73789 32.8079 3.02291 33.5229C2.30792 34.2379 1.90625 35.2076 1.90625 36.2188V93.4062C1.90625 94.4174 2.30792 95.3871 3.02291 96.1021C3.73789 96.8171 4.70761 97.2188 5.71875 97.2188H78.1562V91.5H64.8125Z" fill="#BBCFF2"/>
<path d="M95.6938 43.2242L111.376 65.1785C112.099 66.1903 113.059 67.0097 114.171 67.5651L117.984 69.4714C118.618 69.7881 119.152 70.2756 119.525 70.8791C119.898 71.4825 120.095 72.178 120.094 72.8874V93.4063C120.094 94.4174 119.692 95.3871 118.977 96.1021C118.262 96.8171 117.292 97.2188 116.281 97.2188H78.1562V40.0313H89.4832C90.6979 40.0303 91.8952 40.3196 92.9755 40.875C94.0558 41.4304 94.9877 42.2358 95.6938 43.2242Z" fill="#DBE6FD"/>
<path d="M83.875 55.2812V40.0312H78.1562V97.2188H116.281C117.292 97.2188 118.262 96.8171 118.977 96.1021C119.692 95.3871 120.094 94.4174 120.094 93.4062V91.5C110.488 91.5 101.276 87.6841 94.4832 80.8918C87.6909 74.0994 83.875 64.8871 83.875 55.2812Z" fill="#BBCFF2"/>
<path d="M104.844 66.7188H78.1562V45.75H87.6532C88.2544 45.7502 88.8471 45.8926 89.3828 46.1656C89.9185 46.4386 90.3821 46.8344 90.7356 47.3207L104.844 66.7188Z" fill="#A7D0E1"/>
<path d="M83.875 45.75H78.1562V66.7188H104.844L100.684 61H99.125C95.0804 61 91.2016 59.3933 88.3416 56.5334C85.4817 53.6734 83.875 49.7946 83.875 45.75Z" fill="#80BBCE"/>
<path d="M91.5 40.0312H83.875V36.2188C83.875 35.2076 84.2767 34.2379 84.9917 33.5229C85.7066 32.8079 86.6764 32.4062 87.6875 32.4062C88.6986 32.4062 89.6684 32.8079 90.3833 33.5229C91.0983 34.2379 91.5 35.2076 91.5 36.2188V40.0312ZM78.1562 81.9688H1.90625V74.3438H78.1562V81.9688Z" fill="#F96464"/>
<path d="M23.9882 74.3438H1.90625V81.9688H33.205C29.8753 79.7553 26.7863 77.1997 23.9882 74.3438Z" fill="#EA5050"/>
<path d="M120.094 81.9688H78.1562V74.3438H120.094V81.9688Z" fill="#F96464"/>
<path d="M89.3383 74.3438H78.1562V81.9688H95.669C93.2208 79.7278 91.0908 77.1623 89.3383 74.3438Z" fill="#EA5050"/>
<path d="M97.2188 104.844C103.536 104.844 108.656 99.723 108.656 93.4062C108.656 87.0895 103.536 81.9688 97.2188 81.9688C90.902 81.9688 85.7812 87.0895 85.7812 93.4062C85.7812 99.723 90.902 104.844 97.2188 104.844Z" fill="#7A838B"/>
<path d="M102.938 99.1249C101.026 99.1271 99.1447 98.6497 97.4656 97.7364C95.7864 96.8231 94.3633 95.5031 93.3265 93.8973C92.2898 92.2915 91.6725 90.4512 91.5312 88.545C91.3899 86.6388 91.7292 84.7277 92.518 82.9866C90.8284 83.7457 89.3485 84.9039 88.2055 86.3614C87.0624 87.819 86.2905 89.5323 85.9561 91.3542C85.6216 93.176 85.7346 95.0518 86.2854 96.8203C86.8362 98.5888 87.8083 100.197 89.118 101.507C90.4278 102.817 92.0361 103.789 93.8046 104.339C95.5731 104.89 97.4489 105.003 99.2707 104.669C101.093 104.334 102.806 103.562 104.263 102.419C105.721 101.276 106.879 99.7965 107.638 98.1069C106.162 98.7771 104.559 99.1241 102.938 99.1249Z" fill="#5D6972"/>
<path d="M97.2188 97.2188C99.3243 97.2188 101.031 95.5118 101.031 93.4062C101.031 91.3007 99.3243 89.5938 97.2188 89.5938C95.1132 89.5938 93.4062 91.3007 93.4062 93.4062C93.4062 95.5118 95.1132 97.2188 97.2188 97.2188Z" fill="#F96464"/>
<path d="M24.7812 104.844C31.098 104.844 36.2188 99.723 36.2188 93.4062C36.2188 87.0895 31.098 81.9688 24.7812 81.9688C18.4645 81.9688 13.3438 87.0895 13.3438 93.4062C13.3438 99.723 18.4645 104.844 24.7812 104.844Z" fill="#7A838B"/>
<path d="M30.5 99.1249C28.5886 99.1271 26.7072 98.6497 25.0281 97.7364C23.3489 96.8231 21.9258 95.5031 20.889 93.8973C19.8523 92.2915 19.235 90.4512 19.0937 88.545C18.9524 86.6388 19.2917 84.7277 20.0805 82.9866C18.3909 83.7457 16.911 84.9039 15.768 86.3614C14.6249 87.819 13.853 89.5323 13.5186 91.3542C13.1841 93.176 13.2971 95.0518 13.8479 96.8203C14.3987 98.5888 15.3708 100.197 16.6805 101.507C17.9903 102.817 19.5986 103.789 21.3671 104.339C23.1356 104.89 25.0114 105.003 26.8332 104.669C28.6551 104.334 30.3684 103.562 31.826 102.419C33.2835 101.276 34.4417 99.7965 35.2008 98.1069C33.7242 98.7771 32.1216 99.1241 30.5 99.1249Z" fill="#5D6972"/>
<path d="M24.7812 97.2188C26.8868 97.2188 28.5938 95.5118 28.5938 93.4062C28.5938 91.3007 26.8868 89.5938 24.7812 89.5938C22.6757 89.5938 20.9688 91.3007 20.9688 93.4062C20.9688 95.5118 22.6757 97.2188 24.7812 97.2188Z" fill="#F96464"/>
<path d="M40.0312 68.625C48.4536 68.625 55.2812 61.7973 55.2812 53.375C55.2812 44.9527 48.4536 38.125 40.0312 38.125C31.6089 38.125 24.7812 44.9527 24.7812 53.375C24.7812 61.7973 31.6089 68.625 40.0312 68.625Z" fill="#7A838B"/>
<path d="M30.5 49.5625H36.2188V43.8438H43.8438V49.5625H49.5625V57.1875H43.8438V62.9062H36.2188V57.1875H30.5V49.5625ZM87.6875 24.7812C88.1931 24.7812 88.6779 24.5804 89.0354 24.2229C89.3929 23.8654 89.5938 23.3806 89.5938 22.875V19.0625C89.5938 18.5569 89.3929 18.0721 89.0354 17.7146C88.6779 17.3571 88.1931 17.1562 87.6875 17.1562C87.1819 17.1562 86.6971 17.3571 86.3396 17.7146C85.9821 18.0721 85.7812 18.5569 85.7812 19.0625V22.875C85.7812 23.3806 85.9821 23.8654 86.3396 24.2229C86.6971 24.5804 87.1819 24.7812 87.6875 24.7812ZM95.3125 28.5938C95.818 28.5936 96.3028 28.3927 96.6602 28.0352L98.5665 26.129C98.9137 25.7694 99.1059 25.2879 99.1015 24.7881C99.0972 24.2883 98.8967 23.8102 98.5433 23.4568C98.1898 23.1033 97.7117 22.9028 97.2119 22.8985C96.7121 22.8942 96.2306 23.0863 95.871 23.4335L93.9648 25.3398C93.6983 25.6064 93.5168 25.946 93.4433 26.3157C93.3697 26.6854 93.4075 27.0687 93.5517 27.4169C93.696 27.7652 93.9403 28.0629 94.2537 28.2724C94.5671 28.4818 94.9355 28.5937 95.3125 28.5938ZM78.7148 28.0352C79.0743 28.3825 79.5558 28.5746 80.0556 28.5703C80.5555 28.5659 81.0336 28.3654 81.387 28.012C81.7404 27.6586 81.9409 27.1805 81.9453 26.6806C81.9496 26.1808 81.7575 25.6993 81.4102 25.3398L79.504 23.4335C79.1444 23.0863 78.6629 22.8942 78.1631 22.8985C77.6633 22.9028 77.1852 23.1033 76.8317 23.4568C76.4783 23.8102 76.2778 24.2883 76.2735 24.7881C76.2692 25.2879 76.4613 25.7694 76.8085 26.129L78.7148 28.0352Z" fill="#F96464"/>
<path d="M74.3438 38.125H70.5312C70.0257 38.125 69.5408 37.9242 69.1833 37.5667C68.8258 37.2092 68.625 36.7243 68.625 36.2188C68.625 35.7132 68.8258 35.2283 69.1833 34.8708C69.5408 34.5133 70.0257 34.3125 70.5312 34.3125H74.3438C74.8493 34.3125 75.3342 34.5133 75.6917 34.8708C76.0492 35.2283 76.25 35.7132 76.25 36.2188C76.25 36.7243 76.0492 37.2092 75.6917 37.5667C75.3342 37.9242 74.8493 38.125 74.3438 38.125Z" fill="white"/>
</svg>
