<svg width="122" height="122" viewBox="0 0 122 122" fill="none" xmlns="http://www.w3.org/2000/svg">
<g clip-path="url(#clip0_191_384)">
<path d="M70.5647 47.2725C69.5973 49.4694 68.4083 51.5401 67.0095 53.4463C65.4972 55.5075 64.6239 57.9217 64.3944 60.3994L65.5884 62.7822H92.9665L95.1139 60.3994C88.8456 53.4709 80.253 48.6843 70.5647 47.2725Z" fill="#FDE9E2"/>
<path d="M64.3943 60.3994C64.1084 63.4847 64.8218 66.6686 66.5543 69.3921C68.0031 71.6701 69.185 74.0768 70.1 76.5573C81.7043 77.3126 90.8852 86.9654 90.8852 98.7603V119.617C90.8852 120.933 91.952 122 93.268 122H103.362C104.678 122 105.744 120.933 105.744 119.617V88.0043C105.744 77.3829 101.72 67.7015 95.1138 60.3994H64.3943Z" fill="#FCD9CA"/>
<path d="M66.4265 56.9495C66.8196 55.9549 67.3383 55.0147 67.9699 54.1518C71.83 48.8929 74.1461 42.4403 74.668 35.4896C76.0452 17.1848 64.7173 0 43.8439 0C13.9136 0 0.0387471 30.1271 0.00109863 60.3995L2.9596 62.7823H60.155L63.494 60.3995L66.4265 56.9495Z" fill="#FF8381"/>
<path d="M65.7356 64.0978L63.4317 60.4726L63.4939 60.3994H0.000953125C0.000714844 60.4406 0 60.4821 0 60.5233C0 91.1377 14.0848 121.047 43.8438 121.047C70.3382 121.047 81.5446 90.7326 67.5599 68.7512C66.6569 67.3325 66.0374 65.7522 65.7356 64.0978Z" fill="#FF5955"/>
<path d="M78.8711 67.5479C80.8451 67.5479 82.4453 65.9476 82.4453 63.9736C82.4453 61.9996 80.8451 60.3994 78.8711 60.3994C76.8971 60.3994 75.2969 61.9996 75.2969 63.9736C75.2969 65.9476 76.8971 67.5479 78.8711 67.5479Z" fill="#FF2B26"/>
<path d="M121.95 52.3501C121.623 50.4036 119.78 49.0904 117.833 49.4176L114.105 50.044L114.974 46.349C115.557 43.868 113.422 41.5822 110.902 42.0061L101.871 43.523C99.9246 43.8501 98.6117 45.6933 98.9386 47.64C99.2658 49.5868 101.11 50.8995 103.056 50.5728L106.785 49.9463L105.916 53.6418C105.333 56.1223 107.468 58.4089 109.988 57.9845L119.018 56.4671C120.964 56.14 122.277 54.2969 121.95 52.3501ZM104.873 32.3907C106.154 30.8888 105.975 28.6328 104.473 27.352C102.972 26.071 100.715 26.2502 99.4345 27.7521L96.9812 30.6284L95.2715 27.2396C94.1235 24.9642 91.0198 24.5856 89.3612 26.5297L83.4184 33.4963C82.1374 34.9982 82.3164 37.2543 83.818 38.5353C85.3199 39.8165 87.576 39.6373 88.857 38.1357L91.3108 35.2589L93.0207 38.6482C94.1678 40.9221 97.2721 41.3029 98.9313 39.3578L104.873 32.3907Z" fill="#FF8381"/>
<path d="M66.4257 56.9493H61.9793C55.5267 56.9493 50.2773 51.6999 50.2773 45.2473V41.9638C56.4369 40.3768 61 34.7772 61 28.1292C61 26.1562 59.3987 24.5549 57.4258 24.5549C55.4528 24.5549 53.8516 26.1562 53.8516 28.1292C53.8516 32.0632 50.6491 35.2657 46.6912 35.2657C42.7572 35.2657 39.5547 32.0632 39.5547 28.1292C39.5547 26.1562 37.9534 24.5549 35.9805 24.5549C34.0075 24.5549 32.4062 26.1562 32.4062 28.1292C32.4062 34.77 36.9622 40.3697 43.1289 41.9614V45.2473C43.1289 49.6674 44.6611 53.7325 47.2178 56.9493H35.6707C34.1219 50.7325 28.496 46.1122 21.8075 46.1122C19.8345 46.1122 18.2333 47.7135 18.2333 49.6865C18.2333 51.6618 19.8345 53.2607 21.8075 53.2607C25.7439 53.2607 28.9464 56.4632 28.9464 60.3996L32.5123 62.7824H63.4939L65.5883 60.3996C65.7071 59.2164 65.9889 58.0553 66.4257 56.9493Z" fill="#FF5955"/>
<path d="M65.5883 60.3994H28.9464V60.4232C28.9464 64.3573 25.7439 67.5598 21.8075 67.5598C19.8345 67.5598 18.2333 69.1586 18.2333 71.134C18.2333 73.107 19.8345 74.7082 21.8075 74.7082C28.415 74.7082 33.986 70.1975 35.6111 64.0975H47.2178C44.6611 67.3143 43.1289 71.3794 43.1289 75.7995V79.0831C36.9693 80.67 32.4062 86.2696 32.4062 92.9177C32.4062 94.8906 34.0075 96.4919 35.9805 96.4919C37.9534 96.4919 39.5547 94.8906 39.5547 92.9177C39.5547 88.9836 42.7572 85.7811 46.715 85.7811C50.6491 85.7811 53.8516 88.9836 53.8516 92.9177C53.8516 94.8906 55.4528 96.4919 57.4258 96.4919C59.3987 96.4919 61 94.8906 61 92.9177C61 86.2768 56.4441 80.6772 50.2773 79.0854V75.7995C50.2773 69.3469 55.5267 64.0975 61.9793 64.0975H65.737C65.5131 62.878 65.4631 61.633 65.5883 60.3994Z" fill="#FF2B26"/>
</g>
<defs>
<clipPath id="clip0_191_384">
<rect width="122" height="122" fill="white"/>
</clipPath>
</defs>
</svg>
