<svg width="122" height="102" viewBox="0 0 122 102" fill="none" xmlns="http://www.w3.org/2000/svg">
<path d="M66.0706 73.8935L52.1753 99.3143C51.7589 100.076 51.145 100.712 50.3983 101.155C49.6515 101.598 48.7992 101.831 47.931 101.831C44.7406 101.831 42.4241 98.7968 43.265 95.7194L49.9723 71.1729L66.0706 73.8935Z" fill="#F37C7C"/>
<path d="M50.5221 73.3035C51.8462 82.1196 45.0543 89.7006 36.4916 89.7006H33.9873C23.0318 89.7006 13.7646 80.4145 15.5791 69.6699L50.5221 73.3035Z" fill="#E94444"/>
<path d="M36.4916 84.7101H33.9873C32.4615 84.7087 30.9459 84.4614 29.4988 83.9776C29.0563 83.8222 28.6927 83.4992 28.4862 83.0782C28.2797 82.6572 28.247 82.1719 28.395 81.727C28.543 81.282 28.8599 80.9131 29.2775 80.6997C29.695 80.4863 30.1797 80.4455 30.627 80.5861C31.7103 80.9488 32.8449 81.1345 33.9873 81.1361H36.4916C38.328 81.1361 40.0553 80.2325 41.1121 78.719C42.1873 77.1792 42.4112 75.226 41.7267 73.361C41.5664 72.9167 41.5884 72.4271 41.788 71.9991C41.9876 71.5711 42.3485 71.2395 42.7918 71.0767C43.2352 70.914 43.7249 70.9334 44.154 71.1306C44.5831 71.3278 44.9167 71.6869 45.0819 72.1293C46.1746 75.1064 45.796 78.2541 44.0427 80.7651C42.3181 83.2353 39.4952 84.7101 36.4916 84.7101Z" fill="#D83131"/>
<path d="M80.5893 75.5044H22.6196C16.3668 75.5044 10.7065 72.9672 6.61207 68.8661C3.60114 65.8502 3.59519 60.9676 6.60873 57.9543L8.61101 55.952L8.23309 56.3299C5.21717 59.3459 0.0183477 57.2497 0.000238281 52.9847L0 52.8849C0 38.4279 5.81954 25.3303 15.2436 15.8066C17.131 13.8994 20.2029 13.8737 22.1003 15.7709L22.7575 16.4281C20.6061 14.2766 20.9597 10.6941 23.4905 9.00513L23.4902 9.00489C31.8549 3.42339 41.9053 0.168945 52.7162 0.168945H56.1779C58.8412 0.168945 61.0002 2.32801 61.0002 4.99104C61.0002 2.32777 63.1593 0.168945 65.8223 0.168945H76.5924C84.6163 0.168945 92.2973 2.20005 99.0483 5.856C101.87 7.38434 102.399 11.2183 100.13 13.4882L101.329 12.2889C103.136 10.4813 106.039 10.3998 107.95 12.0985C113.539 17.0688 117.939 23.4166 120.732 30.6966C125.527 43.4113 116.131 56.9969 102.542 56.9969H97.604C97.4492 56.9969 97.3296 57.1294 97.3427 57.2838C97.3832 57.7591 97.4039 58.2402 97.4039 58.7261C97.4039 68.0043 89.8723 75.5237 80.5893 75.5044Z" fill="#F9B1B1"/>
<path d="M90.3105 8.57853L91.5098 7.37926C93.3174 5.57166 96.2204 5.49017 98.1304 7.18887C99.3178 8.24519 100.45 9.36174 101.523 10.5341C101.697 8.70482 100.83 6.82073 99.048 5.85569C96.4291 4.43716 93.6815 3.27001 90.8424 2.36987C92.1446 4.20416 92.0416 6.8467 90.3105 8.57853ZM120.732 30.6965C117.939 23.4161 113.538 17.0685 107.949 12.0979C106.376 10.6992 104.13 10.5079 102.377 11.4932C105.972 15.644 108.872 20.4664 110.913 25.787C115.708 38.5017 106.312 52.0872 92.7231 52.0872H89.2747C88.8266 52.0872 88.3968 52.2653 88.0799 52.5821C87.7631 52.899 87.5851 53.3288 87.5851 53.7769V53.8165C87.5851 63.0949 80.0537 70.6143 70.7705 70.595H12.8007C11.1539 70.596 9.51183 70.4178 7.90356 70.0634C11.8593 73.4554 17.0002 75.5046 22.6196 75.5046H80.5894C89.8723 75.5239 97.4039 68.0044 97.4039 58.726C97.4039 58.2402 97.3832 57.7591 97.3427 57.2837C97.3393 57.2473 97.3436 57.2107 97.3552 57.176C97.3668 57.1414 97.3855 57.1096 97.4101 57.0826C97.4347 57.0556 97.4647 57.034 97.498 57.0193C97.5314 57.0045 97.5676 56.9968 97.6041 56.9968H102.542C116.131 56.9966 125.527 43.411 120.732 30.6965Z" fill="#F79595"/>
<path d="M18.1906 14.3883L28.6399 24.8376C28.9751 25.1727 29.4296 25.361 29.9035 25.361C30.3775 25.361 30.832 25.1727 31.1671 24.8376C31.5022 24.5025 31.6905 24.048 31.6905 23.574C31.6905 23.1001 31.5022 22.6456 31.1671 22.3104L21.3711 12.5142C21.2263 13.8986 21.6742 15.3447 22.7575 16.428L22.1003 15.7708C21.0297 14.7002 19.5852 14.242 18.1906 14.3883ZM69.3779 66.463C69.8519 66.463 70.3064 66.2747 70.6416 65.9395C70.9767 65.6044 71.165 65.1498 71.165 64.6759C71.165 64.2019 70.9767 63.7473 70.6416 63.4122C70.3064 63.077 69.8519 62.8888 69.3779 62.8888H46.48C39.6078 62.8888 33.1468 65.5649 28.2875 70.4244L23.2076 75.5043H28.2622L30.8147 72.9516C34.9989 68.7674 40.5623 66.463 46.4798 66.463H69.3779ZM50.4436 12.0217L49.7878 8.6457C49.6933 8.18453 49.4206 7.7793 49.029 7.51803C48.6374 7.25676 48.1585 7.16056 47.6964 7.25032C47.2343 7.34009 46.8262 7.60857 46.5609 7.99744C46.2956 8.38631 46.1944 8.86416 46.2794 9.32718L46.9351 12.7032C47.2952 14.556 46.2448 16.4068 44.4923 17.0082C43.0545 17.502 41.6537 18.0975 40.3004 18.7903L36.6714 11.3905C36.4625 10.9653 36.0933 10.6405 35.645 10.4874C35.1968 10.3343 34.706 10.3655 34.2807 10.574C33.8554 10.7826 33.5302 11.1515 33.3768 11.5996C33.2233 12.0478 33.2541 12.5386 33.4623 12.9641L40.5954 27.51C40.6987 27.7207 40.8425 27.909 41.0186 28.0642C41.1947 28.2193 41.3997 28.3382 41.6218 28.4142C41.8438 28.4901 42.0787 28.5215 42.3129 28.5066C42.5471 28.4918 42.7761 28.4309 42.9868 28.3275C43.4124 28.1188 43.7376 27.7496 43.891 27.3012C44.0444 26.8527 44.0133 26.3617 43.8046 25.9361L41.8743 21.9995C43.0933 21.3722 44.3559 20.8338 45.6525 20.3884C49.0818 19.212 51.1415 15.6147 50.4436 12.0217ZM16.8521 47.95C13.8841 44.9819 13.3716 40.2611 15.6329 36.7252L17.0692 34.4792C17.3203 34.08 17.4035 33.5977 17.3005 33.1374C17.1975 32.6772 16.9167 32.2763 16.5194 32.0221C16.1221 31.768 15.6404 31.6813 15.1794 31.7808C14.7184 31.8803 14.3154 32.158 14.0583 32.5534L12.6219 34.7995C9.46328 39.7383 10.1796 46.3318 14.3249 50.4774L17.6425 53.795C17.9914 54.1438 18.4489 54.3185 18.9061 54.3185C19.3634 54.3185 19.8209 54.1441 20.1697 53.795C20.5048 53.4599 20.6931 53.0053 20.6931 52.5314C20.6931 52.0574 20.5048 51.6029 20.1697 51.2678L16.8521 47.95ZM100.905 56.9965C100.567 53.372 99.1847 49.9158 96.8572 47.0435C94.0574 43.5889 90.1887 41.2976 85.9149 40.4867L88.3196 33.2723C88.4695 32.8226 88.4346 32.3318 88.2226 31.9079C88.0106 31.484 87.6389 31.1616 87.1892 31.0117C86.7395 30.8619 86.2487 30.8968 85.8248 31.1088C85.4008 31.3207 85.0785 31.6925 84.9286 32.1421L82.2561 40.1596H72.0102L74.795 29.7815C74.8558 29.5548 74.8714 29.3184 74.8409 29.0857C74.8103 28.853 74.7342 28.6286 74.617 28.4253C74.4997 28.222 74.3435 28.0438 74.1574 27.9008C73.9712 27.7579 73.7588 27.653 73.5321 27.5922C73.3054 27.5313 73.069 27.5157 72.8363 27.5463C72.6036 27.5768 72.3792 27.6529 72.1759 27.7702C71.9726 27.8874 71.7944 28.0436 71.6514 28.2298C71.5085 28.4159 71.4036 28.6284 71.3428 28.855L68.3092 40.1593H57.4958L54.4622 28.855C54.3343 28.403 54.0335 28.0194 53.625 27.7874C53.2164 27.5554 52.7329 27.4936 52.2791 27.6154C51.8253 27.7372 51.4377 28.0327 51.2002 28.4381C50.9627 28.8435 50.8944 29.3261 51.01 29.7815L53.7948 40.1596H44.8087C44.3348 40.1596 43.8802 40.3479 43.545 40.683C43.2099 41.0182 43.0216 41.4727 43.0216 41.9467C43.0216 42.4207 43.2099 42.8752 43.545 43.2104C43.8802 43.5455 44.3348 43.7338 44.8087 43.7338H82.4259C86.9683 43.7338 91.2159 45.7604 94.0796 49.2939C95.9853 51.6452 97.105 54.4867 97.3567 57.4676C97.3521 57.4061 97.3472 57.3446 97.3419 57.2832C97.3385 57.2468 97.3428 57.2102 97.3544 57.1755C97.366 57.1409 97.3847 57.1091 97.4093 57.0821C97.4339 57.0551 97.4639 57.0335 97.4973 57.0188C97.5306 57.004 97.5668 56.9963 97.6033 56.9963L100.905 56.9965Z" fill="#F79595"/>
<path d="M85.6285 56.1681C84.8043 55.3426 83.8841 54.6188 82.8875 54.0124L85.985 50.915C86.3201 50.5798 86.5083 50.1253 86.5083 49.6514C86.5083 49.1774 86.3201 48.7229 85.985 48.3878C85.6498 48.0527 85.1953 47.8644 84.7214 47.8644C84.2474 47.8644 83.7929 48.0527 83.4577 48.3878L79.3693 52.4762C78.0717 52.1079 76.7291 51.9218 75.3803 51.9231H43.9753C38.922 51.9231 34.1712 49.9554 30.5982 46.3822L24.8994 40.6834C24.5643 40.3483 24.1098 40.1601 23.6358 40.1601C23.1619 40.1601 22.7074 40.3483 22.3722 40.6834C22.0371 41.0186 21.8489 41.4731 21.8489 41.947C21.8489 42.421 22.0371 42.8755 22.3722 43.2106L28.0709 48.9094C32.3193 53.1577 37.9675 55.4971 43.9755 55.4971H75.3805C76.661 55.4971 77.9077 55.7161 79.0781 56.1362C79.1715 56.1808 79.2681 56.217 79.3665 56.2444C80.7499 56.786 82.0195 57.6131 83.1018 58.6951L83.7272 59.3206C84.0761 59.6694 84.5336 59.8441 84.9909 59.8441C85.4481 59.8441 85.9056 59.6697 86.2545 59.3206C86.5896 58.9855 86.7778 58.5309 86.7778 58.057C86.7778 57.583 86.5896 57.1285 86.2545 56.7934L85.6285 56.1681ZM97.2614 60.9223C97.2098 61.2916 97.1454 61.6589 97.0684 62.0237C97.0538 62.093 97.0432 62.1632 97.0367 62.2338C97.1282 61.8025 97.2035 61.365 97.2614 60.9223ZM29.2376 31.4441C28.9025 31.7792 28.7142 32.2337 28.7142 32.7077C28.7142 33.1816 28.9025 33.6361 29.2376 33.9713L36.015 40.7487C36.3639 41.0976 36.8214 41.2722 37.2786 41.2722C37.7359 41.2722 38.1934 41.0978 38.5422 40.7487C38.8773 40.4136 39.0656 39.959 39.0656 39.4851C39.0656 39.0112 38.8773 38.5566 38.5422 38.2215L31.7648 31.4441C31.4296 31.109 30.9751 30.9207 30.5012 30.9207C30.0272 30.9207 29.5727 31.109 29.2376 31.4441ZM104.018 48.963C102.362 44.9963 99.8231 41.6995 96.7071 39.1379C95.9718 38.5336 95.5408 37.6704 95.4938 36.707C95.4706 36.2222 95.5488 35.738 95.7235 35.2852C95.8981 34.8324 96.1654 34.4211 96.5082 34.0776L99.7052 30.8805C100.04 30.5454 100.229 30.0909 100.229 29.6169C100.229 29.143 100.04 28.6885 99.7052 28.3533C99.3701 28.0182 98.9155 27.83 98.4416 27.83C97.9677 27.83 97.5131 28.0182 97.178 28.3533L93.981 31.5503C93.2857 32.2467 92.7437 33.0806 92.3894 33.9986C92.0352 34.9166 91.8766 35.8985 91.9239 36.8814C92.0192 38.836 92.9356 40.6648 94.4378 41.8994C97.2011 44.1707 99.3392 47.0331 100.72 50.34C100.855 50.6655 101.085 50.9436 101.378 51.1392C101.672 51.3348 102.017 51.4392 102.369 51.4392C102.664 51.4391 102.953 51.3663 103.213 51.2273C103.472 51.0883 103.693 50.8874 103.857 50.6424C104.02 50.3974 104.12 50.1159 104.148 49.8229C104.176 49.53 104.132 49.2346 104.018 48.963ZM12.2939 65.3315C11.9588 65.6666 11.7705 66.1211 11.7705 66.5951C11.7705 67.069 11.9588 67.5235 12.2939 67.8587C12.629 68.1938 13.0835 68.382 13.5575 68.382C14.0314 68.382 14.4859 68.1938 14.8211 67.8587L16.8446 65.8352C19.5726 63.1071 23.2 61.6048 27.058 61.6048H30.5012C30.9751 61.6048 31.4297 61.4165 31.7649 61.0813C32.1 60.7462 32.2883 60.2916 32.2883 59.8176C32.2883 59.3437 32.1 58.8891 31.7649 58.554C31.4297 58.2188 30.9751 58.0305 30.5012 58.0305H27.058C22.2452 58.0305 17.7202 59.9049 14.3171 63.308L12.2939 65.3315ZM92.863 20.7545C93.2118 21.1034 93.6693 21.278 94.1266 21.278C94.5838 21.278 95.0413 21.1036 95.3902 20.7545L105.242 10.9028C103.842 10.757 102.395 11.2226 101.329 12.2886L100.129 13.4879C101.217 12.3994 101.662 10.9516 101.519 9.5708L92.863 18.2273C92.5278 18.5625 92.3396 19.017 92.3396 19.4909C92.3396 19.9649 92.5278 20.4194 92.863 20.7545ZM122 37.6623L108.092 40.4437C107.862 40.4897 107.643 40.5806 107.448 40.7112C107.253 40.8418 107.086 41.0096 106.955 41.2048C106.825 41.4001 106.735 41.6191 106.689 41.8493C106.644 42.0796 106.644 42.3165 106.69 42.5467C106.736 42.7768 106.827 42.9956 106.958 43.1906C107.088 43.3856 107.256 43.553 107.451 43.6832C107.646 43.8133 107.865 43.9038 108.096 43.9493C108.326 43.9949 108.563 43.9946 108.793 43.9486L121.617 41.3837C121.866 40.1587 121.994 38.9123 122 37.6623Z" fill="#F79595"/>
<path d="M109.706 25.6084C110.041 25.2732 110.229 24.8187 110.229 24.3448C110.229 23.8708 110.041 23.4163 109.706 23.0812C109.54 22.9152 109.343 22.7835 109.126 22.6937C108.91 22.6039 108.677 22.5576 108.443 22.5576C108.208 22.5576 107.975 22.6039 107.759 22.6937C107.542 22.7835 107.345 22.9152 107.179 23.0812L105.281 24.9798C103.722 26.5382 103.286 28.9176 104.195 30.9011C104.511 31.5909 104.805 32.2906 105.077 32.9989C105.209 33.3492 105.327 33.7048 105.429 34.0648L102.747 34.6014C102.517 34.6474 102.298 34.7383 102.103 34.8689C101.908 34.9995 101.74 35.1672 101.61 35.3625C101.48 35.5578 101.39 35.7768 101.344 36.007C101.298 36.2372 101.299 36.4742 101.345 36.7043C101.391 36.9344 101.482 37.1533 101.612 37.3483C101.743 37.5433 101.911 37.7106 102.106 37.8408C102.301 37.971 102.52 38.0614 102.75 38.107C102.981 38.1525 103.218 38.1523 103.448 38.1062L107.914 37.2132H107.914L115.571 35.6817C116.035 35.5888 116.444 35.315 116.707 34.9207C116.97 34.5263 117.066 34.0437 116.973 33.5789C116.88 33.1141 116.606 32.7053 116.212 32.4424C115.817 32.1794 115.335 32.0839 114.87 32.1768L108.943 33.3621C108.796 32.809 108.62 32.2637 108.418 31.7282C108.118 30.9459 107.793 30.1734 107.444 29.4118C107.155 28.7797 107.301 28.0143 107.808 27.507L109.706 25.6084ZM62.7871 1.24365C61.697 2.12768 61 3.47801 61 4.9911C61 3.47801 60.303 2.12791 59.2129 1.24365V12.3752C59.2129 12.8492 59.4012 13.3037 59.7363 13.6389C60.0715 13.974 60.526 14.1623 61 14.1623C61.474 14.1623 61.9285 13.974 62.2637 13.6389C62.5988 13.3037 62.7871 12.8492 62.7871 12.3752V1.24365ZM61 17.3658C60.526 17.3658 60.0715 17.554 59.7363 17.8892C59.4012 18.2243 59.2129 18.6789 59.2129 19.1529V29.3191C59.2129 29.7931 59.4012 30.2477 59.7363 30.5828C60.0715 30.918 60.526 31.1062 61 31.1062C61.474 31.1062 61.9285 30.918 62.2637 30.5828C62.5988 30.2477 62.7871 29.7931 62.7871 29.3191V19.1529C62.7871 18.6789 62.5988 18.2243 62.2637 17.8892C61.9285 17.554 61.474 17.3658 61 17.3658ZM76.2014 7.74301C76.2861 7.27666 76.1821 6.79575 75.9122 6.40608C75.6424 6.01642 75.2288 5.74991 74.7624 5.6652C74.2961 5.58048 73.8151 5.6845 73.4255 5.95436C73.0358 6.22422 72.7693 6.63782 72.6846 7.10418L72.1282 10.1661C71.4489 13.9047 73.6763 17.5152 77.3092 18.5643C78.6209 18.9437 79.9007 19.4261 81.1364 20.0071L79.8955 22.6454C79.7942 22.8579 79.7359 23.0883 79.724 23.3235C79.7121 23.5586 79.7467 23.7938 79.8259 24.0155C79.9052 24.2371 80.0274 24.441 80.1857 24.6153C80.3439 24.7896 80.5351 24.9309 80.7481 25.0311C80.9611 25.1314 81.1919 25.1885 81.427 25.1993C81.6622 25.21 81.8972 25.1742 82.1185 25.0939C82.3398 25.0136 82.5431 24.8903 82.7166 24.7312C82.8901 24.5721 83.0305 24.3803 83.1297 24.1668L89.503 10.6172C89.6042 10.4046 89.6625 10.1742 89.6744 9.93905C89.6864 9.70393 89.6517 9.46876 89.5725 9.24707C89.4933 9.02537 89.371 8.82152 89.2127 8.64721C89.0545 8.47291 88.8634 8.33159 88.6503 8.23138C88.4373 8.13116 88.2066 8.07403 87.9714 8.06325C87.7362 8.05248 87.5012 8.08828 87.2799 8.1686C87.0586 8.24892 86.8554 8.37217 86.6818 8.53128C86.5083 8.69039 86.3679 8.88221 86.2688 9.09573L82.6576 16.7729C81.251 16.1113 79.7942 15.5621 78.3009 15.1304C76.4366 14.5922 75.2947 12.7326 75.645 10.8052L76.2014 7.74301Z" fill="#F79595"/>
<path d="M110.203 24.0371C110.154 23.7536 110.037 23.4863 109.861 23.2582C109.978 23.5164 110.091 23.7762 110.203 24.0371ZM102.377 11.493C102.729 11.8999 103.075 12.3128 103.413 12.7316L105.242 10.9026C104.249 10.7986 103.248 11.0049 102.377 11.493ZM101.524 10.5342C101.554 10.2137 101.552 9.89099 101.519 9.5708L101.057 10.0326C101.214 10.1987 101.369 10.3657 101.524 10.5342ZM116.973 33.5786C116.88 33.1138 116.606 32.7051 116.211 32.4421C115.817 32.1792 115.334 32.0837 114.87 32.1765L112.181 32.7143C112.178 33.9635 112.052 35.2094 111.807 36.4342L115.57 35.6814C115.801 35.6354 116.019 35.5445 116.214 35.4139C116.409 35.2834 116.577 35.1156 116.707 34.9204C116.837 34.7251 116.928 34.5061 116.973 34.2759C117.019 34.0457 117.019 33.8087 116.973 33.5786ZM122 37.6623L110.762 39.9097C110.177 41.3511 109.424 42.718 108.517 43.9819C108.61 43.9781 108.702 43.9669 108.793 43.9486L121.617 41.3837C121.866 40.1587 121.994 38.9123 122 37.6623ZM97.2614 60.9226C97.21 61.2917 97.1456 61.659 97.0684 62.0237C97.0538 62.093 97.0432 62.1632 97.0367 62.2338C97.1282 61.8025 97.2035 61.3653 97.2614 60.9226ZM104.018 48.963C103.967 48.84 103.914 48.7176 103.862 48.5958C102.878 49.2867 101.832 49.8837 100.737 50.3788C100.877 50.6945 101.106 50.9625 101.396 51.1507C101.686 51.3388 102.024 51.4389 102.369 51.439C102.599 51.439 102.832 51.3944 103.057 51.3005C103.274 51.2101 103.47 51.078 103.636 50.9116C103.801 50.7452 103.933 50.5478 104.022 50.3308C104.111 50.1137 104.157 49.8812 104.156 49.6465C104.155 49.4118 104.108 49.1796 104.018 48.963ZM30.815 72.9517C31.6737 72.0923 32.6008 71.3041 33.5872 70.5949H28.1172L23.2079 75.5044H28.2625L30.815 72.9517ZM100.905 56.9966C100.712 54.9085 100.166 52.8682 99.2918 50.9622C98.143 51.3719 96.9579 51.6715 95.7524 51.8569C96.6488 53.5999 97.1916 55.5038 97.3572 57.4682C97.3526 57.4067 97.3477 57.3452 97.3424 57.2838C97.3391 57.2474 97.3434 57.2107 97.355 57.1761C97.3666 57.1415 97.3853 57.1097 97.4099 57.0827C97.4345 57.0557 97.4644 57.0341 97.4978 57.0193C97.5312 57.0046 97.5673 56.9969 97.6038 56.9969H100.905V56.9966Z" fill="#F37C7C"/>
</svg>
