<svg width="118" height="118" viewBox="0 0 118 118" fill="none" xmlns="http://www.w3.org/2000/svg">
<path d="M69.1594 30.3865C69.1316 29.998 68.993 29.6256 68.7601 29.3134L56.5601 13.0467C56.3707 12.7942 56.1251 12.5892 55.8427 12.4481C55.5604 12.3069 55.2491 12.2334 54.9334 12.2334C54.6177 12.2334 54.3064 12.3069 54.0241 12.4481C53.7417 12.5892 53.4961 12.7942 53.3067 13.0467L41.1067 29.3134C40.8449 29.6665 40.7024 30.0938 40.7001 30.5334V83.4001C40.7001 83.9393 40.9143 84.4565 41.2956 84.8379C41.6769 85.2192 42.1941 85.4334 42.7334 85.4334H67.1334C67.6727 85.4334 68.1899 85.2192 68.5712 84.8379C68.9525 84.4565 69.1667 83.9393 69.1667 83.4001V30.5334C69.1667 30.4838 69.1629 30.4353 69.1594 30.3865Z" fill="#E8E6E3"/>
<path d="M56.7158 15.2448C56.8783 14.9442 56.9645 14.6083 56.9666 14.2665V2.06654C56.9666 1.52726 56.7524 1.01008 56.3711 0.628753C55.9898 0.247429 55.4726 0.0332031 54.9333 0.0332031H18.3333C17.794 0.0332031 17.2769 0.247429 16.8955 0.628753C16.5142 1.01008 16.3 1.52726 16.3 2.06654V14.2665L4.50664 29.3132C4.24476 29.6663 4.1023 30.0936 4.09998 30.5332V83.3999C4.09998 83.9392 4.3142 84.4563 4.69553 84.8377C5.07685 85.219 5.59404 85.4332 6.13331 85.4332H42.7333C43.2726 85.4332 43.7898 85.219 44.1711 84.8377C44.5524 84.4563 44.7666 83.9392 44.7666 83.3999V30.5332L56.56 15.4865C56.6136 15.4072 56.6695 15.3295 56.7158 15.2448Z" fill="url(#paint0_linear_191_349)"/>
<path d="M14.2666 83.3999V30.5332C14.269 30.0936 14.4114 29.6663 14.6733 29.3132L26.4666 14.2665V2.06654C26.4666 1.52726 26.6809 1.01008 27.0622 0.628753C27.4435 0.247429 27.9607 0.0332031 28.5 0.0332031H18.3333C17.794 0.0332031 17.2769 0.247429 16.8955 0.628753C16.5142 1.01008 16.3 1.52726 16.3 2.06654V14.2665L4.50664 29.3132C4.24476 29.6663 4.1023 30.0936 4.09998 30.5332V83.3999C4.09998 83.9392 4.3142 84.4563 4.69553 84.8377C5.07685 85.219 5.59404 85.4332 6.13331 85.4332H16.3C15.7607 85.4332 15.2435 85.219 14.8622 84.8377C14.4809 84.4563 14.2666 83.9392 14.2666 83.3999Z" fill="#D1CDC7"/>
<path d="M56.7158 15.2449C56.8783 14.9443 56.9645 14.6083 56.9666 14.2666H16.3L4.50664 29.3133C4.24476 29.6663 4.1023 30.0937 4.09998 30.5333H44.7666L56.56 15.4866C56.6136 15.4073 56.6695 15.3295 56.7158 15.2449Z" fill="#F0EEEC"/>
<path d="M26.4666 14.2666H16.3L4.50664 29.3133C4.24476 29.6663 4.1023 30.0937 4.09998 30.5333H14.2666C14.269 30.0937 14.4114 29.6663 14.6733 29.3133L26.4666 14.2666Z" fill="#E8E6E3"/>
<path d="M54.9334 0.0332031H18.3334C17.7941 0.0332031 17.2769 0.247429 16.8956 0.628753C16.5143 1.01008 16.3 1.52726 16.3 2.06654V14.2665H56.9667V2.06654C56.9667 1.52726 56.7525 1.01008 56.3712 0.628753C55.9898 0.247429 55.4727 0.0332031 54.9334 0.0332031Z" fill="#4890DF"/>
<path d="M28.5 0.0332031H18.3334C17.7941 0.0332031 17.2769 0.247429 16.8956 0.628753C16.5143 1.01008 16.3 1.52726 16.3 2.06654V14.2665H26.4667V2.06654C26.4667 1.52726 26.6809 1.01008 27.0623 0.628753C27.4436 0.247429 27.9608 0.0332031 28.5 0.0332031Z" fill="#3182DB"/>
<path d="M4.09998 46.7998V83.3998C4.09998 83.9391 4.3142 84.4563 4.69553 84.8376C5.07685 85.219 5.59404 85.4332 6.13331 85.4332H42.7333C43.2726 85.4332 43.7898 85.219 44.1711 84.8376C44.5524 84.4563 44.7666 83.9391 44.7666 83.3998V38.6665H4.09998V46.7998Z" fill="#A3C7EF"/>
<path d="M14.2666 83.3998V38.6665H4.09998V83.3998C4.09998 83.9391 4.3142 84.4563 4.69553 84.8376C5.07685 85.219 5.59404 85.4332 6.13331 85.4332H16.3C15.7607 85.4332 15.2435 85.219 14.8622 84.8376C14.4809 84.4563 14.2666 83.9391 14.2666 83.3998Z" fill="#76ACE7"/>
<path d="M104.805 44.1242C100.371 41.993 93.1204 41.0683 83.4 48.2996C73.6797 41.0693 66.4298 41.994 61.9951 44.1254C52.9031 48.4941 48.8334 60.8715 48.8334 71.2C48.8334 82.2563 54.712 93.3181 63.4619 98.7263C69.7907 102.638 76.8339 103.154 83.4 100.215C86.0936 101.442 89.017 102.083 91.9769 102.096C95.8489 102.096 99.7109 100.969 103.338 98.7273C112.088 93.3181 117.967 82.2563 117.967 71.2C117.967 60.8715 113.897 48.4941 104.805 44.1242Z" fill="#EE7C80"/>
<path d="M102.144 98.1711C99.1838 98.1588 96.2603 97.5181 93.5667 96.2913C87.0006 99.2307 79.9576 98.7145 73.6286 94.8026C64.8787 89.395 59 78.3331 59 67.2769C59 58.4535 61.9738 48.1381 68.5059 42.5947C66.25 42.6253 64.0278 43.1472 61.9941 44.124C52.9031 48.4939 48.8334 60.8713 48.8334 71.1999C48.8334 82.2562 54.712 93.318 63.4619 98.7262C69.7907 102.638 76.8339 103.154 83.4 100.215C86.0936 101.442 89.017 102.083 91.9769 102.096C95.8489 102.096 99.7109 100.969 103.338 98.7272C103.689 98.5088 104.035 98.2818 104.375 98.0465C103.634 98.1296 102.889 98.1712 102.144 98.1711Z" fill="#EA5B60"/>
<path d="M85.2879 59.755L81.512 58.2448C85.3919 48.5448 83.3306 42.8885 81.3369 37.4186C79.3153 31.8719 77.225 26.1367 81.5814 17.4238L85.2185 19.2426C81.6455 26.3891 83.1954 30.6418 85.1578 36.026C87.3078 41.9255 89.745 48.6124 85.2879 59.755Z" fill="#665946"/>
<path d="M83.4 61.0332C81.6161 61.0298 79.8643 60.5587 78.3193 59.6671C76.7743 58.7754 75.49 57.4943 74.5946 55.9514L78.1148 53.915C78.6504 54.8428 79.4208 55.6133 80.3485 56.149C81.2763 56.6846 82.3287 56.9666 83.4 56.9666C84.4712 56.9666 85.5237 56.6846 86.4514 56.149C87.3791 55.6133 88.1495 54.8428 88.6851 53.915L92.2053 55.9514C91.3099 57.4943 90.0256 58.7754 88.4806 59.6671C86.9356 60.5587 85.1838 61.0298 83.4 61.0332Z" fill="#EA5B60"/>
<path d="M103.312 29.5147C102.419 27.9697 101.136 26.6867 99.5912 25.7947C98.0461 24.9027 96.2934 24.4331 94.5092 24.4331C92.7251 24.4331 90.9724 24.9027 89.4273 25.7947C87.8821 26.6867 86.599 27.9697 85.7068 29.5147C85.5277 29.8243 85.4333 30.1755 85.4333 30.5332C85.4333 30.8908 85.5277 31.2421 85.7068 31.5516C86.599 33.0966 87.8821 34.3796 89.4273 35.2716C90.9724 36.1636 92.7251 36.6332 94.5092 36.6332C96.2934 36.6332 98.0461 36.1636 99.5912 35.2716C101.136 34.3796 102.419 33.0966 103.312 31.5516C103.491 31.2421 103.585 30.8908 103.585 30.5332C103.585 30.1755 103.491 29.8243 103.312 29.5147Z" fill="#C1D776"/>
<path d="M36.7573 84.983C36.3294 81.1044 35.6244 77.2615 34.6478 73.4835C32.4429 65.1387 29.3103 60.3235 25.3369 59.1722C20.8788 57.88 16.6871 59.0629 14.6588 62.1861C13.6676 63.7131 12.1271 67.4951 15.4681 73.4868C13.8923 73.1876 12.2935 73.026 10.6897 73.0039H10.6135C3.72558 73.0039 1.25737 76.5152 0.402098 79.4669C-0.456731 82.4299 -0.245265 86.736 5.63997 90.4301C7.00671 91.2689 8.44395 91.987 9.93538 92.5763C3.90833 95.853 3.18675 99.8708 3.20835 101.693C3.25283 105.417 6.16202 108.657 10.6199 109.95C11.2824 110.139 11.9685 110.233 12.6575 110.229C16.3213 110.229 20.8445 107.751 26.1408 102.833C28.9865 100.163 31.6374 97.2928 34.0731 94.2441C34.2322 94.0402 34.3509 93.8078 34.4228 93.5594L36.6869 85.7473C36.7588 85.4994 36.7827 85.24 36.7573 84.983Z" fill="#ACC949"/>
<path d="M36.2048 80.9158L34.4221 87.0643C34.3502 87.3128 34.2315 87.5452 34.0724 87.749C31.6368 90.7974 28.9861 93.6674 26.1406 96.3371C20.8443 101.255 16.3211 103.733 12.6573 103.733C11.9682 103.737 11.2822 103.642 10.6196 103.452C7.48017 102.543 5.11057 100.665 3.96708 98.3343C3.4663 99.3829 3.20696 100.53 3.20813 101.692C3.25261 105.416 6.16181 108.657 10.6196 109.949C11.2822 110.138 11.9683 110.232 12.6573 110.229C16.3211 110.229 20.8443 107.75 26.1406 102.833C28.9863 100.163 31.6371 97.2922 34.0729 94.2435C34.232 94.0396 34.3507 93.8072 34.4226 93.5588L36.6867 85.7467C36.7589 85.4983 36.7828 85.2383 36.7574 84.9809C36.7454 84.8615 36.5843 83.2622 36.2048 80.9158Z" fill="#86B817"/>
<path d="M107.715 102.405C104.142 99.474 98.8424 96.0217 92.3888 92.4209C80.8324 85.9735 66.4638 79.5601 58.226 77.1727C49.6543 74.6882 44.2723 74.383 40.231 76.1525C36.2205 77.9082 33.6542 81.6076 31.6499 88.523C29.6455 95.4384 29.8356 99.9369 32.2853 103.565C34.7543 107.221 39.4652 109.841 48.0373 112.326C56.2761 114.714 71.8461 116.977 85.0592 117.709C88.1364 117.88 91.029 117.964 93.6897 117.964C96.9161 117.991 100.141 117.825 103.348 117.468C109.592 116.697 112.873 115.053 113.672 112.295C114.471 109.537 112.578 106.395 107.715 102.405Z" fill="#F9CC5C"/>
<path d="M105.432 111.371C102.225 111.729 98.9995 111.894 95.7726 111.867C93.1117 111.867 90.219 111.782 87.1421 111.613C73.929 110.881 58.359 108.617 50.1202 106.229C41.5482 103.745 36.8372 101.124 34.368 97.4682C32.0642 94.0565 31.7594 89.8742 33.3975 83.6377C32.7026 85.2242 32.1183 86.8569 31.6489 88.5241C29.6445 95.4392 29.8346 99.9379 32.2843 103.566C34.7533 107.222 39.4642 109.843 48.0363 112.327C56.2751 114.715 71.8451 116.978 85.0582 117.711C88.1354 117.881 91.0281 117.965 93.6887 117.965C96.9151 117.992 100.14 117.826 103.347 117.469C109.591 116.698 112.872 115.054 113.671 112.296C113.964 111.227 113.885 110.089 113.446 109.071C111.725 110.169 109.087 110.92 105.432 111.371Z" fill="#F5A83D"/>
<path d="M57.8283 100.448L65.0284 79.5084C63.7627 79.0221 62.4882 78.5592 61.2055 78.1199L53.9825 99.1262L57.8283 100.448ZM73.4929 104.845L69.9259 116.34C71.2954 116.508 72.6662 116.664 74.0383 116.809L77.3763 106.05L73.4929 104.845ZM98.0327 107.823L101.264 97.7512C100.146 97.0207 98.9615 96.2752 97.7106 95.5145L94.1604 106.58L98.0327 107.823Z" fill="#F5A83D"/>
<defs>
<linearGradient id="paint0_linear_191_349" x1="-3.43785" y1="76.7044" x2="64.5045" y2="8.76206" gradientUnits="userSpaceOnUse">
<stop stop-color="#D1CDC7"/>
<stop offset="0.539" stop-color="#D7D4CF"/>
<stop offset="1" stop-color="#E0DEDA"/>
</linearGradient>
</defs>
</svg>
