<svg width="121" height="123" viewBox="0 0 121 123" fill="none" xmlns="http://www.w3.org/2000/svg">
<path d="M115.24 116.689C110.976 121.393 105.496 119.432 104.999 119.243H104.997C103.392 118.435 102.011 117.244 100.975 115.776L102.121 110.594C102.121 110.594 107.404 100.262 112.163 100.903C116.922 101.545 119.709 111.755 115.24 116.689Z" fill="#FB6672"/>
<path d="M114.099 99.3466C112.772 98.7972 111.35 98.515 109.914 98.5164C103.869 98.5164 98.9681 103.417 98.9681 109.462C98.9681 111.815 99.7129 113.993 100.976 115.777C106.318 111.149 110.766 105.58 114.099 99.3466Z" fill="#FB4A59"/>
<path d="M120.861 109.461C120.861 115.507 115.96 120.409 109.914 120.409C108.193 120.411 106.497 120.006 104.962 119.227C109.734 118.498 113.393 114.376 113.393 109.398C113.393 104.488 109.835 100.411 105.156 99.6029C106.594 98.906 108.208 98.5166 109.914 98.5166C115.96 98.5168 120.861 103.415 120.861 109.461Z" fill="#FB4A59"/>
<path d="M109.261 114.697C108.977 114.697 108.697 114.632 108.442 114.507C108.187 114.382 107.965 114.2 107.791 113.975C107.617 113.75 107.498 113.489 107.441 113.211C107.384 112.933 107.392 112.645 107.464 112.37L107.474 112.333C107.601 111.86 107.91 111.457 108.334 111.211C108.758 110.965 109.262 110.897 109.736 111.021C110.21 111.145 110.615 111.451 110.864 111.873C111.114 112.294 111.186 112.798 111.065 113.273L111.056 113.31C110.952 113.707 110.719 114.058 110.395 114.309C110.07 114.56 109.671 114.696 109.261 114.697Z" fill="#FDC1B8"/>
<path d="M61.8954 123C93.6782 123 119.443 97.2346 119.443 65.4518C119.443 33.6691 93.6782 7.90405 61.8954 7.90405C30.1127 7.90405 4.34766 33.6691 4.34766 65.4518C4.34766 97.2346 30.1127 123 61.8954 123Z" fill="#FDC1B8"/>
<path d="M80.4544 10.9636C79.0763 12.8383 78.3345 15.1048 78.3377 17.4315C78.3377 23.4767 83.2384 28.3775 89.2837 28.3775C93.7931 28.3775 97.6643 25.6501 99.3409 21.7554C93.8465 17.0428 87.4543 13.3472 80.4544 10.9636Z" fill="#FCB3A9"/>
<path d="M85.0207 12.7439C99.959 23.1391 109.739 40.4311 109.739 60.01C109.739 91.7928 83.974 117.558 52.191 117.558C43.9646 117.558 36.1433 115.828 29.0657 112.718C38.3772 119.198 49.6914 123 61.8953 123C93.6781 123 119.443 97.2348 119.443 65.4519C119.443 41.8955 105.288 21.6487 85.0207 12.7439Z" fill="#FCB3A9"/>
<path d="M104.963 64.2166L103.108 70.4075L95.6803 77.2181L91.1399 90.3158V98.5174L85.3862 100.903L79.9617 100.49C78.8446 100.3 77.677 100.439 76.6032 100.886C76.5816 100.896 76.5599 100.903 76.5383 100.913C74.8278 101.621 73.4969 103.051 73.0357 104.845C72.3966 107.327 70.9504 109.482 68.9949 111.019C66.9706 112.612 64.469 113.476 61.8935 113.472C56.5339 113.472 52.0319 109.806 50.7538 104.843C50.2926 103.051 48.9617 101.621 47.2488 100.913C47.2296 100.903 47.2079 100.896 47.1863 100.886C45.471 100.173 43.5155 100.24 41.9155 101.184C40.1449 102.229 38.1264 102.779 36.0706 102.777C33.1277 102.777 30.1848 101.655 27.9386 99.4087C24.1477 95.6178 23.5567 89.8425 26.1609 85.4294C27.105 83.8318 27.1747 81.8739 26.4612 80.1586C26.4516 80.1394 26.4444 80.1178 26.4347 80.0962C25.726 78.3857 24.2966 77.0548 22.5021 76.5935C20.0204 75.9545 17.8631 74.5107 16.328 72.5552C14.7339 70.5308 13.8689 68.0281 13.8728 65.4514C13.8728 60.0917 17.5412 55.5873 22.5021 54.3117C24.2966 53.8504 25.726 52.5195 26.4347 50.8066C26.4444 50.7874 26.4516 50.7658 26.4612 50.7442C27.1747 49.0313 27.105 47.0734 26.1609 45.4734C25.099 43.6764 24.5705 41.6536 24.5705 39.6309C24.5705 36.6856 25.6924 33.7427 27.9386 31.4965C31.7295 27.7055 37.5048 27.1146 41.9155 29.7187C43.5155 30.6629 45.471 30.7301 47.1863 30.019C47.2079 30.0094 47.2296 29.9998 47.2488 29.9926C48.9617 29.2839 50.2926 27.8545 50.7538 26.0599C51.3928 23.5807 52.8367 21.4234 54.7922 19.8859C56.7477 18.3484 59.2125 17.4307 61.8935 17.4307C67.2556 17.4307 71.7576 21.0967 73.0357 26.0599C73.4969 27.8521 74.8278 29.2839 76.5383 29.9902C76.5599 29.9998 76.5816 30.0094 76.6032 30.0166C77.6794 30.4659 78.8518 30.6052 79.9713 30.413H90.6498L94.938 42.5713L92.9704 52.0102L104.963 64.2166Z" fill="#FB6672"/>
<path d="M75.2217 66.7923C80.0018 66.7923 83.8769 62.9172 83.8769 58.1371C83.8769 53.357 80.0018 49.4819 75.2217 49.4819C70.4416 49.4819 66.5665 53.357 66.5665 58.1371C66.5665 62.9172 70.4416 66.7923 75.2217 66.7923Z" fill="#FB4A59"/>
<path d="M45.6982 79.5186C50.0837 79.5186 53.6389 75.9634 53.6389 71.5779C53.6389 67.1924 50.0837 63.6372 45.6982 63.6372C41.3126 63.6372 37.7574 67.1924 37.7574 71.5779C37.7574 75.9634 41.3126 79.5186 45.6982 79.5186Z" fill="#FB4A59"/>
<path d="M67.5325 90.9492C68.0385 87.825 65.9162 84.8822 62.7921 84.3762C59.6681 83.8702 56.7253 85.9927 56.2193 89.1168C55.7133 92.241 57.8356 95.1839 60.9597 95.6899C64.0837 96.1958 67.0265 94.0734 67.5325 90.9492Z" fill="#FB4A59"/>
<path d="M109.915 65.4524C109.915 70.8133 106.249 75.315 101.287 76.5921C99.4928 77.0551 98.0646 78.3864 97.3569 80.0967C97.347 80.119 97.3372 80.1387 97.3297 80.1611C96.617 81.8761 96.6837 83.8314 97.6267 85.4302C98.6885 87.2269 99.218 89.2516 99.218 91.2737C99.218 94.2189 98.0944 97.1616 95.8496 99.4088C92.0604 103.198 86.2839 103.789 81.8734 101.186C81.2769 100.832 80.6285 100.604 79.9602 100.49C82.5218 100.349 85.0414 99.2999 86.9965 97.3447C89.1053 95.2361 90.1621 92.4691 90.1621 89.7044C90.1628 87.7747 89.6466 85.8801 88.6671 84.2174C87.7811 82.715 87.7167 80.8762 88.385 79.2676C88.3949 79.2477 88.4023 79.228 88.4122 79.2057C89.0755 77.5994 90.4194 76.3495 92.1048 75.9163C96.7628 74.7159 100.208 70.4863 100.208 65.4522C100.208 62.9352 99.3465 60.6186 97.9037 58.7822C96.4608 56.9459 94.4337 55.5871 92.1048 54.9882C90.4194 54.5551 89.0755 53.3053 88.4122 51.6989C88.4023 51.6766 88.3949 51.6569 88.385 51.6369C87.7167 50.0283 87.7811 48.1893 88.6671 46.6871C91.1124 42.544 90.5556 37.119 86.9965 33.5599C85.0412 31.6046 82.5218 30.5553 79.9602 30.4142C80.6285 30.3004 81.2769 30.0726 81.8734 29.7188C83.6702 28.6569 85.6922 28.1274 87.7169 28.1274C90.6596 28.1274 93.6049 29.251 95.8496 31.4958C99.6389 35.2874 100.233 41.0615 97.6267 45.4744C96.6837 47.0732 96.617 49.0284 97.3297 50.7435C97.3372 50.7658 97.347 50.7855 97.3569 50.8079C98.0646 52.5181 99.4928 53.8495 101.287 54.3124C103.767 54.951 105.925 56.3965 107.462 58.3515C109.055 60.3752 109.919 62.8769 109.915 65.4524Z" fill="#FB4A59"/>
<path d="M75.2217 60.6653C80.0018 60.6653 83.8769 56.7903 83.8769 52.0101C83.8769 47.23 80.0018 43.355 75.2217 43.355C70.4416 43.355 66.5665 47.23 66.5665 52.0101C66.5665 56.7903 70.4416 60.6653 75.2217 60.6653Z" fill="#FDA79B"/>
<path d="M83.8758 52.0106C83.8758 56.7899 80.0025 60.6656 75.2209 60.6656C73.9116 60.6656 72.6717 60.3761 71.5604 59.8538C75.2802 59.178 78.0991 55.9236 78.0991 52.0106C78.0991 48.0977 75.2826 44.8433 71.5628 44.1651C72.708 43.6302 73.9569 43.3539 75.2209 43.3557C80.0025 43.3557 83.8758 47.229 83.8758 52.0106Z" fill="#FC9085"/>
<path d="M11.0524 90.0444C11.0524 96.6052 3.82134 95.8101 3.82134 95.8101C1.63281 94.6617 0.13855 92.3699 0.13855 89.7273C0.13855 87.0847 1.63281 84.7905 3.82134 83.6422C3.82134 83.6422 11.0524 83.4836 11.0524 90.0444Z" fill="#FB6672"/>
<path d="M13.8739 89.7265C13.8739 93.5181 10.8001 96.5945 7.00582 96.5945C5.8575 96.5945 4.77333 96.3125 3.82056 95.8099C6.52079 95.1022 8.51305 92.6494 8.51305 89.7265C8.51305 86.8035 6.52079 84.351 3.82056 83.643C4.80251 83.1258 5.896 82.8565 7.00582 82.8584C10.7998 82.8584 13.8739 85.9324 13.8739 89.7265Z" fill="#FB4A59"/>
<path d="M45.6982 73.3917C50.0837 73.3917 53.6389 69.8365 53.6389 65.451C53.6389 61.0654 50.0837 57.5103 45.6982 57.5103C41.3126 57.5103 37.7574 61.0654 37.7574 65.451C37.7574 69.8365 41.3126 73.3917 45.6982 73.3917Z" fill="#FDA79B"/>
<path d="M53.6391 65.4522C53.6391 69.8352 50.0827 73.3919 45.697 73.3919C44.5449 73.3937 43.4063 73.1437 42.3608 72.6594C45.4149 71.6867 47.6251 68.8258 47.6251 65.4524C47.6251 62.0766 45.4149 59.2154 42.3608 58.243C43.4062 57.7586 44.5448 57.5085 45.697 57.5103C50.0825 57.51 53.6391 61.0665 53.6391 65.4522Z" fill="#FC9085"/>
<path d="M67.5334 84.823C68.0394 81.6988 65.917 78.7559 62.793 78.25C59.6689 77.744 56.7262 79.8664 56.2202 82.9906C55.7142 86.1148 57.8365 89.0576 60.9606 89.5636C64.0846 90.0696 67.0273 87.9471 67.5334 84.823Z" fill="#FDA79B"/>
<path d="M37.7575 88.4064C37.2652 88.4064 36.793 88.2109 36.4449 87.8628C36.0968 87.5146 35.9012 87.0425 35.9012 86.5502V86.516C35.9012 86.0237 36.0968 85.5516 36.4449 85.2034C36.793 84.8553 37.2652 84.6597 37.7575 84.6597C38.2498 84.6597 38.722 84.8553 39.0701 85.2034C39.4182 85.5516 39.6138 86.0237 39.6138 86.516V86.5502C39.6137 87.0425 39.4181 87.5146 39.07 87.8627C38.7219 88.2108 38.2498 88.4064 37.7575 88.4064ZM59.2519 33.6618C58.7596 33.6618 58.2874 33.4662 57.9393 33.1181C57.5912 32.7699 57.3956 32.2978 57.3956 31.8055V31.7713C57.3956 31.279 57.5912 30.8069 57.9393 30.4587C58.2874 30.1106 58.7596 29.915 59.2519 29.915C59.7442 29.915 60.2164 30.1106 60.5645 30.4587C60.9126 30.8069 61.1082 31.279 61.1082 31.7713V31.8055C61.1081 32.2978 60.9125 32.7699 60.5644 33.118C60.2163 33.4661 59.7442 33.6617 59.2519 33.6618ZM64.6336 104.65C64.1413 104.65 63.6692 104.454 63.321 104.106C62.9729 103.758 62.7773 103.286 62.7773 102.794V102.76C62.7773 102.267 62.9729 101.795 63.321 101.447C63.6692 101.099 64.1413 100.903 64.6336 100.903C65.126 100.903 65.5981 101.099 65.9462 101.447C66.2944 101.795 66.4899 102.267 66.4899 102.76V102.794C66.4899 103.286 66.2944 103.758 65.9462 104.106C65.5981 104.454 65.126 104.65 64.6336 104.65ZM89.2842 69.6712C88.7919 69.6712 88.3198 69.4756 87.9716 69.1275C87.6235 68.7794 87.4279 68.3072 87.4279 67.8149V67.7808C87.4279 67.2884 87.6235 66.8163 87.9716 66.4682C88.3198 66.12 88.7919 65.9245 89.2842 65.9245C89.7766 65.9245 90.2487 66.12 90.5968 66.4682C90.945 66.8163 91.1405 67.2884 91.1405 67.7808V67.8149C91.1406 68.0587 91.0926 68.3001 90.9993 68.5253C90.906 68.7505 90.7693 68.9552 90.5969 69.1276C90.4245 69.2999 90.2199 69.4367 89.9946 69.5299C89.7694 69.6232 89.528 69.6712 89.2842 69.6712ZM64.6336 65.5105C64.1413 65.5105 63.6692 65.315 63.321 64.9668C62.9729 64.6187 62.7773 64.1466 62.7773 63.6542V63.6201C62.7773 63.1278 62.9729 62.6556 63.321 62.3075C63.6692 61.9594 64.1413 61.7638 64.6336 61.7638C65.126 61.7638 65.5981 61.9594 65.9462 62.3075C66.2944 62.6556 66.4899 63.1278 66.4899 63.6201V63.6542C66.49 63.898 66.442 64.1394 66.3487 64.3647C66.2554 64.5899 66.1187 64.7945 65.9463 64.9669C65.7739 65.1393 65.5693 65.276 65.3441 65.3693C65.1188 65.4626 64.8774 65.5106 64.6336 65.5105ZM29.0658 63.3756C28.5735 63.3756 28.1013 63.18 27.7532 62.8319C27.405 62.4837 27.2095 62.0116 27.2095 61.5193V61.4851C27.2095 60.9928 27.405 60.5207 27.7532 60.1725C28.1013 59.8244 28.5735 59.6288 29.0658 59.6288C29.5581 59.6288 30.0303 59.8244 30.3784 60.1725C30.7265 60.5207 30.9221 60.9928 30.9221 61.4851V61.5193C30.9221 62.0116 30.7265 62.4837 30.3784 62.8319C30.0303 63.18 29.5581 63.3756 29.0658 63.3756Z" fill="#FDA79B"/>
<path d="M64.6336 28.4596C64.1413 28.4596 63.6692 28.264 63.321 27.9159C62.9729 27.5678 62.7773 27.0956 62.7773 26.6033V26.5692C62.7773 26.0769 62.9729 25.6047 63.321 25.2566C63.6692 24.9085 64.1413 24.7129 64.6336 24.7129C65.126 24.7129 65.5981 24.9085 65.9462 25.2566C66.2944 25.6047 66.4899 26.0769 66.4899 26.5692V26.6033C66.4899 27.0956 66.2944 27.5678 65.9462 27.9159C65.5981 28.264 65.126 28.4596 64.6336 28.4596Z" fill="#E22334"/>
<path d="M80.4952 82.7814C80.0029 82.7814 79.5307 82.5858 79.1826 82.2377C78.8345 81.8895 78.6389 81.4174 78.6389 80.9251V80.891C78.6389 80.3986 78.8345 79.9265 79.1826 79.5784C79.5307 79.2302 80.0029 79.0347 80.4952 79.0347C80.9875 79.0347 81.4597 79.2302 81.8078 79.5784C82.1559 79.9265 82.3515 80.3986 82.3515 80.891V80.9251C82.3515 81.4174 82.1559 81.8895 81.8078 82.2377C81.4597 82.5858 80.9875 82.7814 80.4952 82.7814Z" fill="#FDA79B"/>
<path d="M45.6982 90.3159C45.2059 90.3159 44.7337 90.1204 44.3856 89.7723C44.0375 89.4241 43.8419 88.952 43.8419 88.4596V88.4255C43.8419 87.9332 44.0375 87.4611 44.3856 87.1129C44.7337 86.7648 45.2059 86.5692 45.6982 86.5692C46.1905 86.5692 46.6627 86.7648 47.0108 87.1129C47.359 87.4611 47.5545 87.9332 47.5545 88.4255V88.4596C47.5545 88.952 47.3589 89.4241 47.0108 89.7722C46.6626 90.1203 46.1905 90.3159 45.6982 90.3159ZM55.3831 51.5724C54.9429 51.5717 54.5172 51.4147 54.1821 51.1293C53.8469 50.8439 53.6241 50.4487 53.5532 50.0142L52.9932 46.5765C52.9224 46.0943 53.044 45.6036 53.3318 45.2103C53.6196 44.817 54.0505 44.5527 54.5315 44.4743C55.0125 44.3959 55.5051 44.5099 55.9028 44.7915C56.3006 45.0731 56.5716 45.4998 56.6575 45.9795L57.2175 49.4173C57.2608 49.683 57.2458 49.955 57.1735 50.2143C57.1013 50.4737 56.9734 50.7142 56.7989 50.9192C56.6244 51.1243 56.4074 51.2889 56.1629 51.4017C55.9184 51.5144 55.6523 51.5727 55.3831 51.5724ZM38.0352 46.1469C37.595 46.1462 37.1694 45.9892 36.8343 45.7039C36.4991 45.4185 36.2762 45.0234 36.2053 44.589L35.6451 41.1512C35.5743 40.669 35.6959 40.1784 35.9837 39.7851C36.2715 39.3918 36.7024 39.1274 37.1834 39.0491C37.6644 38.9707 38.1569 39.0846 38.5547 39.3662C38.9524 39.6478 39.2235 40.0745 39.3094 40.5542L39.8696 43.992C39.9129 44.2577 39.8979 44.5297 39.8255 44.789C39.7532 45.0483 39.6254 45.2888 39.4509 45.4938C39.2764 45.6988 39.0594 45.8634 38.8149 45.9762C38.5705 46.089 38.3044 46.1472 38.0352 46.1469ZM84.2822 94.018C83.7926 94.0186 83.3226 93.8251 82.9754 93.4799L80.4743 91.0001C80.1303 90.6524 79.9375 90.1828 79.9378 89.6937C79.9381 89.2045 80.1315 88.7352 80.4759 88.3879C80.8203 88.0405 81.2879 87.8431 81.777 87.8386C82.2661 87.8341 82.7373 88.0228 83.088 88.3638L85.5891 90.8435C85.8503 91.1025 86.0287 91.4332 86.1016 91.7937C86.1745 92.1542 86.1387 92.5282 85.9987 92.8684C85.8586 93.2085 85.6207 93.4993 85.3152 93.704C85.0096 93.9087 84.6501 94.018 84.2822 94.018Z" fill="#E22334"/>
<path d="M96.2591 10.5817C96.2591 21.9736 84.5453 20.734 84.3339 20.71H84.3315C80.7736 18.9034 78.3376 15.2086 78.3376 10.9444C78.3376 6.6058 80.8649 2.85575 84.5261 1.08522C84.5261 1.08522 96.2591 -0.913531 96.2591 10.5817Z" fill="#FB6672"/>
<path d="M100.231 10.9446C100.231 16.9906 95.3294 21.8918 89.2836 21.8918C87.5629 21.8942 85.8661 21.4893 84.3319 20.7101C89.1034 19.9815 92.7622 15.8591 92.7622 10.8809C92.7622 5.97151 89.2041 1.89425 84.5253 1.0861C85.9638 0.38942 87.5775 0 89.2836 0C95.3296 0 100.231 4.89862 100.231 10.9446Z" fill="#FB4A59"/>
<path d="M86.294 10.5816C86.0106 10.5818 85.7309 10.5171 85.4763 10.3924C85.2218 10.2677 84.9992 10.0864 84.8255 9.8624C84.6519 9.63838 84.5319 9.37758 84.4746 9.09999C84.4174 8.8224 84.4245 8.53539 84.4954 8.26096L84.505 8.22397C84.6349 7.7549 84.9438 7.35562 85.3653 7.1121C85.7867 6.86859 86.2869 6.80031 86.7582 6.92198C87.2295 7.04365 87.6341 7.34553 87.885 7.76262C88.1359 8.17971 88.213 8.67865 88.0996 9.15199L88.09 9.18899C87.9871 9.58724 87.755 9.94008 87.4299 10.1921C87.1048 10.4442 86.7053 10.5812 86.294 10.5816Z" fill="#FDC1B8"/>
</svg>
