<svg width="87" height="123" viewBox="0 0 87 123" fill="none" xmlns="http://www.w3.org/2000/svg">
<path d="M32.1313 122.753C31.6774 122.753 31.2228 122.743 30.7664 122.723C29.976 122.689 29.1907 122.874 28.4121 122.782C21.2464 121.935 14.6297 118.652 9.57876 113.394C3.96185 107.545 0.868286 99.8572 0.868286 91.7459V91.7437L0.880908 41.8401C0.880908 41.7767 0.881652 41.7134 0.882889 41.65C1.13532 30.4684 5.68038 19.9973 13.6808 12.1652C20.8292 5.16752 30.0275 0.974133 39.8912 0.150256C41.0853 0.0505199 42.2891 0.247518 43.5 0.247518C54.8843 0.247518 65.5898 4.68121 73.6447 12.7316C81.6983 20.7895 85.8843 31.2475 85.8843 42.6315V51.1576C85.8843 58.6431 83.9143 66.0095 80.1874 72.4604C76.5769 78.7101 71.6465 83.7336 65.4611 87.4562C64.1772 88.2291 63.1318 89.9175 63.1318 91.4645C63.1318 100.05 59.8241 108.133 53.6249 114.072C47.7516 119.699 40.1639 122.753 32.1313 122.753Z" fill="#FED2A4"/>
<path d="M86.1318 42.6317V51.1576C86.1318 58.644 84.1618 66.0092 80.4347 72.4611C76.8239 78.7101 71.6465 83.9815 65.4618 87.7037C64.1774 88.4759 63.3805 89.9187 63.3805 91.4655C63.3805 100.051 59.8241 108.381 53.6246 114.318C47.7518 119.946 40.1639 123 32.1306 123C31.6777 123 31.2223 122.99 30.7669 122.97C29.9774 122.936 29.1904 122.874 28.4133 122.78C35.0558 121.988 41.2405 119.072 46.2001 114.318C52.3996 108.381 55.9559 100.051 55.9559 91.4655C55.9559 89.9187 56.7528 88.4759 58.0373 87.7037C64.2219 83.9815 69.3993 78.7101 73.0101 72.4611C76.7372 66.0092 78.7072 58.644 78.7072 51.1576V42.6317C78.7072 31.2474 74.2748 20.5412 66.2191 12.4831C59.047 5.3135 49.7713 1.01469 39.7877 0.15839C41.0153 0.0544467 42.2552 0 43.5 0C54.8843 0 65.5905 4.43245 73.6437 12.4831C81.6993 20.5412 86.1318 31.2474 86.1318 42.6317Z" fill="#FFBD86"/>
<path d="M68.8301 42.6319V51.1577C68.8301 55.652 67.6521 60.0696 65.4198 63.9304C63.2518 67.6872 60.3859 70.6075 56.6662 72.8448C50.2886 76.6833 46.0788 83.9717 46.0788 91.4656C46.0788 95.4822 44.7276 98.9792 41.8271 101.758C39.0107 104.456 35.3405 105.852 31.497 105.686C30.4311 105.64 29.3976 105.726 28.4084 105.462C22.3324 103.835 17.9245 98.3093 17.9225 91.7477L17.9245 80.5559C17.9247 79.1893 19.0327 78.0816 20.3993 78.0816H23.4538C25.5722 78.0816 27.4903 77.2228 28.8786 75.8344C30.3061 74.4069 31.1738 72.4196 31.1238 70.2301C31.0281 66.038 27.493 62.7375 23.2996 62.7375H20.4053C19.0382 62.7375 17.9302 61.629 17.9304 60.2622L17.9349 41.9463C18.0158 38.83 18.6538 35.8057 19.7982 32.9911C20.0798 32.2984 22.867 31.6185 23.209 30.9528C23.5013 30.3843 21.3405 29.8262 21.6761 29.2798C22.7811 27.4823 24.1029 25.8274 25.6118 24.3526C29.554 20.4916 34.5369 18.0541 39.9145 17.3028C41.093 17.1379 42.2906 17.3018 43.5 17.3018C50.3306 17.3018 56.7553 19.9622 61.5862 24.7907C66.4171 29.624 68.8301 35.8013 68.8301 42.6319Z" fill="#FFBD86"/>
<path d="M54.7607 49.6208C54.7607 50.6454 53.9291 51.477 52.9045 51.477C51.8799 51.477 51.0484 50.6454 51.0484 49.6208C51.0484 40.4515 43.5892 32.9923 34.4199 32.9923H19.7985C20.3207 31.7079 20.9468 30.4655 21.6769 29.28H34.4199C45.6359 29.28 54.7607 38.4048 54.7607 49.6208Z" fill="#F6A96C"/>
<path d="M69.0777 42.6318V51.1576C69.0777 55.6519 67.8996 60.0696 65.6673 63.9303C63.4993 67.6871 60.386 70.8549 56.6663 73.0922C50.2886 76.9307 46.3264 83.9716 46.3264 91.4655C46.3264 95.4822 44.7276 99.2266 41.8271 102.006C39.0107 104.703 35.3405 106.099 31.4971 105.933C30.418 105.886 29.3712 105.723 28.3713 105.451C30.5987 104.84 32.6652 103.671 34.4025 102.006C37.3031 99.2266 38.9018 95.4822 38.9018 91.4655C38.9018 83.9716 42.8641 76.9307 49.2417 73.0922C52.9614 70.8549 56.0748 67.6871 58.2428 63.9303C60.4751 60.0696 61.6531 55.6519 61.6531 51.1576V42.6318C61.6531 35.8012 58.9926 29.3765 54.1617 24.5431C50.2168 20.6007 45.2102 18.1035 39.7878 17.3215C41.0054 17.1433 42.2453 17.0542 43.5001 17.0542C50.3307 17.0542 56.7554 19.7147 61.5863 24.5431C66.4172 29.3765 69.0777 35.8012 69.0777 42.6318Z" fill="#F6A96C"/>
</svg>
