<svg width="92" height="116" viewBox="0 0 92 116" fill="none" xmlns="http://www.w3.org/2000/svg">
<path d="M47.0733 115.188C46.3583 109.444 45.9999 103.661 46 97.873V92.9949C46 86.2297 47.0904 79.5101 49.2292 73.0918C49.9925 70.804 50.0072 68.3325 49.2713 66.0358C48.5354 63.739 47.0872 61.7363 45.1365 60.318C34.2997 52.4379 22.7309 45.6171 10.5895 39.9497L0.251953 35.125V0.8125H53.625L82.9451 25.7329C86.1652 28.469 88.6389 31.9769 90.1351 35.9286C91.6312 39.8804 92.1009 44.147 91.5003 48.3296L88.2101 71.3628C87.8512 73.879 87.8512 76.4335 88.2101 78.9497C89.3005 86.5785 89.8476 94.274 89.8476 101.979V115.188H47.0771H47.0733Z" fill="#F44545"/>
<path d="M88.2063 78.9497C87.8474 76.4335 87.8474 73.879 88.2063 71.3628L91.4965 48.3296C92.0971 44.1472 91.6276 39.8807 90.1318 35.929C88.636 31.9773 86.1627 28.4693 82.9431 25.7329L53.6231 0.8125H28.8723C16.2225 0.8125 5.96875 11.0662 5.96875 23.7161C5.96897 27.1251 6.94173 30.4633 8.77284 33.3388C10.6039 36.2142 13.2174 38.5076 16.3063 39.9497C28.4482 45.6163 40.0171 52.4371 50.8533 60.318C52.8033 61.7369 54.251 63.7396 54.9868 66.0362C55.7226 68.3327 55.7084 70.8039 54.946 73.0918C52.8072 79.5096 51.7169 86.2301 51.7168 92.9949V97.873C51.7168 103.662 52.0752 109.446 52.7901 115.188H89.8418V101.979C89.8418 94.274 89.2967 86.5785 88.2063 78.9497Z" fill="#FB5858"/>
<path d="M59.2369 115.187L57.8969 91.0791C57.5896 85.5541 56.8908 80.058 55.8057 74.6319C55.0667 70.9374 55.8228 67.1006 57.9083 63.9626H70.7793V115.187" fill="#F2F2F2"/>
<path d="M80.3125 115.188V78.0309C80.3125 73.5893 80.8577 69.1649 81.9347 64.8568C82.5454 62.4051 82.1595 59.8113 80.8615 57.6435L76.5 50.375L73.1069 52.4128C69.0937 54.8218 64.501 56.0942 59.8203 56.0938H59.5935C57.3231 56.0938 55.5332 57.8913 55.5332 60.1083V60.2227C55.5332 62.2395 56.9914 63.9608 58.9816 64.2925L63.2096 64.9978C64.2604 65.1733 65.215 65.7157 65.9036 66.5285C66.5922 67.3414 66.9703 68.3721 66.9707 69.4375V75.0705C66.9707 88.4619 67.5502 101.848 68.7072 115.188H80.3125ZM0.25 4.015L41.1238 31.8081C44.3221 33.9822 46.9093 36.9403 48.6382 40.3996C49.4103 41.9456 49.8125 43.6497 49.8125 45.3768C49.8123 47.2436 50.4051 49.0621 51.5053 50.5702C52.6055 52.0783 54.1562 53.198 55.9339 53.7678C57.7115 54.3376 59.6242 54.3281 61.3961 53.7405C63.168 53.153 64.7075 52.0179 65.7926 50.4989L71.1682 42.973C71.9742 41.8458 72.4799 40.532 72.6376 39.1553C72.7953 37.7786 72.5999 36.3844 72.0697 35.1041C71.5395 33.8238 70.692 32.6996 69.6072 31.8375C68.5223 30.9754 67.2358 30.4037 65.8688 30.1764C62.8241 29.6694 59.9176 28.5368 57.3327 26.85L17.4062 0.8125H0.25V4.015Z" fill="#CCCCCC"/>
<path d="M77.2568 42.7443V44.6562C77.2568 45.6674 77.6584 46.6371 78.3734 47.3521C79.0884 48.0671 80.0581 48.4688 81.0693 48.4688C82.0804 48.4688 83.0501 48.0671 83.7651 47.3521C84.4801 46.6371 84.8818 45.6674 84.8818 44.6562C84.8817 42.1705 84.1461 39.7403 82.7677 37.6717L81.9538 36.4498C81.5543 35.8501 80.9507 35.4159 80.2551 35.2278C79.5595 35.0396 78.8193 35.1105 78.172 35.4272C77.5247 35.7438 77.0145 36.2847 76.736 36.9493C76.4576 37.6139 76.4299 38.357 76.6582 39.0404C77.0566 40.2357 77.2587 41.4862 77.2587 42.7462L77.2568 42.7443ZM66.658 49.2846L71.1663 42.9711C71.9717 41.8438 72.477 40.53 72.6344 39.1534C72.7918 37.7769 72.5963 36.3829 72.0662 35.1028C71.5361 33.8227 70.6888 32.6987 69.6043 31.8365C68.5197 30.9742 67.2336 30.4023 65.8669 30.1745C62.8222 29.6675 59.9157 28.5349 57.3307 26.8481L17.4062 0.8125H4.96033L44.9363 27.9956C48.1341 30.1703 50.7212 33.1282 52.4507 36.5871C53.2228 38.1331 53.625 39.8372 53.625 41.5643C53.625 43.9011 54.5532 46.1421 56.2056 47.7944C57.8579 49.4467 60.0989 50.375 62.4357 50.375C63.934 50.375 65.3789 49.9842 66.658 49.2846ZM80.3125 78.0309C80.3125 73.5893 80.8577 69.1649 81.9347 64.8568C82.5467 62.4051 82.1607 59.8108 80.8615 57.6435L76.5 50.375L73.1069 52.4128C69.5157 54.5653 65.455 55.8122 61.2748 56.0461C61.269 56.1319 61.25 56.2119 61.25 56.2977V56.4121C61.25 58.4289 62.7083 60.1502 64.6984 60.4819L68.9264 61.1873C69.9773 61.3627 70.9318 61.9051 71.6204 62.718C72.3091 63.5308 72.6871 64.5616 72.6875 65.6269V71.2599C72.6875 82.7927 73.1164 94.3198 73.9761 105.818C74.2106 108.958 76.8545 111.377 80.0018 111.377C80.1085 111.377 80.2076 111.35 80.3125 111.346V78.0309Z" fill="#F2F2F2"/>
</svg>
