<svg width="122" height="122" viewBox="0 0 122 122" fill="none" xmlns="http://www.w3.org/2000/svg">
<path d="M75.0162 90.4014L61.4001 81.7473C60.8835 81.4189 60.2913 81.2287 59.6802 81.1948C59.069 81.161 58.4594 81.2847 57.9098 81.5541C57.3602 81.8235 56.889 82.2295 56.5413 82.7333C56.1937 83.237 55.9812 83.8216 55.9244 84.4311C55.5596 88.3301 53.8313 92.0055 51.0575 94.7801C47.8719 97.9669 43.6362 99.7218 39.131 99.7218C34.6261 99.7218 30.3904 97.9669 27.2048 94.7801C20.6278 88.2009 20.6278 77.4959 27.2048 70.9167C29.9131 68.2077 33.3494 66.5392 37.1426 66.0917C37.7436 66.0207 38.3167 65.7983 38.8083 65.4453C39.2999 65.0922 39.6938 64.6202 39.9531 64.0733C40.2124 63.5265 40.3286 62.9228 40.2908 62.3187C40.2531 61.7147 40.0626 61.1302 39.7372 60.6199L31.1093 47.0962C30.6833 46.4285 30.0475 45.9211 29.3019 45.6539C28.5563 45.3867 27.743 45.3747 26.9899 45.6198C21.0938 47.5389 15.8669 50.7502 11.4544 55.1642C-3.8056 70.4292 -3.8056 95.2671 11.4544 110.532C18.8471 117.927 28.6762 122 39.1312 122C49.5861 122 59.4152 117.927 66.8079 110.532C71.2906 106.048 74.6464 100.496 76.5128 94.4763C76.7451 93.727 76.7244 92.922 76.454 92.1856C76.1835 91.4492 75.6783 90.8223 75.0162 90.4014Z" fill="#EDEDED"/>
<path d="M39.1312 122C49.5861 122 59.4152 117.928 66.8078 110.533C71.2906 106.049 74.6463 100.497 76.5128 94.4766C76.7451 93.7273 76.7244 92.9224 76.4539 92.186C76.1835 91.4496 75.6782 90.8226 75.0162 90.4018L61.4 81.7476C60.8835 81.4192 60.2913 81.229 59.6802 81.1952C59.069 81.1613 58.4594 81.285 57.9098 81.5544C57.3602 81.8238 56.889 82.2298 56.5413 82.7336C56.1937 83.2373 55.9812 83.822 55.9243 84.4314C55.5595 88.3304 53.8313 92.0059 51.0575 94.7804C47.8719 97.9672 43.6362 99.7221 39.131 99.7221C34.6275 99.7221 30.3932 97.9681 27.2079 94.7833L11.4563 110.535C18.849 117.928 28.6771 122 39.1312 122Z" fill="#D7D7D7"/>
<path d="M101.636 77.0908C99.5339 70.0372 95.0737 61.8062 89.0783 53.9146C87.884 52.3427 69.5245 33.9995 67.9516 32.8067C60.0769 26.8361 51.8688 22.3979 44.8393 20.3098C34.3363 17.19 28.8296 19.8378 26.0596 22.6085C21.2547 27.4149 21.1415 36.0204 25.7405 46.84C29.7799 56.3427 37.2143 66.9121 46.1377 75.8381C55.061 84.7644 65.6271 92.2012 75.1269 96.2419C80.4115 98.4896 85.1674 99.6124 89.2103 99.6122C93.4436 99.6122 96.8956 98.3812 99.3535 95.9226C102.129 93.1469 104.777 87.6264 101.636 77.0908Z" fill="#6EC5E7"/>
<path d="M89.0783 53.9144C88.4836 53.1314 83.631 48.1885 78.7147 43.2761L46.1453 75.8456C55.0672 84.7683 65.6298 92.2022 75.1269 96.2418C80.4115 98.4895 85.1674 99.6122 89.2103 99.612C93.4436 99.612 96.8956 98.381 99.3535 95.9225C102.128 93.1465 104.777 87.626 101.636 77.0906C99.5338 70.0373 95.0739 61.8063 89.0783 53.9144Z" fill="#50BAE3"/>
<path d="M113.154 8.21625C107.565 2.77867 100.163 -0.13884 92.3072 0.00508151C84.4441 0.147812 77.1417 3.33601 71.7444 8.98209C67.0605 13.8819 64.2181 20.3047 63.741 27.0676C63.1623 35.2752 59.7701 42.8697 54.1898 48.452L53.4116 49.2302C52.0162 50.6258 52.0162 52.8885 53.4113 54.2841L67.3424 68.2195C67.6744 68.5517 68.0685 68.8152 68.5023 68.995C68.9362 69.1747 69.4012 69.2672 69.8708 69.2671C70.3404 69.267 70.8054 69.1744 71.2391 68.9945C71.6729 68.8145 72.067 68.5509 72.3988 68.2186L72.5713 68.0458C78.3589 62.2563 86.2067 58.7752 94.6688 58.2436C101.754 57.7989 108.433 54.7815 113.449 49.7587C119.011 44.1948 122.044 36.7974 121.99 28.9286C121.935 21.0615 118.797 13.7058 113.154 8.21625Z" fill="#FFCE71"/>
<path d="M113.465 8.52588L60.5579 61.4331L67.3424 68.2199C67.6744 68.5521 68.0685 68.8156 68.5023 68.9953C68.9362 69.1751 69.4012 69.2675 69.8708 69.2675C70.3404 69.2674 70.8054 69.1747 71.2392 68.9948C71.6729 68.8149 72.067 68.5512 72.3988 68.2189L72.5713 68.0462C78.3589 62.2566 86.2067 58.7756 94.6688 58.244C101.754 57.7993 108.433 54.7819 113.449 49.759C119.011 44.1952 122.044 36.7977 121.99 28.9289C121.936 21.2082 118.911 13.9811 113.465 8.52588Z" fill="#FFB357"/>
</svg>
