<svg width="122" height="118" viewBox="0 0 122 118" fill="none" xmlns="http://www.w3.org/2000/svg">
<path d="M75.2088 77.6434C71.1885 65.9166 72.4611 49.3755 74.7487 36.0658C75.2745 32.9974 77.9512 30.7651 81.0327 30.8492C116.715 31.83 127.196 73.936 119.734 110.166C119.266 112.445 117.583 114.288 115.364 114.925C103.182 118.422 89.7095 118.274 78.0853 115.014C75.6847 114.341 73.9046 112.29 73.5681 109.795C71.9957 98.1495 72.9844 88.0739 75.2088 77.6434Z" fill="#FF6D7A"/>
<path d="M92.7961 32.8959C96.0764 34.0176 95.1946 38.8505 91.7296 38.7425C88.2918 38.6352 85.7692 41.0187 85.2662 43.9538C83.0413 56.9001 81.7763 72.9035 85.4087 84.5598C85.6141 85.219 85.6425 85.9189 85.5034 86.5952C83.873 94.5284 82.9866 102.293 83.432 110.742C83.5798 113.547 80.9767 115.825 78.0855 115.014C75.685 114.34 73.9049 112.29 73.5684 109.795C71.996 98.1492 72.9846 88.0737 75.2091 77.6431H75.2117C71.1914 65.9163 72.4614 49.3752 74.7489 36.0656C75.2748 32.9971 77.9514 30.7648 81.033 30.849C85.312 30.9668 89.2289 31.6762 92.7961 32.8959Z" fill="#FF8C95"/>
<path d="M47.5876 74.993C47.0699 76.9563 46.7641 77.6434 46.7909 77.6434C49.1518 88.7055 49.9356 98.6575 48.4316 109.795C48.0951 112.29 46.315 114.341 43.9145 115.014C32.2902 118.274 18.8175 118.422 6.63586 114.925C4.41671 114.288 2.73394 112.445 2.26592 110.166C-5.19611 73.936 5.28438 31.83 40.967 30.8492C44.0486 30.7651 46.7252 32.9974 47.2511 36.0658C49.2751 47.8413 50.6834 63.3435 47.5876 74.993Z" fill="#FF6D7A"/>
<path d="M48.0089 84.1333C48.0894 84.6368 47.9782 85.1508 47.7108 85.5847C46.7392 87.162 45.6483 88.5813 44.4431 89.8302C41.3851 92.9986 37.6252 94.8365 34.9591 95.6621C33.6597 96.0623 32.2456 95.1297 32.2456 93.6033C32.2456 92.6699 32.8609 91.8575 33.7522 91.5866C40.3991 89.5647 44.4746 84.4033 46.7884 77.6433C46.815 77.6433 47.5462 81.2352 48.0089 84.1333ZM73.9909 84.1333C73.9105 84.6368 74.0217 85.1508 74.2891 85.5847C75.2606 87.162 76.3515 88.5813 77.5568 89.8302C80.6147 92.9986 84.3746 94.8365 87.0408 95.6621C88.3402 96.0623 89.7543 95.1297 89.7543 93.6033C89.7543 92.6699 89.139 91.8575 88.2477 91.5866C81.6007 89.5647 77.5253 84.4033 75.2114 77.6433C75.1852 77.6433 74.4537 81.2352 73.9909 84.1333Z" fill="#FE4F60"/>
<path d="M85.2869 60.7158L81.3508 66.7002C80.6436 67.7782 79.1396 67.9728 78.1851 67.1077C71.0176 60.5896 62.4381 60.445 60.9998 60.445C52.5834 60.445 46.6516 64.6125 43.8172 67.134C42.8575 67.9859 41.3667 67.7913 40.662 66.7186L36.7127 60.7158C36.0502 59.7114 36.3657 58.3547 37.4043 57.7473C42.6655 54.6684 48.2844 51.3055 50.7455 45.7208C55.6702 34.5624 54.3682 17.6869 54.0058 5.36848C53.927 2.69971 56.0672 0.496338 58.736 0.496338H63.2637C65.9325 0.496338 68.0727 2.69971 67.9939 5.36848C67.6165 18.3405 66.3847 34.6823 71.2542 45.7208C73.7153 51.3055 79.3341 54.6684 84.5954 57.7473C85.634 58.3547 85.9495 59.7114 85.2869 60.7158Z" fill="#CBE3FA"/>
<path d="M65.5388 1.07689C66.9037 1.82573 66.3405 3.91473 64.7837 3.91473C62.1149 3.91473 59.9747 6.1181 60.0535 8.78687C60.4216 21.2841 61.7021 38.0066 56.7932 49.1392C53.7426 56.0616 47.4761 58.0237 41.0658 63.1556C40.1001 63.9289 38.6776 63.702 37.9977 62.6684L36.713 60.7158C36.0504 59.7114 36.3659 58.3547 37.4045 57.7473C42.6658 54.6684 48.2847 51.3055 50.7457 45.7208C55.6547 34.5882 54.3742 17.8657 54.0061 5.36848C53.9272 2.69971 56.0675 0.496338 58.7362 0.496338H63.2639C64.0893 0.496338 64.8644 0.706947 65.5388 1.07689Z" fill="#EEF7FF"/>
<path d="M67.6868 14.9859C67.6678 15.6677 67.6492 16.3976 67.6344 17.0843C67.6285 17.3592 67.5151 17.6208 67.3185 17.8131C67.122 18.0054 66.8579 18.113 66.583 18.1129H55.4341C55.1588 18.1126 54.8945 18.0044 54.6981 17.8114C54.5016 17.6185 54.3887 17.3562 54.3834 17.0809C54.3687 16.3789 54.3511 15.6803 54.3319 14.9867C54.3279 14.8462 54.3521 14.7063 54.4031 14.5753C54.4541 14.4443 54.5309 14.3249 54.6289 14.2242C54.7269 14.1234 54.8441 14.0433 54.9736 13.9887C55.1031 13.934 55.2423 13.9059 55.3828 13.906H66.6353C66.7758 13.9059 66.9149 13.934 67.0444 13.9886C67.1739 14.0432 67.2911 14.1232 67.3891 14.2239C67.4871 14.3245 67.564 14.4438 67.6151 14.5747C67.6662 14.7056 67.6906 14.8454 67.6868 14.9859ZM67.0586 33.8839C64.3412 33.8923 57.653 33.8921 54.9343 33.8836C54.3116 33.8818 53.8265 33.3425 53.8941 32.7236C53.969 32.0386 54.0348 31.3482 54.0918 30.6532C54.1368 30.1056 54.5904 29.682 55.1399 29.682H66.857C67.1213 29.6817 67.376 29.7811 67.5703 29.9603C67.7646 30.1396 67.8841 30.3855 67.905 30.649C67.9576 31.3137 68.0233 32.0218 68.0983 32.7186C68.1145 32.865 68.0997 33.0131 68.0549 33.1534C68.01 33.2937 67.9362 33.423 67.8382 33.533C67.7401 33.6429 67.62 33.7309 67.4857 33.7914C67.3514 33.8518 67.2059 33.8834 67.0586 33.8839Z" fill="#B5D5F5"/>
<path d="M11.528 110.7C11.8958 113.395 9.42715 115.725 6.63586 114.925C4.41671 114.289 2.73394 112.445 2.26592 110.166C-5.19611 73.9363 5.28438 31.8302 40.967 30.8495C46.7331 30.692 47.549 38.6389 42.3121 40.0043C16.1201 46.8342 7.30003 79.7318 11.528 110.7Z" fill="#FF8C95"/>
</svg>
