<svg xmlns="http://www.w3.org/2000/svg" width="102" height="122" viewBox="0 0 102 122" fill="none">
  <path d="M100.975 60.4002C90.2633 43.7058 90.0417 39.4795 90.0417 39.4795C84.6372 0.751272 55.3451 -0.037777 44.1741 5.41118e-05C37.9968 5.41118e-05 0.387294 1.54032 0.219756 40.0794C-0.0612749 72.344 12.7635 76.2244 17.2924 86.1524C20.787 94.5636 21.8796 103.779 20.4486 112.775C20.3117 113.723 20.4576 114.69 20.8681 115.555C21.2787 116.42 21.9355 117.145 22.7563 117.639C29.4626 120.512 36.6839 121.989 43.9797 121.979C51.2756 121.97 58.4931 120.475 65.192 117.585C66.0058 117.082 66.6777 116.38 67.144 115.545C67.6103 114.709 67.8555 113.769 67.8564 112.812V98.5015C67.9375 96.1506 70.9586 96.1344 72.2232 96.1398C76.6927 96.2857 88.5933 96.1398 89.9336 90.4273C90.5637 84.0354 90.5075 77.5944 89.7661 71.2145C93.0429 69.9372 96.2266 68.4329 99.2941 66.7126C99.8626 66.4537 100.367 66.072 100.77 65.5949C101.173 65.1179 101.466 64.5574 101.627 63.9537C101.787 63.35 101.812 62.7182 101.7 62.1038C101.587 61.4893 101.339 60.9075 100.975 60.4002Z" fill="#E2E2E2"/>
</svg>