<svg width="122" height="112" viewBox="0 0 122 112" fill="none" xmlns="http://www.w3.org/2000/svg">
<path d="M14.5792 111.954H9.87911C9.2875 111.954 8.71579 111.74 8.26918 111.352C7.82257 110.964 7.5311 110.428 7.4484 109.842L6.27344 101.515H18.1846L17.0097 109.842C16.9271 110.428 16.6357 110.964 16.1891 111.352C15.7425 111.74 15.1708 111.954 14.5792 111.954ZM112.121 111.954H107.421C106.829 111.954 106.257 111.74 105.811 111.352C105.364 110.964 105.073 110.428 104.99 109.842L103.815 101.515H115.726L114.551 109.842C114.469 110.428 114.177 110.964 113.731 111.352C113.284 111.74 112.712 111.954 112.121 111.954Z" fill="#475A61"/>
<path d="M122 84.7418V4.95618C122 2.24478 119.802 0.0466309 117.09 0.0466309H4.90955C2.19814 0.0468691 0 2.24478 0 4.95618V84.7418H122Z" fill="#596D76"/>
<path d="M112.549 4.95618V84.742H122V4.95618C122 2.24358 119.803 0.0466309 117.09 0.0466309H107.64C110.35 0.0466309 112.549 2.24358 112.549 4.95618Z" fill="#475A61"/>
<path d="M122 80.8218V98.4763C122 101.189 119.803 103.386 117.09 103.386H4.90955C2.19695 103.386 0 101.189 0 98.4763V80.8218H122Z" fill="#F5F7F8"/>
<path d="M122 80.8218V98.4763C122 101.189 119.803 103.386 117.09 103.386H107.64C110.35 103.386 112.549 101.189 112.549 98.4763V80.8218H122Z" fill="#D9E7EB"/>
<path d="M101.846 97.3949C104.578 97.3949 106.793 95.1804 106.793 92.4487C106.793 89.7169 104.578 87.5024 101.846 87.5024C99.1147 87.5024 96.9001 89.7169 96.9001 92.4487C96.9001 95.1804 99.1147 97.3949 101.846 97.3949Z" fill="#F47C7C"/>
<path d="M106.793 92.4477C106.793 95.1798 104.579 97.394 101.847 97.394C101.13 97.394 100.447 97.2417 99.8313 96.9643C101.557 96.1935 102.76 94.4605 102.76 92.4477C102.76 90.435 101.557 88.7017 99.8313 87.9311C100.465 87.6466 101.152 87.5001 101.847 87.5015C104.579 87.5015 106.793 89.718 106.793 92.4477Z" fill="#E94444"/>
<path d="M88.7285 92.4479C88.7285 94.4535 87.1034 96.076 85.1004 96.076H50.7515C49.75 96.076 48.844 95.6709 48.1864 95.013C47.8486 94.6768 47.5808 94.277 47.3984 93.8367C47.2159 93.3965 47.1225 92.9245 47.1234 92.4479C47.1234 90.4449 48.7485 88.8198 50.7515 88.8198H85.1004C86.1019 88.8198 87.0103 89.2273 87.6655 89.8828C88.0028 90.2194 88.2704 90.6192 88.4528 91.0594C88.6352 91.4996 88.7289 91.9714 88.7285 92.4479Z" fill="#A0ACB9"/>
<path d="M58.6115 88.8198H62.2936V96.076H58.6115V88.8198ZM73.5584 88.8198H77.2405V96.076H73.5584V88.8198Z" fill="#596D76"/>
<path d="M15.2073 95.9997C14.9655 95.9997 14.7261 95.9521 14.5028 95.8596C14.2794 95.7671 14.0764 95.6315 13.9055 95.4605C13.7345 95.2896 13.5989 95.0866 13.5064 94.8633C13.4139 94.6399 13.3663 94.4005 13.3663 94.1587V90.7387C13.3663 90.4969 13.414 90.2575 13.5065 90.0342C13.599 89.8108 13.7346 89.6079 13.9055 89.4369C14.0765 89.266 14.2794 89.1304 14.5028 89.0378C14.7261 88.9453 14.9655 88.8977 15.2073 88.8977C15.4491 88.8977 15.6884 88.9453 15.9118 89.0378C16.1352 89.1304 16.3381 89.266 16.509 89.4369C16.68 89.6079 16.8156 89.8108 16.9081 90.0342C17.0006 90.2575 17.0483 90.4969 17.0483 90.7387V94.1587C17.0483 94.647 16.8543 95.1152 16.509 95.4605C16.1638 95.8057 15.6955 95.9997 15.2073 95.9997ZM21.8925 95.9997C21.6507 95.9997 21.4113 95.9521 21.188 95.8596C20.9646 95.7671 20.7616 95.6315 20.5907 95.4605C20.4197 95.2896 20.2841 95.0866 20.1916 94.8633C20.0991 94.6399 20.0515 94.4005 20.0516 94.1587V90.7387C20.0516 90.2504 20.2455 89.7822 20.5908 89.4369C20.936 89.0917 21.4043 88.8977 21.8925 88.8977C22.3808 88.8977 22.849 89.0917 23.1943 89.4369C23.5395 89.7822 23.7335 90.2504 23.7335 90.7387V94.1587C23.7335 94.4005 23.6859 94.6399 23.5934 94.8633C23.5009 95.0866 23.3653 95.2896 23.1943 95.4605C23.0234 95.6315 22.8204 95.7671 22.5971 95.8596C22.3737 95.9521 22.1343 95.9997 21.8925 95.9997ZM28.578 95.9997C28.3362 95.9997 28.0968 95.9521 27.8734 95.8596C27.6501 95.7671 27.4471 95.6315 27.2761 95.4605C27.1052 95.2896 26.9696 95.0866 26.8771 94.8633C26.7846 94.6399 26.737 94.4005 26.737 94.1587V90.7387C26.737 90.4969 26.7846 90.2575 26.8771 90.0342C26.9697 89.8108 27.1053 89.6079 27.2762 89.4369C27.4472 89.266 27.6501 89.1304 27.8735 89.0378C28.0968 88.9453 28.3362 88.8977 28.578 88.8977C28.8197 88.8977 29.0591 88.9453 29.2825 89.0378C29.5058 89.1304 29.7088 89.266 29.8797 89.4369C30.0507 89.6079 30.1863 89.8108 30.2788 90.0342C30.3713 90.2575 30.4189 90.4969 30.4189 90.7387V94.1587C30.4189 94.6469 30.2249 95.1152 29.8797 95.4604C29.5344 95.8056 29.0662 95.9996 28.578 95.9997Z" fill="#A0ACB9"/>
<path d="M109.07 71.3616H12.9299C11.5741 71.3616 10.4751 70.2626 10.4751 68.9068V13.4911C10.4751 12.1353 11.5741 11.0364 12.9299 11.0364H109.07C110.426 11.0364 111.525 12.1353 111.525 13.4911V68.9068C111.525 70.2626 110.426 71.3616 109.07 71.3616Z" fill="#77D5D8"/>
<path d="M111.526 13.4911V68.9066C111.526 70.2617 110.426 71.3613 109.071 71.3613H101.594C102.949 71.3613 104.049 70.2617 104.049 68.9066V13.4911C104.049 12.136 102.949 11.0364 101.594 11.0364H109.071C110.426 11.0364 111.526 12.136 111.526 13.4911Z" fill="#77D5D8"/>
<path d="M111.526 13.4911V27.2352H10.4744V13.4911C10.4744 12.136 11.574 11.0364 12.9291 11.0364H109.071C110.426 11.0364 111.526 12.136 111.526 13.4911Z" fill="#6EC5E7"/>
<path d="M111.526 13.4911V27.2352H104.049V13.4911C104.049 12.136 102.949 11.0364 101.594 11.0364H109.071C110.426 11.0364 111.526 12.136 111.526 13.4911Z" fill="#50BAE3"/>
<path d="M37.3001 20.9773H20.2194C19.7311 20.9773 19.2629 20.7834 18.9176 20.4381C18.5724 20.0929 18.3784 19.6246 18.3784 19.1364C18.3784 18.6481 18.5724 18.1799 18.9176 17.8346C19.2629 17.4894 19.7311 17.2954 20.2194 17.2954H37.3001C38.3171 17.2954 39.1411 18.1196 39.1411 19.1364C39.1411 20.1531 38.3171 20.9773 37.3001 20.9773ZM101.847 20.9773H54.381C53.8928 20.9773 53.4245 20.7834 53.0793 20.4381C52.734 20.0929 52.5401 19.6246 52.5401 19.1364C52.5401 18.6481 52.734 18.1799 53.0793 17.8346C53.4245 17.4894 53.8928 17.2954 54.381 17.2954H101.846C102.863 17.2954 103.687 18.1196 103.687 19.1364C103.687 20.1531 102.863 20.9773 101.847 20.9773Z" fill="#F5F7F8"/>
<path d="M35.0874 38.232C33.2917 36.4363 30.6177 36.0917 27.9911 37.8481C25.3646 36.0917 22.6906 36.4363 20.8949 38.232C18.7585 40.3684 18.6758 43.751 21.7415 46.8168C23.4121 48.4874 25.6507 49.7855 27.9911 50.1975C30.3315 49.7853 32.5702 48.4874 34.2408 46.8168C37.3065 43.751 37.2238 40.3684 35.0874 38.232Z" fill="#F47C7C"/>
<path d="M34.2411 46.8178C32.5693 48.487 30.3306 49.7856 27.9914 50.1981C26.5603 49.9453 25.1685 49.361 23.9189 48.5633C26.3196 48.1215 28.6124 46.7835 30.3282 45.0703C33.2641 42.1344 33.4164 38.9188 31.6783 36.6997C32.967 36.7512 34.1479 37.2914 35.0879 38.2314C37.2234 40.3692 37.307 43.7519 34.2411 46.8178Z" fill="#E94444"/>
<path d="M62.3406 53.1938C61.9762 53.1938 61.62 53.0856 61.3171 52.883C61.0142 52.6805 60.7782 52.3926 60.639 52.0558L55.3952 39.3647L53.6795 43.582C53.5416 43.9212 53.3056 44.2114 53.0019 44.4158C52.6981 44.6202 52.3403 44.7293 51.9742 44.7294H42.6874C42.1991 44.7294 41.7309 44.5354 41.3856 44.1902C41.0404 43.8449 40.8464 43.3767 40.8464 42.8884C40.8464 42.4001 41.0404 41.9319 41.3856 41.5866C41.7309 41.2414 42.1991 41.0474 42.6874 41.0474H50.7356L53.6767 33.8182C53.8144 33.4799 54.0495 33.1902 54.3523 32.9859C54.6551 32.7816 55.0118 32.6719 55.3771 32.6709H55.3821C55.7465 32.6709 56.1027 32.7791 56.4056 32.9816C56.7085 33.1842 56.9445 33.4721 57.0836 33.8089L62.4757 46.8586L67.0431 37.4494C67.1912 37.1441 67.4209 36.8857 67.7067 36.7027C67.9925 36.5198 68.3233 36.4193 68.6626 36.4125C69.0018 36.4057 69.3364 36.4928 69.6293 36.6642C69.9222 36.8356 70.162 37.0845 70.3223 37.3836L72.0308 40.5728H77.2844C77.7727 40.5728 78.2409 40.7667 78.5862 41.112C78.9314 41.4572 79.1254 41.9255 79.1254 42.4137C79.1254 42.902 78.9314 43.3703 78.5862 43.7155C78.2409 44.0607 77.7727 44.2547 77.2844 44.2547H70.9285C70.5954 44.2547 70.2686 44.1643 69.9828 43.9933C69.697 43.8222 69.4629 43.5768 69.3056 43.2832L68.7801 42.3025L63.9971 52.1566C63.8461 52.4674 63.6106 52.7295 63.3177 52.9129C63.0248 53.0963 62.6862 53.1937 62.3406 53.1938Z" fill="#3B9DAF"/>
<path d="M85.8656 50.5084H88.1254C90.4146 50.5084 92.2768 48.6463 92.2768 46.3573V44.834C92.2776 44.011 92.0323 43.2065 91.5724 42.5239C92.0323 41.8413 92.2776 41.0368 92.2768 40.2137V38.6904C92.2768 36.4015 90.4146 34.5393 88.1254 34.5393H85.8656C83.5766 34.5393 81.7145 36.4015 81.7145 38.6904V40.2137C81.7137 41.0368 81.9589 41.8413 82.4188 42.5239C81.9589 43.2064 81.7136 44.011 81.7145 44.834V46.3573C81.7147 48.6463 83.5769 50.5084 85.8656 50.5084ZM88.5946 46.3573C88.5945 46.4817 88.545 46.601 88.457 46.6889C88.3691 46.7768 88.2498 46.8262 88.1254 46.8263H85.8656C85.7412 46.8262 85.622 46.7767 85.5341 46.6888C85.4462 46.6009 85.3968 46.4817 85.3966 46.3573V44.834C85.3968 44.7097 85.4462 44.5905 85.5341 44.5026C85.622 44.4146 85.7412 44.3652 85.8656 44.3651H88.1254C88.2498 44.3651 88.3691 44.4146 88.457 44.5025C88.545 44.5904 88.5945 44.7096 88.5946 44.834V46.3573ZM85.3966 38.6906C85.3968 38.5663 85.4462 38.4471 85.5341 38.3592C85.622 38.2713 85.7412 38.2218 85.8656 38.2217H88.1254C88.2498 38.2218 88.3691 38.2712 88.457 38.3591C88.545 38.447 88.5945 38.5663 88.5946 38.6906V40.214C88.5945 40.3383 88.545 40.4576 88.457 40.5455C88.3691 40.6334 88.2498 40.6829 88.1254 40.6829H85.8656C85.7412 40.6828 85.622 40.6333 85.5341 40.5454C85.4462 40.4575 85.3968 40.3383 85.3966 40.214V38.6906ZM100.333 34.5395H98.0732C95.7843 34.5395 93.9221 36.4017 93.9221 38.6906V46.3573C93.9221 48.6463 95.7843 50.5084 98.0732 50.5084H100.333C102.622 50.5084 104.484 48.6463 104.484 46.3573V38.6906C104.484 36.4017 102.622 34.5395 100.333 34.5395ZM100.802 46.3573C100.802 46.4817 100.753 46.601 100.665 46.6889C100.577 46.7768 100.457 46.8262 100.333 46.8263H98.0732C97.9489 46.8262 97.8297 46.7767 97.7418 46.6888C97.6538 46.6009 97.6044 46.4817 97.6043 46.3573V38.6906C97.6044 38.5663 97.6538 38.4471 97.7418 38.3592C97.8297 38.2713 97.9489 38.2218 98.0732 38.2217H100.333C100.457 38.2218 100.577 38.2712 100.665 38.3591C100.753 38.447 100.802 38.5663 100.802 38.6906V46.3573Z" fill="#FFB357"/>
<path d="M102.643 56.0798L99.2032 56.0803C98.72 56.0881 98.2594 56.2856 97.9205 56.63C97.5816 56.9745 97.3918 57.4383 97.3918 57.9215C97.3919 58.4047 97.5819 58.8685 97.9208 59.2129C98.2598 59.5572 98.7205 59.7545 99.2036 59.7622L102.644 59.7618C103.127 59.7539 103.588 59.5565 103.926 59.212C104.265 58.8676 104.455 58.4038 104.455 57.9206C104.455 57.4374 104.265 56.9736 103.926 56.6292C103.587 56.2849 103.126 56.0875 102.643 56.0798ZM102.643 61.943L82.6124 61.9432C82.1292 61.951 81.6685 62.1484 81.3296 62.4928C80.9907 62.8372 80.8008 63.301 80.8008 63.7842C80.8008 64.2674 80.9907 64.7312 81.3296 65.0756C81.6685 65.42 82.1292 65.6174 82.6124 65.6251L102.643 65.6249C103.127 65.6171 103.587 65.4198 103.926 65.0754C104.265 64.731 104.455 64.2671 104.455 63.7839C104.455 63.3008 104.265 62.8369 103.926 62.4925C103.587 62.1481 103.127 61.9508 102.643 61.943Z" fill="#596D76"/>
<path d="M27.2868 59.9869H19.3566C18.8683 59.9869 18.4001 59.7929 18.0548 59.4477C17.7096 59.1024 17.5156 58.6341 17.5156 58.1459C17.5156 57.6576 17.7096 57.1894 18.0548 56.8441C18.4001 56.4989 18.8683 56.3049 19.3566 56.3049H27.2868C28.3038 56.3049 29.1278 57.1291 29.1278 58.1459C29.1278 59.1626 28.3038 59.9869 27.2868 59.9869ZM27.2868 65.6251H19.3566C18.8683 65.6251 18.4001 65.4311 18.0548 65.0859C17.7096 64.7406 17.5156 64.2724 17.5156 63.7841C17.5156 63.2959 17.7096 62.8276 18.0548 62.4823C18.4001 62.1371 18.8683 61.9431 19.3566 61.9431H27.2868C28.3038 61.9431 29.1278 62.7674 29.1278 63.7841C29.1278 64.8008 28.3038 65.6251 27.2868 65.6251Z" fill="#F5F7F8"/>
</svg>
