<svg width="78" height="116" viewBox="0 0 78 116" fill="none" xmlns="http://www.w3.org/2000/svg">
<path d="M55.9713 7.56444L56.4269 7.83703C61.2403 10.7249 66.7481 12.2503 72.3613 12.25C73.6252 12.25 74.8374 12.7521 75.7311 13.6458C76.6248 14.5395 77.1269 15.7517 77.1269 17.0156C77.1269 18.2795 76.6248 19.4917 75.7311 20.3854C74.8374 21.2792 73.6252 21.7812 72.3613 21.7812H70.8992C69.3334 21.7811 67.7984 22.217 66.4664 23.0402C65.1345 23.8634 64.0581 25.0414 63.3581 26.442L63.3542 26.4478C62.9095 27.3365 62.2263 28.0839 61.3809 28.6064C60.5355 29.1289 59.5615 29.4059 58.5677 29.4062C57.2967 29.4065 56.0668 28.9558 55.0968 28.1345C54.1268 27.3132 53.4795 26.1745 53.2702 24.9208C52.7456 21.7824 51.0526 18.9587 48.5312 17.0175L39 6.53125L55.9713 7.56444ZM55.9713 47.5957L56.4269 47.8683C61.2403 50.7562 66.7481 52.2815 72.3613 52.2812C73.6252 52.2812 74.8374 52.7833 75.7311 53.6771C76.6248 54.5708 77.1269 55.783 77.1269 57.0469C77.1269 58.3108 76.6248 59.523 75.7311 60.4167C74.8374 61.3104 73.6252 61.8125 72.3613 61.8125H70.8992C69.3334 61.8123 67.7984 62.2483 66.4664 63.0715C65.1345 63.8947 64.0581 65.0727 63.3581 66.4733L63.3542 66.479C62.9095 67.3677 62.2263 68.1152 61.3809 68.6377C60.5355 69.1602 59.5615 69.4371 58.5677 69.4375C57.2967 69.4377 56.0668 68.9871 55.0968 68.1658C54.1268 67.3445 53.4795 66.2057 53.2702 64.9521C52.7456 61.8136 51.0526 58.99 48.5312 57.0488L39 46.5625L55.9713 47.5957ZM55.9713 87.6269L56.4269 87.8995C61.2403 90.7874 66.7481 92.3128 72.3613 92.3125C73.6252 92.3125 74.8374 92.8146 75.7311 93.7083C76.6248 94.602 77.1269 95.8142 77.1269 97.0781C77.1269 98.342 76.6248 99.5542 75.7311 100.448C74.8374 101.342 73.6252 101.844 72.3613 101.844H70.8992C69.3334 101.844 67.7984 102.28 66.4664 103.103C65.1345 103.926 64.0581 105.104 63.3581 106.505L63.3542 106.51C62.9095 107.399 62.2263 108.146 61.3809 108.669C60.5355 109.191 59.5615 109.468 58.5677 109.469C57.2967 109.469 56.0668 109.018 55.0968 108.197C54.1268 107.376 53.4795 106.237 53.2702 104.983C52.7456 101.845 51.0526 99.0212 48.5312 97.08L39 86.5938L55.9713 87.6269Z" fill="#E8955D"/>
<path d="M48.6285 14.9778C52.0757 17.8089 54.5108 21.6824 55.5678 26.0161C56.6249 30.3498 56.2467 34.9095 54.4902 39.0099L53.4132 41.5223H39V14.1562L48.6285 14.9778ZM63.3543 20.7289L63.3581 20.7232C64.0585 19.3228 65.1349 18.1451 66.4668 17.322C67.7987 16.4988 69.3334 16.0627 70.8992 16.0624H72.3613C73.0978 16.0606 73.8239 15.8875 74.4819 15.5566C75.14 15.2258 75.7121 14.7463 76.1528 14.1562C75.7125 13.5656 75.1405 13.0858 74.4824 12.7549C73.8242 12.424 73.0979 12.2511 72.3613 12.2499C67.8625 12.2499 63.4362 11.2529 59.3759 9.3772C58.9079 10.6279 58.1714 11.7608 57.2182 12.6962C56.2651 13.6315 55.1185 14.3466 53.8592 14.7909C56.1296 17.3571 57.8299 20.3757 58.8479 23.6474C59.7906 23.6033 60.7047 23.3099 61.4971 22.7972C62.2894 22.2845 62.9316 21.5708 63.3581 20.7289H63.3543ZM72.3594 52.2812C67.8606 52.2812 63.4343 51.2842 59.374 49.4084C58.906 50.6592 58.1695 51.7921 57.2163 52.7274C56.2632 53.6628 55.1166 54.3778 53.8573 54.8222C56.1277 57.3884 57.828 60.4069 58.846 63.6786C59.7887 63.6345 60.7028 63.3411 61.4952 62.8284C62.2875 62.3157 62.9297 61.602 63.3562 60.7602L63.36 60.7544C64.0604 59.3541 65.1368 58.1764 66.4687 57.3532C67.8006 56.53 69.3354 56.0939 70.9011 56.0937H72.3632C73.0997 56.0919 73.8258 55.9187 74.4839 55.5879C75.1419 55.257 75.714 54.7775 76.1547 54.1874C75.7144 53.5968 75.1424 53.1171 74.4843 52.7862C73.8261 52.4553 73.0998 52.2823 72.3632 52.2812H72.3594ZM48.6285 55.009C52.0757 57.8401 54.5108 61.7136 55.5678 66.0473C56.6249 70.381 56.2467 74.9407 54.4902 79.0411L53.4132 81.5535H39V54.1855L48.6285 55.009Z" fill="#FCB681"/>
<path d="M5.65588 44.1148L5.34516 44.0271C4.05755 43.6593 2.92478 42.8821 2.11824 41.8132C1.3117 40.7442 0.875272 39.4416 0.875 38.1025C0.875 35.1535 2.75456 32.643 5.38138 31.707L44.2956 32.9842C45.0272 33.6211 45.6137 34.4076 46.0152 35.2906C46.4167 36.1736 46.6241 37.1325 46.6231 38.1025C46.6231 39.191 46.3372 40.228 45.8282 41.1296L31.3731 46.5624H16.1231L5.65397 44.1148H5.65588ZM6.32306 83.7114C5.26413 83.2138 4.36873 82.425 3.74153 81.4373C3.11433 80.4496 2.78126 79.3038 2.78125 78.1338C2.78069 76.9709 3.07895 75.8274 3.64742 74.813C4.21589 73.7986 5.03548 72.9472 6.02759 72.3407H45.283C46.2754 72.947 47.0952 73.7982 47.6637 74.8127C48.2322 75.8272 48.5303 76.9708 48.5293 78.1338C48.5293 79.1498 48.2815 80.1201 47.8336 80.9779L38.9981 86.5956L21.8418 88.5018L6.32116 83.7133L6.32306 83.7114Z" fill="#E8955D"/>
<path d="M2.78128 49.7917V65.5068C2.78107 67.6444 3.56168 69.7084 4.97636 71.3109C6.39104 72.9134 8.34235 73.944 10.4635 74.2088C15.5026 74.8382 20.576 75.154 25.6544 75.1543C30.7326 75.1543 35.809 74.8379 40.8472 74.2088C42.9681 73.9436 44.9192 72.9129 46.3338 71.3105C47.7484 69.7081 48.5292 67.6443 48.5294 65.5068V55.9622C48.5294 53.7986 50.001 51.9133 52.0998 51.3891C53.3669 51.072 54.4743 50.3026 55.2135 49.2257C55.9526 48.1489 56.2726 46.8389 56.113 45.5425C55.9534 44.2461 55.3253 43.0529 54.347 42.1874C53.3687 41.322 52.1078 40.8441 50.8016 40.8438C46.7643 40.8436 42.7467 41.4063 38.8647 42.5155L37.1319 43.0112C31.0271 44.7557 24.6104 45.119 18.3477 44.0748L10.9762 42.8472C9.96748 42.6792 8.93422 42.7329 7.9483 43.0046C6.96239 43.2763 6.04749 43.7595 5.26722 44.4206C4.48694 45.0816 3.86003 45.9047 3.43007 46.8326C3.0001 47.7605 2.77741 48.7709 2.77747 49.7936L2.78128 49.7917Z" fill="#FEC99C"/>
<path d="M56.1562 46.1965C56.1562 44.7769 55.5923 43.4154 54.5884 42.4115C53.5846 41.4077 52.2231 40.8438 50.8035 40.8438C46.7661 40.8436 42.7485 41.4063 38.8665 42.5155L37.1337 43.0112C31.0289 44.7557 24.6123 45.119 18.3495 44.0748L10.9781 42.8472C10.5956 42.7841 10.2086 42.7522 9.82099 42.7519C9.63799 42.7519 9.46642 42.7919 9.28724 42.8053C8.77571 43.7862 8.50518 44.8748 8.49805 45.9811V61.6962C8.49784 63.8338 9.27845 65.8979 10.6931 67.5003C12.1078 69.1028 14.0591 70.1334 16.1802 70.3983C21.2204 71.0292 26.2929 71.3438 31.3711 71.3438H31.373C36.4513 71.3438 41.5257 71.0273 46.564 70.3983C46.745 70.3754 46.9128 70.3163 47.092 70.282C48.0262 68.8643 48.5257 67.2046 48.5293 65.5068V55.9603C48.5293 53.7967 50.0009 51.9114 52.0997 51.3872C53.2578 51.0977 54.2858 50.4294 55.0205 49.4886C55.7551 48.5477 56.1542 47.3883 56.1543 46.1946L56.1562 46.1965Z" fill="#FEDAB6"/>
<path d="M2.78128 9.76044V25.4756C2.78107 27.6132 3.56168 29.6772 4.97636 31.2797C6.39104 32.8822 8.34235 33.9127 10.4635 34.1776C15.5026 34.807 20.576 35.1227 25.6544 35.1231C30.7326 35.1231 35.809 34.8067 40.8472 34.1776C42.9681 33.9123 44.9192 32.8817 46.3338 31.2793C47.7484 29.6769 48.5292 27.613 48.5294 25.4756V15.931C48.5294 13.7674 50.001 11.8821 52.0998 11.3579C53.3669 11.0408 54.4743 10.2713 55.2135 9.19448C55.9526 8.11761 56.2726 6.80762 56.113 5.51125C55.9534 4.21488 55.3253 3.0216 54.347 2.15615C53.3687 1.2907 52.1078 0.812816 50.8016 0.8125C46.7643 0.812385 42.7467 1.37506 38.8647 2.48428L37.1319 2.97991C31.0271 4.72443 24.6104 5.08778 18.3477 4.04359L10.9762 2.81597C9.96748 2.64792 8.93422 2.70162 7.9483 2.97333C6.96239 3.24503 6.04749 3.72822 5.26722 4.3893C4.48694 5.05038 3.86003 5.87349 3.43007 6.80138C3.0001 7.72927 2.77741 8.73968 2.77747 9.76234L2.78128 9.76044Z" fill="#FEC99C"/>
<path d="M56.1562 6.16525C56.1562 4.74561 55.5923 3.38412 54.5884 2.38028C53.5846 1.37645 52.2231 0.8125 50.8035 0.8125C46.7661 0.812385 42.7485 1.37506 38.8665 2.48428L37.1337 2.97991C31.0289 4.72443 24.6123 5.08778 18.3495 4.04359L10.9781 2.81597C10.5956 2.75285 10.2086 2.72098 9.82099 2.72066C9.63799 2.72066 9.46642 2.76069 9.28724 2.77403C8.77571 3.75494 8.50518 4.84359 8.49805 5.94984V21.6631C8.49784 23.8006 9.27845 25.8647 10.6931 27.4672C12.1078 29.0697 14.0591 30.1002 16.1802 30.3651C21.2204 30.9961 26.2929 31.3106 31.3711 31.3106H31.373C36.4513 31.3106 41.5257 30.9942 46.564 30.3651C46.745 30.3422 46.9128 30.2831 47.092 30.2488C48.0262 28.8312 48.5257 27.1714 48.5293 25.4737V15.9272C48.5293 13.7636 50.0009 11.8783 52.0997 11.3541C53.2578 11.0646 54.2858 10.3963 55.0205 9.45542C55.7551 8.51457 56.1542 7.35514 56.1543 6.16144L56.1562 6.16525Z" fill="#FEDAB6"/>
<path d="M2.78128 89.8229V105.538C2.78107 107.676 3.56168 109.74 4.97636 111.342C6.39104 112.945 8.34235 113.975 10.4635 114.24C15.5026 114.869 20.576 115.185 25.6544 115.186C30.7326 115.186 35.809 114.869 40.8472 114.24C42.9681 113.975 44.9192 112.944 46.3338 111.342C47.7484 109.739 48.5292 107.676 48.5294 105.538V95.9935C48.5294 93.8299 50.001 91.9446 52.0998 91.4204C53.3669 91.1033 54.4743 90.3338 55.2135 89.257C55.9526 88.1801 56.2726 86.8701 56.113 85.5738C55.9534 84.2774 55.3253 83.0841 54.347 82.2187C53.3687 81.3532 52.1078 80.8753 50.8016 80.875C46.7643 80.8749 42.7467 81.4376 38.8647 82.5468L37.1319 83.0424C31.0271 84.7869 24.6104 85.1503 18.3477 84.1061L10.9762 82.8785C9.96748 82.7104 8.93422 82.7641 7.9483 83.0358C6.96239 83.3075 6.04749 83.7907 5.26722 84.4518C4.48694 85.1129 3.86003 85.936 3.43007 86.8639C3.0001 87.7918 2.77741 88.8022 2.77747 89.8248L2.78128 89.8229Z" fill="#FEC99C"/>
<path d="M72.3594 92.3124C67.8606 92.3124 63.4343 91.3154 59.374 89.4397C58.8564 90.8304 58.0079 92.0742 56.9019 93.0636C55.796 94.053 54.4658 94.7582 53.0262 95.1184C52.8312 95.1673 52.6581 95.28 52.5344 95.4385C52.4108 95.597 52.3437 95.7923 52.3438 95.9934V96.2259C52.7795 97.1963 53.0908 98.2179 53.2702 99.2664C53.4795 100.52 54.1268 101.659 55.0968 102.48C56.0668 103.301 57.2967 103.752 58.5677 103.752C59.5615 103.751 60.5355 103.475 61.3809 102.952C62.2263 102.43 62.9095 101.682 63.3543 100.793L63.3581 100.788C64.0585 99.3873 65.1349 98.2095 66.4668 97.3864C67.7987 96.5632 69.3334 96.1271 70.8992 96.1268H72.3613C73.0978 96.125 73.8239 95.9519 74.4819 95.621C75.14 95.2902 75.7121 94.8107 76.1528 94.2206C75.7125 93.63 75.1405 93.1502 74.4824 92.8193C73.8242 92.4884 73.0979 92.3155 72.3613 92.3143L72.3594 92.3124Z" fill="#FCB681"/>
<path d="M56.1562 86.2277C56.1562 84.8081 55.5923 83.4466 54.5884 82.4428C53.5846 81.439 52.2231 80.875 50.8035 80.875C46.7661 80.8749 42.7485 81.4376 38.8665 82.5468L37.1337 83.0424C31.0289 84.7869 24.6123 85.1503 18.3495 84.1061L10.9781 82.8785C10.5956 82.8153 10.2086 82.7835 9.82099 82.7832C9.63799 82.7832 9.46642 82.8232 9.28724 82.8365C8.77571 83.8174 8.50518 84.9061 8.49805 86.0123V101.727C8.49784 103.865 9.27845 105.929 10.6931 107.532C12.1078 109.134 14.0591 110.165 16.1802 110.43C21.2204 111.06 26.2929 111.375 31.3711 111.375H31.373C36.4513 111.375 41.5257 111.059 46.564 110.43C46.745 110.407 46.9128 110.348 47.092 110.313C48.0262 108.896 48.5257 107.236 48.5293 105.538V95.9916C48.5293 93.828 50.0009 91.9427 52.0997 91.4185C53.2578 91.129 54.2858 90.4607 55.0205 89.5198C55.7551 88.579 56.1542 87.4195 56.1543 86.2258L56.1562 86.2277Z" fill="#FEDAB6"/>
</svg>
