<svg width="127" height="129" viewBox="0 0 127 129" fill="none" xmlns="http://www.w3.org/2000/svg">
<path d="M97.9925 25.6234V43.7847H80.5657V26.3631C80.5657 20.6113 75.9041 15.9496 70.1522 15.9496H67.7279C59.6884 12.5538 59.7506 3.45503 65.6178 0H72.3689C86.5201 0 97.9925 11.4724 97.9925 25.6234Z" fill="#FF6E80"/>
<path d="M67.7282 15.9499H56.8476C51.0958 15.9499 46.4342 20.6115 46.4342 26.3634V43.7849H29.0076V25.6236C29.0073 11.4724 40.4797 0 54.6309 0H65.6179C63.1054 4.69288 63.4869 11.3245 67.7282 15.9499Z" fill="#FD5C6F"/>
<path d="M116.831 86.3937L126.702 106.31C126.702 119.233 116.224 129 103.298 129H87.7348C47.548 116.53 46.227 61.4128 71.6654 43.7847H103.298C116.224 43.7847 126.702 53.5519 126.702 66.4751L116.831 86.3937Z" fill="#E8ECF9"/>
<path d="M87.7349 129H23.702C10.7761 129 0.297852 119.233 0.297852 106.31L10.8489 86.3937L0.297852 66.4753C0.297852 53.5519 10.7761 43.7849 23.702 43.7849H71.6656C55.6925 68.0483 58.4776 106.982 87.7349 129Z" fill="#D7DDF5"/>
<path d="M51.4566 41.35V46.8267C51.4566 49.5987 49.2062 51.8466 46.4342 51.8466H40.2437C31.0212 48.1386 31.7068 40.1618 37.5677 36.3303H46.4342C49.2062 36.3301 51.4566 38.578 51.4566 41.35Z" fill="#7888AF"/>
<path d="M40.2436 51.8466H29.0072C26.2352 51.8466 23.9873 49.5989 23.9873 46.8267V41.35C23.9873 38.578 26.235 36.3301 29.0072 36.3301H37.5673C35.3925 41.0514 35.9919 47.4289 40.2436 51.8466Z" fill="#687DAA"/>
<path d="M103.012 41.35V46.8267C103.012 49.5987 100.764 51.8466 97.9922 51.8466H92.0069C81.5624 49.0111 82.3102 39.5384 89.3309 36.3303H97.9922C100.764 36.3301 103.012 38.578 103.012 41.35Z" fill="#7888AF"/>
<path d="M92.0071 51.8466H80.5659C77.7939 51.8466 75.5435 49.5989 75.5435 46.8267V41.35C75.5435 38.578 77.7939 36.3301 80.5659 36.3301H89.3311C87.1585 41.0514 87.7581 47.4289 92.0071 51.8466Z" fill="#687DAA"/>
<path d="M89.056 89.5862C89.056 100.397 82.3465 109.637 72.8622 113.372C58.2502 101.67 51.4566 80.407 63.3676 64.0354C77.5269 63.951 89.0606 75.4312 89.056 89.5862Z" fill="#FF6E80"/>
<path d="M72.8623 113.372C69.9631 114.514 66.8043 115.142 63.5 115.142C49.3853 115.142 37.9438 103.701 37.9438 89.5862C37.9438 75.5182 49.3125 64.1054 63.3674 64.0354C59.9855 80.1513 62.7368 98.297 72.8623 113.372Z" fill="#FD5C6F"/>
<path d="M77.729 89.5862C77.729 92.0937 75.6968 94.1234 73.1919 94.1234H68.0369V99.2809C68.0369 100.423 67.6139 101.466 66.9157 102.263C61.4818 94.6497 59.5488 84.0188 62.018 75.6066C62.4946 75.4414 62.9955 75.3571 63.5 75.3574C66.0046 75.3574 68.0371 77.3897 68.0371 79.8946V85.0521H73.1921C75.6965 85.0518 77.729 87.0816 77.729 89.5862Z" fill="#E8ECF9"/>
<path d="M66.9158 102.263C66.4909 102.751 65.966 103.143 65.3766 103.41C64.7873 103.678 64.1474 103.816 63.5001 103.815C60.9954 103.815 58.9629 101.785 58.9629 99.2807V94.1232H53.8079C51.3033 94.1232 49.2708 92.0935 49.2708 89.5861C49.2708 87.0814 51.303 85.0517 53.8079 85.0517H58.9629V79.8944C58.9629 77.9088 60.2398 76.2192 62.0178 75.6064C61.7792 84.5095 63.3494 93.6483 66.9158 102.263Z" fill="#D7DDF5"/>
<path d="M109.811 77.4098V95.3754C109.811 101.414 114.706 106.309 120.744 106.309H126.689C126.696 106.073 126.701 105.836 126.701 105.598V67.1873C126.701 66.9492 126.697 66.7124 126.689 66.4761H120.744C114.706 66.4763 109.811 71.3713 109.811 77.4098Z" fill="#FF6E80"/>
<path d="M6.25576 66.4763H0.31067C0.303182 66.7133 0.299234 66.9504 0.298828 67.1876V105.598C0.298828 105.836 0.303363 106.073 0.31067 106.309H6.25576C12.2941 106.309 17.1893 101.414 17.1893 95.3756V77.4101C17.1893 71.3713 12.2941 66.4763 6.25576 66.4763Z" fill="#FD5C6F"/>
</svg>
