<svg width="129" height="107" viewBox="0 0 129 107" fill="none" xmlns="http://www.w3.org/2000/svg">
<path d="M127.053 25.964C127.224 26.579 127.465 27.1686 127.406 27.7314C126.947 32.1532 125.391 34.8624 122.22 33.6473L8.4301 32.2943C4.86119 33.6621 4.23584 30.9413 1.9466 25.9642C3.52735 20.458 -2.76946 15.3719 1.52886 10.8138C4.46184 7.70492 16.5649 3.98634 34.9676 1.93343C43.5408 0.979785 53.4818 0.387695 64.5 0.387695C99.1665 0.387695 123.17 6.25518 127.471 10.8138C131.769 15.3719 125.473 20.458 127.053 25.964Z" fill="#FF6378"/>
<path d="M40.4495 35.2557H7.09616C3.52724 36.6233 0.365988 31.4701 1.94649 25.9639C3.52699 20.4577 -2.76957 15.3718 1.5285 10.8134C4.46174 7.70484 16.5648 3.98626 34.9675 1.93335C30.2149 9.44886 30.8067 15.8094 36.0577 17.8769C40.1559 19.4897 40.6284 28.8425 40.4495 35.2557Z" fill="#FF405C"/>
<path d="M121.891 35.2517L121.881 35.2507C121.881 35.2507 119.447 28.0657 109.231 28.0657C99.1762 28.0657 96.6508 35.0153 96.5727 35.234L96.5682 35.2565L96.1416 35.257L96.1532 35.2207C95.5768 34.0957 94.6236 32.7321 92.7819 30.9533C90.5171 28.7656 86.6561 26.8057 80.4709 26.8057C74.2882 26.8057 70.7473 29.1995 68.0653 30.8495C67.5069 31.193 64.8075 34.8596 64.742 35.2224L64.7342 35.257L64.2625 35.258L64.2524 35.2169C64.2524 35.2169 61.2295 26.6933 48.5631 26.6933C36.1252 26.6933 32.9611 34.9088 32.8495 35.2061V35.2177C32.8495 35.2234 32.8495 35.2292 32.847 35.2353H32.4396C32.3774 35.0574 29.8543 28.0143 19.7681 28.0143C9.71291 28.0143 7.17171 35.0136 7.09663 35.2323V35.2353C3.9195 36.4542 1.06437 32.5026 1.59397 27.7344C2.13643 27.8102 2.70484 27.749 3.28357 27.5273V27.5245C3.36394 27.2912 6.0737 19.8281 16.7961 19.8281C27.5547 19.8281 30.2438 27.3378 30.3113 27.5273H30.7447C30.7472 27.5215 30.7472 27.5157 30.7472 27.5097V27.4981C30.8666 27.1803 34.2408 18.4194 47.5044 18.4194C61.0118 18.4194 64.2587 27.5097 64.2587 27.5097V27.5273H64.7415V27.5127C65.322 26.2479 66.1854 24.6303 68.2351 22.8085C70.7554 20.5893 74.9058 18.4225 81.4984 18.4225C88.0938 18.4225 92.2442 20.5893 94.7645 22.8085C95.4135 23.0652 98.3493 27.0226 98.2555 27.5127V27.5273H98.6889V27.5245C98.772 27.2912 101.479 19.8281 112.204 19.8281C123.098 19.8281 125.717 27.5273 125.717 27.5273H125.719C126.298 27.749 126.866 27.8102 127.406 27.7314C127.938 32.4996 125.071 36.4676 121.891 35.2517Z" fill="#FF405C"/>
<path d="M27.6404 54.4538C25.1616 55.2442 21.2163 55.3755 17.8291 55.2092C15.1919 55.0809 12.8948 54.7718 11.8983 54.4538C7.4884 53.0482 6.42944 43.0917 7.09661 35.2525V35.2497C7.16413 35.06 9.16011 29.554 16.5859 28.2912C17.5514 28.125 18.6104 28.0317 19.7681 28.0317C29.9843 28.0317 32.4396 35.2555 32.4396 35.2555H32.4421C33.1093 43.0948 32.0475 53.0484 27.6404 54.4538Z" fill="#FFF1DF"/>
<path d="M17.8291 55.2094C15.1919 55.0812 12.8948 54.772 11.8983 54.4541C7.4884 53.0484 6.42944 43.092 7.09661 35.2527V35.2499C7.16413 35.0602 9.16011 29.5543 16.5859 28.2915C9.56222 38.3908 14.1279 54.8768 17.8291 55.2094Z" fill="#ECD5AF"/>
<path d="M90.1989 57.8921C86.1706 59.114 79.0119 58.9974 74.3944 58.5104C72.7461 58.3383 71.4223 58.1166 70.6801 57.8921C65.2165 56.2327 63.9005 44.4884 64.7259 35.238C65.2719 34.0482 66.0812 32.5403 68.0016 30.8255C69.2968 29.6882 71.0487 28.5625 73.3823 27.7809C75.3132 27.1306 77.6415 26.7136 80.4397 26.7136C86.6249 26.7136 90.5158 28.7461 92.8804 30.8255C93.9164 31.5834 96.242 34.7754 96.1533 35.238C96.9787 44.4887 95.6652 56.2327 90.1989 57.8921Z" fill="#FFF1DF"/>
<path d="M74.3944 58.5105C72.7461 58.3384 71.4223 58.1167 70.6801 57.8922C65.2165 56.2328 63.9005 44.4885 64.7259 35.2381C65.2719 34.0483 66.0812 32.5404 68.0016 30.8256C69.2968 29.6883 71.0487 28.5626 73.3823 27.781C69.4394 37.8833 70.7425 46.8511 74.3944 58.5105Z" fill="#ECD5AF"/>
<path d="M58.3226 57.8922C54.8628 58.9421 49.0903 59.0033 44.605 58.6941C42.0069 58.5135 39.8396 58.2043 38.8038 57.8922C33.3374 56.2328 32.0243 44.4857 32.8497 35.235V35.2265C32.9353 34.9932 34.856 30.009 41.5032 27.7752C43.4345 27.1279 45.7625 26.7107 48.5632 26.7107C61.2297 26.7107 64.2743 35.2353 64.2743 35.2353V35.2383C65.0997 44.4888 63.7862 56.2328 58.3226 57.8922Z" fill="#FFF1DF"/>
<path d="M44.605 58.6943C42.0069 58.5137 39.8396 58.2045 38.8038 57.8924C33.3374 56.233 32.0243 44.4859 32.8497 35.2352V35.2267C32.9353 34.9933 34.856 30.0092 41.5032 27.7754C38.1366 39.5106 40.9167 52.0886 44.605 58.6943Z" fill="#ECD5AF"/>
<path d="M117.104 54.4538C113.995 55.4425 108.57 55.3959 104.846 55.0285C103.291 54.8738 102.032 54.6667 101.362 54.4538C96.9553 53.0454 95.8936 43.0917 96.5607 35.2525V35.2497C96.6205 35.0834 98.0999 31.0005 103.224 29.0524C104.841 28.4341 106.821 28.0317 109.232 28.0317C119.449 28.0317 121.907 35.2583 121.907 35.2583C122.574 43.0975 121.514 53.0454 117.104 54.4538Z" fill="#FFF1DF"/>
<path d="M104.845 55.0284C103.291 54.8737 102.032 54.6666 101.362 54.4537C96.9551 53.0452 95.8933 43.0916 96.5605 35.2523V35.2495C96.6202 35.0832 98.0997 31.0003 103.223 29.0522C101.305 35.7338 102.164 45.1798 104.845 55.0284Z" fill="#ECD5AF"/>
<path d="M127.054 81.0358C128.634 75.5299 125.473 70.3765 121.904 71.7443L112.33 78.1573L72.9672 83.0643H54.912L14.8734 80.1684L7.09637 71.7441C3.52745 70.3765 0.366194 75.5297 1.9467 81.0358C3.52745 86.5418 -2.76936 91.6279 1.52871 96.1863C4.46169 99.2951 16.5648 103.013 34.9674 105.067C43.5406 106.02 53.4817 106.612 64.4999 106.612C99.1663 106.612 123.17 100.745 127.471 96.1863C131.77 91.6279 125.473 86.5418 127.054 81.0358Z" fill="#FF6378"/>
<path d="M8.40269 71.7438H7.09707C6.1588 71.384 5.24975 71.479 4.44653 71.9088C4.3397 76.1131 4.28931 82.1686 4.28931 83.5062C4.28931 84.7859 4.33365 86.0605 4.41957 87.2757C4.41957 87.2757 6.17039 93.5536 13.4511 93.5536C20.6154 93.5536 22.4272 87.4699 22.4798 87.281L22.6184 87.354C22.635 88.4475 22.6821 89.5251 22.7542 90.5672C22.7542 90.5672 24.6602 97.4042 32.5889 97.4042C40.396 97.4042 42.3657 90.7778 42.4267 90.5727V90.5566H42.5819C42.6013 91.6556 42.6484 92.7438 42.7232 93.7942H42.726C42.726 93.7942 44.8205 101.309 53.5361 101.309C62.1133 101.309 64.2796 94.0265 64.3461 93.7997H64.6621C64.7258 94.0265 66.8893 101.309 75.4693 101.309C84.0463 101.309 86.2129 94.0265 86.2794 93.7997V93.797C86.3542 92.7438 86.4013 91.6556 86.4207 90.5566H86.5759V90.5674H86.5787C86.5787 90.5674 88.4847 97.4044 96.4137 97.4044C104.218 97.4044 106.19 90.7781 106.248 90.573V90.5702C106.321 89.5279 106.368 88.4478 106.384 87.3543L106.526 87.2812C106.578 87.4702 108.387 93.5538 115.554 93.5538C122.719 93.5538 124.53 87.4702 124.583 87.2812V87.2784C124.73 85.1756 124.76 77.4984 124.639 71.9542C123.816 71.4855 122.876 71.3721 121.906 71.744H120.6L109.235 78.5435L69.4482 85.5027L17.829 77.8025L8.40269 71.7438Z" fill="#FF405C"/>
<path d="M7.09637 71.744C3.52745 70.3764 0.366194 75.5296 1.9467 81.0357C3.52745 86.5417 -2.76936 91.6279 1.52871 96.1862C4.46169 99.295 16.5648 103.013 34.9674 105.067C30.2148 97.551 30.8067 91.1905 36.0576 89.1229C40.1561 87.5099 7.09637 71.744 7.09637 71.744ZM10.0185 18.4141C9.5534 18.414 9.10366 18.2475 8.7507 17.9446C8.39775 17.6417 8.1649 17.2224 8.09432 16.7627C8.02374 16.3029 8.12008 15.8331 8.3659 15.4383C8.61173 15.0434 8.9908 14.7496 9.43449 14.6101C22.1506 10.6075 42.7354 8.21802 64.4988 8.21802C86.2638 8.21802 106.85 10.6075 119.565 14.6101C120.053 14.7694 120.457 15.1144 120.692 15.5703C120.926 16.0262 120.971 16.5561 120.818 17.0451C120.664 17.5341 120.323 17.9426 119.87 18.182C119.416 18.4214 118.887 18.4724 118.396 18.3239C113.767 16.8666 96.1961 12.1114 64.4988 12.1114C32.8039 12.1114 15.2337 16.8666 10.6036 18.3239C10.4143 18.3836 10.217 18.414 10.0185 18.4141Z" fill="#FF405C"/>
<path d="M47.9353 67.8796C50.4205 66.8909 54.7559 66.9375 57.7327 67.3049C58.9753 67.4596 59.9814 67.6667 60.5165 67.8796C64.0388 69.288 64.8874 79.2417 64.3543 87.0809V87.0837C64.3067 87.25 63.1243 91.3329 59.0293 93.281C57.737 93.8993 56.154 94.3016 54.227 94.3016C46.062 94.3016 44.0998 87.0779 44.0998 87.0779H44.0978C43.5644 79.2386 44.4109 69.288 47.9353 67.8796Z" fill="#FFF1DF"/>
<path d="M57.7327 67.3049C58.9753 67.4596 59.9813 67.6667 60.5165 67.8796C64.0388 69.2881 64.8874 79.2417 64.3542 87.081V87.0838C64.3066 87.25 63.1242 91.3329 59.0292 93.281C60.5624 86.5995 59.8758 77.1535 57.7327 67.3049Z" fill="#ECD5AF"/>
<path d="M68.4843 67.8796C70.9696 66.8909 75.305 66.9375 78.2818 67.3049C79.5244 67.4596 80.5305 67.6667 81.0656 67.8796C84.5879 69.288 85.4365 79.2417 84.9034 87.0809V87.0837C84.8557 87.25 83.6733 91.3329 79.5783 93.281C78.2861 93.8993 76.703 94.3016 74.7761 94.3016C66.6111 94.3016 64.6488 87.0779 64.6488 87.0779H64.6468C64.1134 79.2386 64.96 69.288 68.4843 67.8796Z" fill="#FFF1DF"/>
<path d="M78.282 67.3049C79.5246 67.4596 80.5307 67.6667 81.0658 67.8796C84.5881 69.2881 85.4367 79.2417 84.9036 87.081V87.0838C84.8559 87.25 83.6735 91.3329 79.5785 93.281C81.1117 86.5995 80.4248 77.1535 78.282 67.3049Z" fill="#ECD5AF"/>
<path d="M88.6746 66.5079C90.9359 65.6084 94.8805 65.6508 97.589 65.9851C98.7195 66.1257 99.6351 66.3141 100.122 66.5079C103.327 67.7893 104.099 76.8458 103.614 83.9786V83.9811C103.57 84.1325 102.494 87.8473 98.7686 89.6198C97.5927 90.1824 96.1526 90.5485 94.3992 90.5485C86.9702 90.5485 85.1848 83.9758 85.1848 83.9758H85.183C84.6975 76.8433 85.4678 67.7896 88.6746 66.5079Z" fill="#FFF1DF"/>
<path d="M97.5891 65.9851C98.7196 66.1257 99.6352 66.3142 100.122 66.5079C103.327 67.7893 104.099 76.8458 103.614 83.9786V83.9811C103.57 84.1325 102.495 87.8473 98.7688 89.6198C100.164 83.5407 99.539 74.9461 97.5891 65.9851Z" fill="#ECD5AF"/>
<path d="M28.8789 66.5079C31.1402 65.6084 35.0847 65.6508 37.7932 65.9851C38.9237 66.1257 39.8393 66.3141 40.3261 66.5079C43.531 67.7893 44.3029 76.8458 43.8179 83.9786V83.9811C43.7746 84.1325 42.6987 87.8473 38.9729 89.6198C37.797 90.1824 36.3568 90.5485 34.6035 90.5485C27.1744 90.5485 25.3891 83.9758 25.3891 83.9758H25.3873C24.902 76.8433 25.672 67.7896 28.8789 66.5079Z" fill="#FFF1DF"/>
<path d="M37.7935 65.9851C38.924 66.1257 39.8396 66.3142 40.3263 66.5079C43.5312 67.7893 44.3032 76.8458 43.8182 83.9786V83.9811C43.7748 84.1325 42.699 87.8473 38.9731 89.6198C40.3679 83.5407 39.7431 74.9461 37.7935 65.9851Z" fill="#ECD5AF"/>
<path d="M107.075 64.7747C109.151 63.9488 112.773 63.9879 115.26 64.2948C116.298 64.424 117.139 64.5968 117.586 64.7747C120.528 65.9513 121.237 74.2666 120.792 80.8153V80.8176C120.752 80.9564 119.764 84.3674 116.343 85.9947C115.264 86.5112 113.941 86.8473 112.331 86.8473C105.511 86.8473 103.871 80.8125 103.871 80.8125H103.869C103.424 74.264 104.131 65.9513 107.075 64.7747Z" fill="#FFF1DF"/>
<path d="M115.26 64.2944C116.298 64.4237 117.138 64.5965 117.585 64.7744C120.528 65.951 121.237 74.2662 120.791 80.815V80.8173C120.752 80.9561 119.764 84.367 116.343 85.9944C117.624 80.4131 117.05 72.522 115.26 64.2944Z" fill="#ECD5AF"/>
<path d="M11.4156 64.7747C13.4917 63.9488 17.1135 63.9879 19.6005 64.2948C20.6386 64.424 21.4791 64.5968 21.926 64.7747C24.8686 65.9513 25.5773 74.2666 25.1321 80.8153V80.8176C25.0923 80.9564 24.1044 84.3674 20.6837 85.9947C19.604 86.5112 18.2818 86.8473 16.6718 86.8473C9.85093 86.8473 8.21147 80.8125 8.21147 80.8125H8.20971C7.764 74.264 8.47123 65.9513 11.4156 64.7747Z" fill="#FFF1DF"/>
<path d="M19.6001 64.2944C20.6381 64.4237 21.4787 64.5965 21.9256 64.7744C24.8682 65.951 25.5769 74.2662 25.1317 80.815V80.8173C25.0919 80.9561 24.104 84.367 20.6832 85.9944C21.9639 80.4131 21.3902 72.522 19.6001 64.2944Z" fill="#ECD5AF"/>
</svg>
