<svg width="122" height="121" viewBox="0 0 122 121" fill="none" xmlns="http://www.w3.org/2000/svg">
<path d="M64.5312 24.2188H8.09375C5.95544 24.2188 3.90471 25.0682 2.3927 26.5802C0.88069 28.0922 0.03125 30.1429 0.03125 32.2812V108.875C0.03125 112.082 1.30541 115.159 3.57343 117.427C5.84145 119.695 8.91754 120.969 12.125 120.969H60.5C63.7075 120.969 66.7836 119.695 69.0516 117.427C71.3196 115.159 72.5938 112.082 72.5938 108.875V32.2812C72.5938 30.1429 71.7443 28.0922 70.2323 26.5802C68.7203 25.0682 66.6696 24.2188 64.5312 24.2188Z" fill="#CCCCCC"/>
<path d="M0.03125 40.3438H72.5938V104.844H0.03125V40.3438Z" fill="#FB5858"/>
<path d="M0.03125 40.3438V98.7969H54.4531C57.126 98.7969 59.6894 97.7351 61.5794 95.8451C63.4695 93.955 64.5312 91.3916 64.5312 88.7188V40.3438H0.03125Z" fill="#F44545"/>
<path d="M88.7188 78.6406V72.5938H68.5625V78.6406L62.5156 84.6875V120.969H94.7656V84.6875L88.7188 78.6406Z" fill="#CCCCCC"/>
<path d="M78.6406 116.938C80.7789 116.938 82.8297 116.088 84.3417 114.576C85.8537 113.064 86.7031 111.013 86.7031 108.875V72.5938H68.5625V78.6406L62.5156 84.6875V116.938H78.6406Z" fill="#F2F2F2"/>
<path d="M36.3125 92.75C47.4445 92.75 56.4688 83.7257 56.4688 72.5938C56.4688 61.4618 47.4445 52.4375 36.3125 52.4375C25.1805 52.4375 16.1562 61.4618 16.1562 72.5938C16.1562 83.7257 25.1805 92.75 36.3125 92.75Z" fill="#F2F2F2"/>
<path d="M62.5156 84.6875H94.7656V112.906H62.5156V84.6875Z" fill="#3B9DAF"/>
<path d="M86.7031 108.875V84.6875H62.5156V112.906H85.5845C86.3096 111.686 86.6958 110.294 86.7031 108.875Z" fill="#77D5D8"/>
<path d="M10.1094 16.1562H62.5156V24.2188H10.1094V16.1562Z" fill="#F2F2F2"/>
<path d="M6.07812 0.03125H66.5469V16.1562H6.07812V0.03125Z" fill="#FB5858"/>
<path d="M26.2344 0.03125H46.3906V8.09375H26.2344V0.03125Z" fill="#F44545"/>
<path d="M66.5469 54.4531H62.5156V50.4219H58.4844V46.3906H64.5312C65.0658 46.3906 65.5785 46.603 65.9565 46.981C66.3345 47.359 66.5469 47.8717 66.5469 48.4062V54.4531ZM10.1094 54.4531H6.07812V48.4062C6.07812 47.8717 6.29049 47.359 6.66849 46.981C7.04649 46.603 7.55917 46.3906 8.09375 46.3906H14.1406V50.4219H10.1094V54.4531ZM14.1406 98.7969H8.09375C7.55917 98.7969 7.04649 98.5845 6.66849 98.2065C6.29049 97.8285 6.07812 97.3158 6.07812 96.7812V90.7344H10.1094V94.7656H14.1406V98.7969Z" fill="white"/>
<path d="M36.3125 84.6875C42.9917 84.6875 48.4062 79.2729 48.4062 72.5938C48.4062 65.9146 42.9917 60.5 36.3125 60.5C29.6333 60.5 24.2188 65.9146 24.2188 72.5938C24.2188 79.2729 29.6333 84.6875 36.3125 84.6875Z" fill="white"/>
<path d="M43.3128 62.7434L26.4622 79.594C27.2474 80.6957 28.2106 81.6589 29.3123 82.4441L46.1629 65.5935C45.3777 64.4918 44.4145 63.5286 43.3128 62.7434Z" fill="#F2F2F2"/>
<path d="M64.5312 64.5312H92.75V72.5938H64.5312V64.5312Z" fill="#3B9DAF"/>
<path d="M78.6406 104.844C81.9802 104.844 84.6875 102.136 84.6875 98.7969C84.6875 95.4573 81.9802 92.75 78.6406 92.75C75.301 92.75 72.5938 95.4573 72.5938 98.7969C72.5938 102.136 75.301 104.844 78.6406 104.844Z" fill="#F2F2F2"/>
<path d="M81.2328 93.3547L73.1985 101.389C73.7946 102.637 74.8006 103.643 76.0486 104.239L84.0829 96.2048C83.4867 94.9568 82.4808 93.9509 81.2328 93.3547Z" fill="#CCCCCC"/>
<path d="M121.364 50.3815L120.574 46.4309L100.813 50.3815L81.0514 46.4309L80.2612 50.3815L90.5349 52.4374L80.2612 54.4934L81.0514 58.444L100.813 54.4934L120.574 58.444L121.364 54.4934L111.09 52.4374L121.364 50.3815ZM118.953 18.1718C118.956 15.1451 118.201 12.1659 116.758 9.50543C115.315 6.84499 113.229 4.58792 110.69 2.93985C108.152 1.29177 105.241 0.305065 102.224 0.0696223C99.2062 -0.165821 96.1777 0.357481 93.4142 1.59185C90.6507 2.82623 88.2399 4.73244 86.4016 7.13684C84.5632 9.54124 83.3556 12.3674 82.8889 15.3579C82.4222 18.3483 82.7111 21.4081 83.7294 24.2583C84.7476 27.1085 86.4628 29.6587 88.7188 31.6765V36.3124H112.906V31.6765C114.81 29.9792 116.332 27.8985 117.374 25.5711C118.417 23.2436 118.955 20.722 118.953 18.1718Z" fill="#3B9DAF"/>
<path d="M94.7656 30.2656H98.7969V36.3125H94.7656V30.2656ZM102.828 30.2656H106.859V36.3125H102.828V30.2656Z" fill="#77D5D8"/>
<path d="M92.75 24.2188C94.9764 24.2188 96.7812 21.5115 96.7812 18.1719C96.7812 14.8323 94.9764 12.125 92.75 12.125C90.5236 12.125 88.7188 14.8323 88.7188 18.1719C88.7188 21.5115 90.5236 24.2188 92.75 24.2188Z" fill="#77D5D8"/>
<path d="M108.875 24.2188C111.101 24.2188 112.906 21.5115 112.906 18.1719C112.906 14.8323 111.101 12.125 108.875 12.125C106.649 12.125 104.844 14.8323 104.844 18.1719C104.844 21.5115 106.649 24.2188 108.875 24.2188Z" fill="#77D5D8"/>
<path d="M90.7344 36.3125V38.3281C90.7344 39.9319 91.3715 41.4699 92.5055 42.6039C93.6395 43.7379 95.1775 44.375 96.7812 44.375H104.844C106.447 44.375 107.986 43.7379 109.12 42.6039C110.254 41.4699 110.891 39.9319 110.891 38.3281V36.3125H90.7344Z" fill="#87D7CE"/>
<path d="M10.1094 20.1875H52.4375C53.5067 20.1875 54.532 19.7628 55.288 19.0068C56.044 18.2508 56.4688 17.2254 56.4688 16.1562H10.1094V20.1875Z" fill="white"/>
<path d="M64.5312 68.5625H84.6875C85.7567 68.5625 86.782 68.1378 87.538 67.3818C88.294 66.6258 88.7188 65.6004 88.7188 64.5312H64.5312V68.5625Z" fill="#77D5D8"/>
</svg>
