<svg width="95" height="95" viewBox="0 0 95 95" fill="none" xmlns="http://www.w3.org/2000/svg">
<g clip-path="url(#clip0_41_977)">
<path d="M50.0883 0C50.176 0 50.2627 0.0172628 50.3437 0.0508027C50.4247 0.0843426 50.4983 0.133503 50.5602 0.195476C50.6222 0.25745 50.6714 0.331024 50.7049 0.411996C50.7384 0.492969 50.7557 0.579754 50.7557 0.667398V41.7046C50.7557 44.9143 53.2359 47.5257 56.2845 47.5257H65.5894V53.9162L58.0036 54.2284H56.2845C53.0297 54.2284 50.0699 52.9177 47.8764 50.7874C47.7616 50.6755 47.6076 50.6128 47.4473 50.6126C47.2869 50.6124 47.1328 50.6748 47.0177 50.7864C44.816 52.9152 41.8212 54.2284 38.524 54.2284H36.9964L29.7571 53.4472V47.5257H38.524C41.5776 47.5257 44.053 45.0503 44.053 41.9967V0.667398C44.053 0.490393 44.1233 0.320638 44.2485 0.195476C44.3736 0.070315 44.5434 0 44.7204 0L50.0883 0Z" fill="#FAE2C0"/>
<path d="M65.5895 47.5255H56.2846C55.5374 47.5255 54.8246 47.3677 54.1738 47.0835V54.0375C54.86 54.1604 55.5645 54.2282 56.2846 54.2282H58.0038L65.5895 53.916V47.5255Z" fill="#FED2A4"/>
<path d="M73.6587 31.3801L70.3734 32.0234L61.4542 36.84L59.304 51.3111L60.164 79.8461L62.6584 87.3292L70.3734 93.006L75.5588 94.5428L75.5875 94.4748L77.9457 94.7587C85.965 93.408 92.0758 86.436 92.0758 78.0325V52.7143C92.0758 41.8737 84.0764 32.9043 73.6587 31.3801Z" fill="#F07281"/>
<path d="M40.8265 47.0229C40.1043 47.3547 39.3188 47.5261 38.524 47.5255H29.7571V53.447L36.9964 54.2282H38.524C39.2967 54.2278 40.0677 54.1542 40.8265 54.0083V47.0229Z" fill="#FED2A4"/>
<path d="M36.9965 56.7463V43.6552C36.9965 37.5417 32.6089 32.4561 26.8116 31.3672L21.1222 32.7259C21.1222 32.7259 20.9661 32.3515 20.7936 31.9432L12.1685 37.3841L5.98613 46.0892L4.78979 75.3291L7.18228 85.6716L12.0249 91.4248L18.8789 94.3491L19.2581 94.596L19.3594 94.217L22.8932 94.6768L22.9281 94.7315C30.9263 93.2987 36.9965 86.306 36.9965 77.8957V59.6191L36.0171 57.7197L36.9965 56.7463Z" fill="#F07281"/>
<path d="M9.2375 78.0328V52.7144C9.2375 42.0289 17.0132 33.1574 27.2124 31.4459C26.3185 31.248 25.4056 31.1483 24.49 31.1487C12.5797 31.1487 2.92432 40.8038 2.92432 52.7142V78.0326C2.92432 87.4034 10.5208 95 19.8918 95C20.9726 95 22.0309 94.8997 23.0562 94.708C15.1907 93.2311 9.2375 86.3271 9.2375 78.0328ZM63.8749 77.8955V43.6554C63.8749 37.6164 68.1551 32.5777 73.8472 31.4063C72.7432 31.2349 71.6275 31.1489 70.5102 31.1491C63.6032 31.1491 58.0037 36.7483 58.0037 43.6556V56.7467L59.0542 57.7977L58.0037 59.6193V77.8959C58.0037 87.3425 65.6617 95.0004 75.1083 95.0004C76.1076 95.0004 77.0864 94.9133 78.0381 94.7476C69.9934 93.3529 63.8749 86.3392 63.8749 77.8955Z" fill="#EB5569"/>
<path d="M80.2134 53.916H75.2528C74.6622 53.9144 74.0772 54.0299 73.5316 54.2559C72.986 54.4819 72.4906 54.8139 72.0742 55.2326L68.8571 58.4497C67.7002 57.351 66.1925 56.7463 64.5909 56.7463H58.0037L58.7408 58.1826L58.0037 59.6189H64.5909C65.4799 59.6189 66.3156 59.9651 66.9443 60.5938L70.9179 64.5674L67.5472 68.4909C67.1014 69.01 66.8562 69.6715 66.856 70.3556V78.7679C66.856 79.5613 67.4991 80.2042 68.2923 80.2042C69.0855 80.2042 69.7286 79.5613 69.7286 78.7679L69.7261 70.3627L72.9551 66.6044L75.4585 69.1078V74.7111C75.4585 75.5045 76.1016 76.1473 76.8948 76.1473C77.688 76.1473 78.3311 75.5045 78.3311 74.7111V68.995C78.3311 68.3006 78.0607 67.6475 77.5693 67.156L70.8913 60.4779L74.1053 57.2637C74.2556 57.1125 74.4345 56.9927 74.6314 56.9111C74.8284 56.8295 75.0396 56.7878 75.2528 56.7884H80.2134C80.4034 56.7906 80.5919 56.7551 80.7681 56.6839C80.9443 56.6127 81.1046 56.5072 81.2397 56.3737C81.3748 56.2401 81.4821 56.081 81.5553 55.9057C81.6286 55.7303 81.6663 55.5422 81.6663 55.3522C81.6663 55.1622 81.6286 54.9741 81.5553 54.7987C81.4821 54.6234 81.3748 54.4643 81.2397 54.3307C81.1046 54.1971 80.9443 54.0917 80.7681 54.0205C80.5919 53.9493 80.4034 53.9138 80.2134 53.916Z" fill="#FDDEB0"/>
<path d="M23.0463 39.9065L21.194 41.7588L19.3418 39.9065C19.2178 39.7825 19.0496 39.7129 18.8742 39.7129C18.6989 39.7129 18.5307 39.7825 18.4067 39.9065L15.0997 43.2135C14.9757 43.3375 14.9061 43.5057 14.9061 43.681C14.9061 43.8564 14.9757 44.0246 15.0997 44.1486L16.952 46.0008L15.0997 47.8531C15.0383 47.9145 14.9896 47.9874 14.9564 48.0676C14.9231 48.1478 14.906 48.2338 14.906 48.3206C14.906 48.4075 14.9231 48.4935 14.9564 48.5737C14.9896 48.6539 15.0383 48.7268 15.0997 48.7882L18.4067 52.0951C18.5307 52.2191 18.6989 52.2887 18.8742 52.2887C19.0496 52.2887 19.2178 52.2191 19.3418 52.0951L21.194 50.2429L23.0463 52.0951C23.1077 52.1566 23.1806 52.2053 23.2608 52.2385C23.341 52.2718 23.427 52.2889 23.5138 52.2889C23.6007 52.2889 23.6867 52.2718 23.7669 52.2385C23.8471 52.2053 23.92 52.1566 23.9814 52.0951L27.2883 48.7882C27.3497 48.7268 27.3985 48.6539 27.4317 48.5737C27.465 48.4935 27.4821 48.4075 27.4821 48.3206C27.4821 48.2338 27.465 48.1478 27.4317 48.0676C27.3985 47.9874 27.3497 47.9145 27.2883 47.8531L25.4361 46.0008L27.2883 44.1486C27.4123 44.0246 27.482 43.8564 27.482 43.681C27.482 43.5057 27.4123 43.3375 27.2883 43.2135L23.9814 39.9065C23.8574 39.7825 23.6892 39.7129 23.5138 39.7129C23.3385 39.7129 23.1703 39.7825 23.0463 39.9065Z" fill="#EB5569"/>
<path d="M30.6008 59.6189H36.9965V56.7463H30.6008C28.9444 56.7463 27.3873 57.3913 26.2161 58.5624L17.6222 67.1564C17.38 67.3973 17.188 67.6839 17.0573 67.9995C16.9266 68.3151 16.8597 68.6535 16.8606 68.9951V74.7111C16.8606 75.5045 17.5037 76.1474 18.2969 76.1474C19.0901 76.1474 19.7332 75.5045 19.7332 74.7111V69.1079L22.2369 66.6041L25.4629 70.3559V78.7682C25.4629 79.5616 26.1059 80.2045 26.8992 80.2045C27.6924 80.2045 28.3355 79.5616 28.3355 78.7682V70.3559C28.3355 69.6722 28.0899 69.01 27.6443 68.491L24.2736 64.5676L28.2472 60.5941C28.5555 60.2839 28.9223 60.0381 29.3263 59.8707C29.7303 59.7033 30.1635 59.6177 30.6008 59.6189Z" fill="#FDDEB0"/>
<path d="M18.2969 89.0941C19.8589 89.0941 21.1252 87.8278 21.1252 86.2657C21.1252 84.7037 19.8589 83.4374 18.2969 83.4374C16.7348 83.4374 15.4685 84.7037 15.4685 86.2657C15.4685 87.8278 16.7348 89.0941 18.2969 89.0941Z" fill="#EB5569"/>
<path d="M76.8945 89.0941C78.4566 89.0941 79.7229 87.8278 79.7229 86.2657C79.7229 84.7037 78.4566 83.4374 76.8945 83.4374C75.3325 83.4374 74.0662 84.7037 74.0662 86.2657C74.0662 87.8278 75.3325 89.0941 76.8945 89.0941Z" fill="#EB5569"/>
<path d="M67.5449 48.103C69.107 48.103 70.3733 46.8367 70.3733 45.2746C70.3733 43.7126 69.107 42.4463 67.5449 42.4463C65.9829 42.4463 64.7166 43.7126 64.7166 45.2746C64.7166 46.8367 65.9829 48.103 67.5449 48.103Z" fill="#EB5569"/>
<path d="M58.0037 56.7463H63.8749V59.6189H58.0037V56.7463Z" fill="#FDD79B"/>
</g>
<defs>
<clipPath id="clip0_41_977">
<rect width="95" height="95" fill="white"/>
</clipPath>
</defs>
</svg>
